<svg width="26" height="26" viewBox="0 0 26 26" fill="none" xmlns="http://www.w3.org/2000/svg">
<path d="M19.8283 7.78187C20.0235 7.5866 20.0235 7.27002 19.8283 7.07476L19.1071 6.35355C18.9118 6.15829 18.5952 6.15829 18.4 6.35355L13.0909 11.6626L7.78187 6.35355C7.5866 6.15829 7.27002 6.15829 7.07476 6.35355L6.35355 7.07476C6.15829 7.27002 6.15829 7.5866 6.35355 7.78187L11.6626 13.0909L6.35355 18.4C6.15829 18.5952 6.15829 18.9118 6.35355 19.1071L7.07476 19.8283C7.27002 20.0235 7.5866 20.0235 7.78187 19.8283L13.0909 14.5192L18.4 19.8283C18.5952 20.0235 18.9118 20.0235 19.1071 19.8283L19.8283 19.1071C20.0235 18.9118 20.0235 18.5952 19.8283 18.4L14.5192 13.0909L17.3505 10.2596L19.8283 7.78187Z" fill="currentColor"/>
<rect x="0.5" y="0.5" width="25" height="25" rx="1.5" stroke="currentColor"/>
</svg>
