<svg width="22" height="22" viewBox="0 0 22 22" fill="none" xmlns="http://www.w3.org/2000/svg">
<path d="M16.6464 6.56212C16.8417 6.36686 16.8417 6.05028 16.6464 5.85502L16.145 5.35355C15.9497 5.15829 15.6331 5.15829 15.4379 5.35355L11 9.79143L6.56212 5.35355C6.36686 5.15829 6.05028 5.15829 5.85502 5.35355L5.35355 5.85502C5.15829 6.05028 5.15829 6.36686 5.35355 6.56212L9.79143 11L5.35355 15.4379C5.15829 15.6331 5.15829 15.9497 5.35355 16.145L5.85502 16.6464C6.05028 16.8417 6.36686 16.8417 6.56212 16.6464L11 12.2086L15.4379 16.6464C15.6331 16.8417 15.9497 16.8417 16.145 16.6464L16.6464 16.145C16.8417 15.9497 16.8417 15.6331 16.6464 15.4379L12.2086 11L14.6043 8.60429L16.6464 6.56212Z" fill="currentColor"/>
<rect x="0.5" y="0.5" width="21" height="21" rx="1.5" stroke="currentColor"/>
</svg>
