<svg width="58" height="40" viewBox="0 0 58 40" fill="none" xmlns="http://www.w3.org/2000/svg">
<g clip-path="url(#clip0_116_370)">
<g clip-path="url(#clip1_116_370)">
<path d="M39.2287 27.5121C38.9934 27.4548 38.5578 27.729 38.2191 28.3527C38.3046 28.4573 38.3295 28.6378 38.2708 28.8412C38.179 29.1562 37.9239 29.4152 37.6988 29.3979C37.2058 29.359 37.5208 28.6256 37.5495 28.5549C37.9156 27.6308 38.6267 26.8221 39.3556 27.0013C39.6955 27.0849 39.5692 27.5957 39.2287 27.5121ZM32.9954 33.5643C32.7952 33.6453 32.6045 33.7104 32.4138 33.7633C32.4055 33.7716 32.3991 33.7792 32.3889 33.7894C31.2327 34.8589 31.0446 35.4654 29.1505 35.4654C27.2564 35.4654 27.0721 34.8589 25.9171 33.7894C25.9069 33.7792 25.8986 33.7716 25.8897 33.762C25.7022 33.7084 25.5122 33.6434 25.3132 33.5637C24.9879 33.4329 25.1844 32.9451 25.5102 33.0745C26.2054 33.3558 26.7398 33.4221 27.7997 33.4565C27.7997 33.4565 28.3488 33.4795 29.1537 33.4865C29.9604 33.4795 30.5114 33.4565 30.5114 33.4565C31.5713 33.4221 32.1064 33.357 32.8022 33.0745C33.1249 32.9463 33.3219 33.4336 32.9954 33.5643ZM31.4993 33.9272C31.2148 33.9559 30.9004 33.9718 30.528 33.9833C30.4846 33.9865 29.9368 34.0069 29.1543 34.0139C28.3374 34.0069 27.7768 33.9833 27.7768 33.9833C27.4056 33.9718 27.0912 33.9546 26.8055 33.9259C26.9936 34.1198 27.1569 34.2843 27.3278 34.4253C27.6084 34.5898 28.3622 34.6867 29.1473 34.6931C29.9387 34.6867 30.7046 34.5872 30.9833 34.4214C31.1511 34.2805 31.3131 34.116 31.4993 33.9272ZM27.3929 30.7857C27.3323 30.8303 27.3004 30.8667 27.3004 30.8667C27.0638 31.1256 27.4509 31.4808 27.6875 31.2225C27.8195 31.1269 27.9369 31.1543 28.0727 31.2563C28.0995 31.2761 28.1275 31.2959 28.1652 31.322C28.4745 31.5567 28.7245 31.8016 29.1581 31.8003C29.5924 31.8016 29.838 31.5567 30.1479 31.322C30.1632 31.3086 30.1779 31.2971 30.1894 31.2825L30.227 31.2563C30.343 31.169 30.4763 31.123 30.6122 31.2225C30.8488 31.4808 31.2365 31.1269 30.9993 30.8667C30.7212 30.5491 30.2308 30.5937 29.9119 30.8341C29.7755 30.9349 29.6192 31.007 29.146 31.007C28.6741 31.007 28.5261 30.9362 28.3896 30.8341C28.081 30.6026 27.7028 30.5586 27.3929 30.7857ZM29.1435 32.1058L24.9765 32.2231L24.6257 31.4247L25.1997 31.2391L25.3068 31.7946L25.773 31.5905L25.6187 30.6262L23.8253 31.0835L24.4771 32.8845L28.7034 32.9929L29.1435 32.1058ZM32.5267 31.5899L32.9929 31.7933L33.1 31.2378L33.6752 31.4234L33.3232 32.2219L29.1568 32.1045L29.5956 32.9916L33.8206 32.8832L34.4731 31.0829L32.6816 30.625L32.5267 31.5899ZM27.368 25.6187C27.9649 25.8604 28.3271 24.9663 27.7309 24.7233C26.7003 24.305 25.523 24.1889 24.3081 24.4752C23.5007 24.6659 22.7743 25.0122 22.1615 25.4682C21.6443 25.8534 22.2227 26.6276 22.7386 26.243C23.245 25.8655 23.8515 25.5753 24.5307 25.4159C25.5472 25.1755 26.5204 25.2737 27.368 25.6187ZM24.4242 27.0651C24.4242 27.4835 24.7628 27.8234 25.1824 27.8234C25.6014 27.8234 25.9414 27.4835 25.9414 27.0651C25.9414 26.9382 25.9095 26.8183 25.8546 26.715C26.5211 26.9439 26.81 27.4273 26.8253 27.4548C26.8961 27.5804 27.0555 27.6257 27.1837 27.5542C27.3087 27.4847 27.3559 27.324 27.2838 27.1958C27.2596 27.1544 26.6722 26.1308 25.2481 26.0696C23.5511 25.9975 22.9574 27.1997 22.9338 27.252C22.8706 27.3827 22.9274 27.5408 23.0575 27.604C23.0945 27.6206 23.1315 27.6301 23.1704 27.6301C23.268 27.6301 23.3636 27.574 23.4083 27.4796C23.4108 27.472 23.7125 26.8655 24.5377 26.6601C24.4669 26.7787 24.4242 26.9152 24.4242 27.0651ZM32.9469 26.0709C31.5216 26.1321 30.9342 27.1544 30.9106 27.1971C30.8405 27.3227 30.8851 27.4822 31.0101 27.5536C31.1358 27.625 31.2958 27.581 31.3685 27.4573C31.3826 27.4299 31.6721 26.9446 32.3392 26.7162C32.2843 26.8196 32.2531 26.9401 32.2531 27.0664C32.2531 27.4847 32.593 27.8246 33.012 27.8246C33.431 27.8246 33.7709 27.4847 33.7709 27.0664C33.7709 26.9165 33.7282 26.7794 33.6536 26.6601C34.4667 26.8597 34.7696 27.4509 34.7843 27.4809C34.8283 27.5746 34.9233 27.6308 35.0209 27.6308C35.0598 27.6308 35.098 27.6218 35.135 27.6046C35.2651 27.5421 35.3213 27.384 35.2575 27.2532C35.2358 27.2022 34.6446 25.9988 32.9469 26.0709ZM36.0266 25.4682C35.4131 25.0122 34.6861 24.6659 33.8812 24.4752C32.6657 24.1889 31.4884 24.3037 30.4572 24.7233C29.8609 24.9663 30.2251 25.8604 30.8207 25.6187C31.667 25.2737 32.6408 25.1755 33.6574 25.4159C34.3353 25.5753 34.9424 25.8655 35.4494 26.243C35.9654 26.6276 36.5432 25.8527 36.0266 25.4682ZM30.3367 36.6C29.6116 36.4915 28.6913 36.4928 27.9668 36.6C27.8233 36.6223 27.7238 36.7556 27.7449 36.8991C27.7647 37.0298 27.8769 37.1242 28.0051 37.1242C28.0178 37.1242 28.03 37.1229 28.0446 37.121C28.7181 37.0209 29.5841 37.0209 30.2589 37.121C30.4036 37.1408 30.5369 37.0432 30.558 36.8991C30.579 36.7556 30.4795 36.6223 30.3367 36.6ZM57.9815 17.8976L56.0765 22.981C56.1167 22.9574 56.1601 22.937 56.2054 22.9185C56.3323 22.8688 56.4605 22.8452 56.5906 22.849C56.7207 22.8503 56.8463 22.8809 56.9687 22.937C57.0886 22.9906 57.1945 23.0665 57.2812 23.1628C57.3712 23.2584 57.4362 23.3707 57.4821 23.4988C57.5274 23.6258 57.5472 23.7565 57.5414 23.8911C57.5351 24.0243 57.5038 24.1551 57.4483 24.2794C57.3903 24.4032 57.3138 24.5129 57.2181 24.606C57.1218 24.6984 57.0096 24.7705 56.8826 24.8215C56.7564 24.8713 56.6282 24.8961 56.4974 24.8923C56.3667 24.8878 56.2411 24.8591 56.1199 24.8043C55.9987 24.7482 55.8941 24.6723 55.8061 24.5773C55.7175 24.4816 55.6518 24.3694 55.6059 24.2399C55.5912 24.1978 55.5785 24.1538 55.5683 24.1092C55.243 24.6098 54.78 25.0932 54.1907 25.5575C54.2296 25.5587 54.2679 25.5613 54.3074 25.5677C54.4426 25.5887 54.5657 25.6346 54.6761 25.7022C54.7877 25.7705 54.8814 25.8591 54.9579 25.9675C55.0351 26.076 55.0861 26.1933 55.1148 26.3215C55.141 26.4484 55.1422 26.5804 55.1174 26.715C55.0925 26.847 55.044 26.9688 54.9713 27.0823C54.8986 27.1958 54.8062 27.2902 54.6939 27.3699C54.5817 27.4497 54.4605 27.5045 54.331 27.5357C54.2016 27.567 54.0689 27.5734 53.9325 27.553C53.7973 27.5319 53.6754 27.4866 53.5638 27.4184C53.4522 27.3514 53.3578 27.2615 53.282 27.1544C53.2054 27.0447 53.1531 26.928 53.1257 26.7985C53.0996 26.6722 53.0977 26.5415 53.1212 26.4057C53.1308 26.3598 53.1436 26.3151 53.1582 26.2724C52.5983 26.6155 51.9688 26.9465 51.2712 27.2615C51.3254 27.273 51.3783 27.2877 51.4306 27.3055C51.5575 27.3553 51.6697 27.4254 51.7635 27.5147C51.8572 27.604 51.9325 27.7111 51.9861 27.831C52.0384 27.9522 52.0651 28.0797 52.0651 28.2098C52.0658 28.3406 52.0396 28.4688 51.9873 28.595C51.9357 28.7194 51.863 28.8291 51.7673 28.9254C51.6742 29.021 51.5639 29.0969 51.4357 29.1511C51.3101 29.2047 51.1793 29.2334 51.0473 29.2372C50.914 29.2411 50.782 29.2187 50.6538 29.1716C50.5256 29.1237 50.4153 29.0529 50.3209 28.9643C50.2259 28.8737 50.1526 28.7679 50.099 28.6467C50.0467 28.5249 50.0199 28.3967 50.0199 28.2685C50.0193 28.1384 50.0448 28.0102 50.0971 27.8833C50.1207 27.8246 50.1494 27.7723 50.1832 27.7201C49.5263 27.9783 48.8222 28.2245 48.0742 28.4566C48.1424 28.4751 48.2094 28.5 48.2731 28.5338C48.3943 28.5982 48.4976 28.6792 48.5805 28.7787C48.6641 28.8776 48.7253 28.9917 48.7636 29.118C48.8025 29.2462 48.8146 29.3744 48.7999 29.5038C48.7865 29.6333 48.7457 29.7576 48.68 29.8775C48.6137 29.9949 48.5295 30.0956 48.4243 30.1805C48.3197 30.2646 48.2017 30.3265 48.0697 30.366C47.9377 30.4056 47.8057 30.4209 47.6724 30.4081C47.5404 30.3967 47.4128 30.3609 47.2885 30.2984C47.1679 30.2347 47.0646 30.1537 46.9811 30.0542C46.8975 29.9534 46.8357 29.8399 46.798 29.713C46.7585 29.5861 46.7477 29.4579 46.7611 29.3278C46.7751 29.1971 46.8165 29.074 46.881 28.9541C46.9192 28.8858 46.9645 28.8246 47.0149 28.7672C46.2981 28.9668 45.5468 29.1562 44.7662 29.3342C44.8472 29.359 44.9237 29.3941 44.9983 29.4388C45.115 29.5108 45.2101 29.5995 45.286 29.7053C45.3612 29.8112 45.4135 29.9298 45.4422 30.0606C45.4715 30.19 45.4735 30.3182 45.4499 30.4477C45.4244 30.5746 45.3752 30.6958 45.3006 30.8093C45.226 30.9221 45.1329 31.0159 45.0213 31.0905C44.9103 31.1658 44.7885 31.2181 44.6546 31.2474C44.5194 31.2774 44.3861 31.2825 44.2547 31.2608C44.1234 31.2372 43.999 31.1913 43.881 31.1198C43.7643 31.0491 43.6693 30.9604 43.5934 30.8545C43.5175 30.7474 43.4652 30.6288 43.4365 30.4993C43.4078 30.3699 43.4059 30.2391 43.4295 30.1122C43.4544 29.984 43.5041 29.8629 43.5787 29.75C43.6285 29.6741 43.6871 29.6078 43.7522 29.5504C42.9952 29.7041 42.2159 29.8482 41.411 29.9789C41.5022 30.0102 41.5851 30.0523 41.6636 30.1084C41.7771 30.1868 41.8664 30.2819 41.9372 30.3903C42.0061 30.5012 42.0513 30.6231 42.0724 30.7538C42.0922 30.8858 42.087 31.014 42.0558 31.1409C42.0239 31.2665 41.9665 31.3839 41.8849 31.4936C41.8039 31.602 41.7057 31.6906 41.5903 31.7589C41.4742 31.8284 41.3485 31.8737 41.214 31.8947C41.0769 31.9158 40.9436 31.9119 40.8141 31.882C40.6847 31.852 40.5622 31.7997 40.45 31.7212C40.3371 31.6415 40.2484 31.5484 40.1777 31.4387C40.1094 31.3265 40.0635 31.2059 40.0431 31.0752C40.022 30.9445 40.0284 30.815 40.059 30.69C40.0909 30.5631 40.149 30.4451 40.2299 30.3354C40.2899 30.2544 40.3594 30.1868 40.4366 30.1275C40.1043 30.1773 39.7663 30.2232 39.4264 30.2691C39.1713 30.6715 38.9219 30.9929 38.6643 31.2283C38.6656 31.2391 38.6675 31.248 38.6688 31.257C38.6821 31.389 38.6707 31.5172 38.633 31.6422C38.5935 31.7659 38.531 31.8813 38.4436 31.9859C38.3575 32.0905 38.2542 32.174 38.1369 32.2365C38.0183 32.3016 37.8907 32.3386 37.7549 32.3539C37.6171 32.3686 37.4838 32.359 37.3563 32.3214C37.2912 32.3029 37.2307 32.2793 37.172 32.2506C37.0674 32.8373 36.9092 33.3902 36.716 33.9195C35.6459 37.0375 33.461 38.371 31.1 38.7874C30.9719 38.8097 30.9126 38.8397 30.873 38.8659C30.3341 39.2096 30.0669 39.2281 29.3635 39.2281C29.2678 39.2281 28.926 39.2281 28.8291 39.2281C28.1256 39.2281 27.859 39.2096 27.3195 38.8659C27.28 38.8397 27.2213 38.8097 27.0938 38.7874C24.7335 38.3722 22.5479 37.0375 21.4772 33.9195C21.2859 33.3928 21.1277 32.843 21.0218 32.2576C20.9555 32.2952 20.8834 32.3252 20.8075 32.3488C20.6787 32.3858 20.5461 32.396 20.409 32.3819C20.2718 32.3685 20.1449 32.3309 20.0257 32.2678C19.9077 32.2053 19.8037 32.1217 19.7151 32.0172C19.6271 31.9126 19.5646 31.7971 19.525 31.6734C19.4868 31.5491 19.4747 31.4209 19.4874 31.2882C19.4912 31.2608 19.4957 31.2346 19.5008 31.2072C19.2566 30.9783 19.02 30.6728 18.7795 30.2953C18.4122 30.2481 18.0487 30.1983 17.6884 30.146C17.7796 30.2098 17.8605 30.2844 17.9275 30.3737C18.0098 30.4821 18.0672 30.6001 18.0997 30.7264C18.1329 30.8526 18.1392 30.9802 18.1182 31.1135C18.0984 31.2442 18.0525 31.3654 17.9849 31.4751C17.9154 31.5867 17.8255 31.6804 17.7132 31.7601C17.6029 31.836 17.483 31.8922 17.3523 31.9221C17.2215 31.9534 17.0882 31.9578 16.9537 31.9362C16.8166 31.9158 16.6909 31.8698 16.5761 31.8029C16.4613 31.734 16.3625 31.6466 16.2777 31.5363C16.1954 31.4279 16.1374 31.3105 16.1061 31.1849C16.0723 31.058 16.0666 30.9304 16.087 30.7984C16.1074 30.6664 16.1527 30.5446 16.2209 30.4349C16.2892 30.3252 16.3797 30.2302 16.4913 30.1505C16.5825 30.0873 16.6794 30.0402 16.7828 30.0076C15.9505 29.8756 15.145 29.7283 14.3644 29.5708C14.4448 29.6371 14.515 29.7124 14.5736 29.7985C14.6489 29.9132 14.6993 30.0338 14.7235 30.162C14.7496 30.2889 14.7484 30.4183 14.7197 30.5478C14.691 30.6785 14.64 30.7959 14.5641 30.9017C14.4894 31.0089 14.3931 31.0988 14.2777 31.1709C14.1629 31.2417 14.0398 31.2895 13.9078 31.3131C13.7752 31.3354 13.6432 31.3329 13.5086 31.3029C13.3734 31.2742 13.251 31.2219 13.1406 31.1473C13.0303 31.0739 12.9365 30.9789 12.8594 30.866C12.7835 30.7525 12.7325 30.632 12.7082 30.5044C12.6834 30.3762 12.6846 30.2481 12.7133 30.1186C12.7414 29.9866 12.7931 29.8692 12.8683 29.7634C12.9429 29.6562 13.0386 29.5657 13.1547 29.4942C13.242 29.4394 13.3339 29.3999 13.4327 29.3737C12.6196 29.1951 11.8396 29 11.0954 28.7953C11.1617 28.8616 11.221 28.9362 11.2682 29.021C11.3352 29.1416 11.3766 29.264 11.3913 29.3948C11.4066 29.5229 11.3951 29.6537 11.3575 29.78C11.3199 29.9081 11.2593 30.0217 11.1764 30.1224C11.0928 30.2232 10.9908 30.3042 10.8709 30.368C10.751 30.4311 10.6241 30.4674 10.4908 30.4821C10.3562 30.4955 10.2236 30.4821 10.0935 30.4426C9.96021 30.403 9.84159 30.3431 9.737 30.2595C9.63305 30.1773 9.54568 30.0765 9.4768 29.956C9.40984 29.8367 9.36902 29.7143 9.35499 29.5835C9.33969 29.4553 9.34989 29.3265 9.38815 29.1983C9.42642 29.0708 9.48573 28.9566 9.56927 28.8565C9.65282 28.757 9.75486 28.6748 9.87539 28.6103C9.95893 28.5676 10.0476 28.5357 10.1362 28.5166C9.34798 28.2762 8.60628 28.0211 7.91497 27.7519C7.96727 27.8183 8.01127 27.8948 8.04571 27.9745C8.09928 28.1008 8.1267 28.2277 8.12798 28.3597C8.12925 28.4892 8.10311 28.6174 8.05209 28.7385C8.00107 28.8616 7.92837 28.9675 7.83334 29.0587C7.74023 29.1505 7.6299 29.2194 7.50299 29.2691C7.37608 29.3189 7.24662 29.3412 7.1127 29.3399C6.97813 29.3386 6.84803 29.3099 6.72176 29.2576C6.59485 29.2041 6.48388 29.1307 6.3895 29.037C6.29511 28.9426 6.21858 28.8329 6.16374 28.706C6.10889 28.5816 6.08274 28.4535 6.08147 28.3214C6.08147 28.1907 6.1057 28.0657 6.15736 27.9414C6.20902 27.8183 6.28108 27.7124 6.37547 27.6212C6.46858 27.5313 6.57891 27.4605 6.70773 27.4107C6.78553 27.3808 6.86589 27.361 6.94752 27.3495C6.19945 27.0192 5.52408 26.6729 4.92843 26.3119C4.96032 26.3827 4.98583 26.4554 5.00241 26.5339C5.02983 26.6684 5.03111 26.7992 5.00687 26.9273C4.98328 27.053 4.93353 27.1741 4.85892 27.2851C4.7843 27.3948 4.69183 27.4854 4.58278 27.5562C4.47245 27.6263 4.35128 27.6748 4.21607 27.6984C4.08406 27.722 3.95205 27.7181 3.82004 27.6907C3.68866 27.6633 3.56749 27.6097 3.45397 27.5326C3.33854 27.4567 3.2448 27.3623 3.17018 27.2526C3.09556 27.1416 3.04391 27.0205 3.01393 26.8859C2.98587 26.7513 2.98396 26.6219 3.00883 26.4937C3.03307 26.3655 3.08281 26.2456 3.15551 26.1353C3.23077 26.0256 3.32451 25.9357 3.43293 25.8636C3.54262 25.7947 3.66443 25.7456 3.80027 25.7214C3.87488 25.708 3.9495 25.7042 4.02539 25.708C3.36724 25.2163 2.8494 24.7023 2.49099 24.1704C2.48843 24.259 2.47696 24.3464 2.45145 24.4325C2.41191 24.5645 2.35196 24.6825 2.27033 24.7833C2.18933 24.8834 2.08857 24.9657 1.97059 25.0288C1.85261 25.0913 1.73016 25.127 1.59942 25.1385C1.46932 25.15 1.33986 25.1334 1.2104 25.0913C1.08222 25.0492 0.966785 24.9854 0.864109 24.8981C0.761432 24.8107 0.678526 24.7061 0.612839 24.5856C0.548427 24.4637 0.509525 24.3375 0.495494 24.2042C0.481464 24.0709 0.492943 23.9389 0.53057 23.8069C0.568835 23.6761 0.627507 23.5588 0.709775 23.458C0.793319 23.356 0.892169 23.275 1.01015 23.2119C1.12877 23.1494 1.25186 23.113 1.38132 23.1022C1.51078 23.0907 1.64151 23.1079 1.77098 23.1494C1.86409 23.1806 1.95146 23.2227 2.03117 23.2763L0.0159131 17.8969C0.00315825 17.867 -3.05176e-05 17.8357 -3.05176e-05 17.8057C-3.05176e-05 16.6227 0.621129 15.3817 1.79521 14.2197C4.54834 11.4934 10.9111 8.65096 21.0913 7.72751C21.0882 7.68924 21.0913 7.65417 21.1047 7.61782C22.5205 3.59367 24.4605 -0.125635 29.0733 0.00382678H29.0784C29.1492 0.00127581 29.2264 0 29.3042 0C33.7486 0 35.6484 3.66191 37.0406 7.61782C37.054 7.65799 37.0578 7.70136 37.0534 7.74026C47.1501 8.67902 53.4637 11.5042 56.2041 14.2184C57.3801 15.3798 58 16.6221 58 17.8045C57.9981 17.8363 57.9917 17.8676 57.9815 17.8976ZM0.640899 16.9709C0.737836 16.932 0.847527 16.9237 0.955943 16.9582L3.07069 17.6406L3.4291 14.7337C3.44568 14.5915 3.52987 14.4646 3.65486 14.3913C3.77795 14.3186 3.93037 14.3077 4.06493 14.3613L6.72431 15.441L7.50108 12.3263C7.53743 12.1815 7.64202 12.0629 7.78168 12.0074C7.92135 11.9525 8.07951 11.9685 8.20387 12.0508L11.1624 13.985L12.2121 10.7976C12.2605 10.6496 12.3823 10.5348 12.5329 10.4947C12.6834 10.4545 12.8447 10.4921 12.9621 10.5954L15.6705 13.0118L17.3248 9.66879C17.3912 9.53168 17.5232 9.43602 17.6737 9.41625C17.8242 9.39393 17.9779 9.4475 18.0812 9.55974L20.7087 12.4104L22.9064 8.98258C22.9848 8.86205 23.1168 8.78361 23.2609 8.77213C23.4063 8.75874 23.5466 8.81741 23.6442 8.92582L26.3374 11.9538L28.7353 8.62035C28.8233 8.49981 28.9617 8.42711 29.1122 8.42711C29.2595 8.42711 29.4017 8.49918 29.4885 8.62035L31.887 11.9538L34.5802 8.92582C34.6759 8.81741 34.8168 8.75874 34.9628 8.77213C35.1089 8.78361 35.2396 8.86205 35.3168 8.98258L37.5151 12.4104L40.1426 9.55974C40.2459 9.4475 40.3983 9.39393 40.5495 9.41625C40.7012 9.43602 40.8313 9.53232 40.8996 9.66879L42.5539 13.0118L45.2624 10.5954C45.3791 10.4921 45.5404 10.4539 45.6909 10.4947C45.8421 10.5342 45.9632 10.649 46.0117 10.7976L47.0614 13.985L50.0193 12.0508C50.1443 11.9685 50.3024 11.9513 50.4421 12.0074C50.5824 12.0629 50.687 12.1815 50.7227 12.3263L51.4982 15.441L54.1589 14.3613C54.2921 14.3077 54.4433 14.3186 54.5696 14.3913C54.6933 14.4646 54.7768 14.5915 54.7947 14.7337L55.1531 17.6406L57.2691 16.9582C57.2953 16.948 57.3214 16.9448 57.3488 16.941C57.1263 16.1648 56.6161 15.3664 55.8355 14.5928C53.9433 12.7204 50.548 11.0489 46.2751 9.88562C41.4442 8.5706 35.5241 7.90034 29.1364 7.94753C29.1262 7.9488 29.1154 7.94881 29.1039 7.94881H28.8992C28.8871 7.94881 28.8782 7.9488 28.8667 7.94753C22.4797 7.90161 16.5583 8.57188 11.728 9.88562C7.45516 11.0489 4.05983 12.7204 2.16829 14.5928C1.37494 15.3766 0.858369 16.1833 0.640899 16.9709ZM5.12358 21.6354C5.09807 21.5085 5.04833 21.3886 4.97244 21.2789C4.89782 21.1673 4.80407 21.0799 4.69374 21.0097C4.58405 20.939 4.46161 20.8918 4.32704 20.8694C4.1912 20.8484 4.05855 20.8516 3.92845 20.8816C3.79899 20.9103 3.67591 20.9638 3.56239 21.0423C3.44951 21.1194 3.35704 21.2145 3.28306 21.3267C3.20781 21.4383 3.15743 21.5595 3.13128 21.6915C3.10322 21.8248 3.10322 21.9555 3.12809 22.0837C3.15424 22.2112 3.20398 22.3305 3.27923 22.4402C3.35449 22.5499 3.44824 22.6392 3.55793 22.7112C3.66889 22.7788 3.7907 22.8273 3.92527 22.8496C4.05855 22.8719 4.19057 22.8675 4.32194 22.8388C4.45204 22.8101 4.57512 22.7565 4.68992 22.6781C4.80343 22.5996 4.89591 22.5052 4.96988 22.3949C5.04386 22.2808 5.09488 22.1596 5.12167 22.0276C5.14845 21.8943 5.14909 21.7636 5.12358 21.6354ZM8.23895 20.1915C8.23895 20.0621 8.2128 19.9351 8.1605 19.8108C8.10948 19.6896 8.03678 19.5838 7.9424 19.4919C7.84801 19.4007 7.73704 19.3312 7.61013 19.2834C7.48131 19.2362 7.35057 19.2126 7.21728 19.2151C7.08336 19.2177 6.9539 19.2464 6.82699 19.3C6.70135 19.3535 6.59039 19.4281 6.49472 19.5232C6.39906 19.6163 6.32445 19.7272 6.27215 19.8529C6.21858 19.9779 6.19243 20.1054 6.19116 20.2355C6.19116 20.3675 6.21731 20.4932 6.2696 20.6163C6.3219 20.7393 6.39332 20.8458 6.48771 20.9364C6.58209 21.0263 6.69179 21.0958 6.81997 21.1456C6.94624 21.1934 7.07634 21.2157 7.21091 21.2132C7.34483 21.2106 7.47557 21.1819 7.60312 21.1296C7.73003 21.0748 7.84099 21.0002 7.93538 20.9058C8.0304 20.812 8.10566 20.7011 8.15795 20.5767C8.21152 20.4511 8.23767 20.3216 8.23895 20.1915ZM11.4563 18.7993C11.4174 18.6724 11.3581 18.5589 11.2746 18.4569C11.191 18.3574 11.0884 18.2751 10.9678 18.2126C10.8479 18.1501 10.7217 18.1118 10.5884 18.0991C10.4545 18.0863 10.3212 18.1004 10.1904 18.1386C10.0578 18.1782 9.93916 18.2394 9.83457 18.3217C9.72998 18.4058 9.64389 18.5047 9.57501 18.6252C9.50869 18.7438 9.46787 18.8682 9.45257 18.9977C9.4379 19.1284 9.44938 19.2547 9.48637 19.3829C9.52591 19.5111 9.58522 19.6246 9.66812 19.7253C9.75294 19.8248 9.85498 19.9071 9.97488 19.9709C10.0948 20.0353 10.2217 20.0703 10.3556 20.0837C10.4889 20.0965 10.6215 20.0825 10.7529 20.0442C10.8856 20.0053 11.0055 19.9447 11.1113 19.8599C11.2159 19.7776 11.3014 19.6756 11.3671 19.5582C11.434 19.4383 11.4748 19.314 11.4895 19.1858C11.5067 19.0557 11.494 18.9262 11.4563 18.7993ZM14.8172 18.0219C14.7892 17.8925 14.7369 17.7738 14.6616 17.668C14.587 17.5608 14.4901 17.4716 14.3753 17.4001C14.2592 17.3293 14.1374 17.2809 14.0041 17.2585C13.8721 17.2369 13.7388 17.2407 13.6043 17.2694C13.4697 17.2981 13.3479 17.3504 13.2369 17.4263C13.1272 17.499 13.0335 17.5959 12.9557 17.7082C12.8811 17.8204 12.8313 17.9409 12.8052 18.0691C12.7816 18.1967 12.7829 18.3261 12.8115 18.4556C12.8402 18.5863 12.8925 18.7049 12.9684 18.8108C13.0424 18.9167 13.1393 19.0072 13.2548 19.0793C13.3696 19.1495 13.4927 19.1979 13.6253 19.2202C13.7573 19.2426 13.89 19.2387 14.0245 19.2094C14.1604 19.1794 14.2835 19.1271 14.3951 19.0532C14.5067 18.9773 14.5985 18.8829 14.6744 18.7706C14.749 18.6558 14.7987 18.5353 14.823 18.4078C14.8472 18.2808 14.8453 18.1527 14.8172 18.0219ZM18.0232 18.1916C18.1048 18.0819 18.1622 17.9645 18.1947 17.8376C18.2279 17.7113 18.233 17.5825 18.2119 17.4505C18.1915 17.3198 18.1456 17.1986 18.0767 17.0889C18.0079 16.9786 17.9173 16.8848 17.8051 16.8064C17.6941 16.7279 17.5742 16.6757 17.4435 16.6444C17.3127 16.6144 17.1794 16.6093 17.0442 16.631C16.9078 16.6508 16.7821 16.6967 16.6673 16.7656C16.5532 16.8325 16.4543 16.9212 16.3701 17.0309C16.2879 17.1399 16.2305 17.2573 16.1986 17.3855C16.1667 17.5105 16.1603 17.6399 16.182 17.7707C16.2024 17.9014 16.2483 18.0232 16.3166 18.1329C16.3854 18.2426 16.476 18.3382 16.5883 18.4167C16.6986 18.4951 16.8185 18.5487 16.9492 18.5787C17.0799 18.6086 17.2132 18.6137 17.3491 18.5914C17.4862 18.5717 17.6131 18.5264 17.7279 18.4569C17.8433 18.388 17.9422 18.3 18.0232 18.1916ZM39.4863 26.0613L39.4589 26.0524C38.5489 25.6748 37.8945 26.5479 37.6701 26.928C37.2906 27.7577 37.0189 28.1327 36.9947 28.1639C36.943 28.2334 36.8646 28.2698 36.7842 28.2698C36.7479 28.2698 36.7128 28.2634 36.679 28.2494C36.5661 28.2009 36.5036 28.0804 36.5253 27.9618C36.5342 27.9158 37.2472 23.782 35.1695 21.1194L29.535 23.6379C29.5 23.6525 29.4642 23.6602 29.4279 23.6602C29.3443 23.6602 29.264 23.6207 29.213 23.5492C29.1409 23.4485 29.1498 23.3101 29.2353 23.2176L31.5076 20.7865C28.5644 21.5863 25.9025 23.1519 24.914 23.8592C24.8081 23.9331 24.6557 23.9217 24.5645 23.8273C24.4529 23.7112 24.3795 23.634 25.0064 22.1928C25.1512 21.8624 25.3801 21.3605 25.6429 20.8847C24.0919 21.8388 23.2067 23.4408 22.8681 24.1595C22.8177 24.268 22.701 24.3292 22.5849 24.3088C22.4669 24.2865 22.3796 24.1889 22.3687 24.0709L22.1806 21.8739C20.9829 23.8783 21.5301 27.926 21.5365 27.9713C21.5531 28.0906 21.488 28.2054 21.3764 28.2513C21.3439 28.2647 21.3101 28.2698 21.2763 28.2698C21.1953 28.2698 21.1168 28.2315 21.0658 28.1639C21.0416 28.1308 20.7489 27.7296 20.3465 26.831C20.3452 26.8291 20.3433 26.8279 20.3426 26.8253C19.9173 26.0007 19.1979 25.9044 18.7323 26.0517L18.7049 26.0613C18.261 26.2233 18.0295 26.912 18.254 27.9235C18.3873 28.5242 18.6628 29.0587 18.9645 29.5867C19.4523 30.4375 19.8395 30.8884 20.2004 31.0714C20.4332 31.1906 20.6698 31.2047 20.96 31.1116L20.981 31.1039C21.122 30.9796 21.3955 31.0204 21.4249 31.2684C21.4255 31.2767 21.4268 31.2818 21.4274 31.2895H21.4287L21.43 31.2946L21.4313 31.3233C21.4319 31.3316 21.4338 31.338 21.4344 31.3469C21.4778 31.7155 21.532 32.1179 21.5952 32.4515C21.6908 32.8998 21.8209 33.3296 21.9714 33.7467C22.9708 36.6554 24.9809 37.8799 27.183 38.2683C27.9668 38.4054 27.4088 38.702 28.8271 38.702C28.8935 38.702 29.2965 38.702 29.3628 38.702C30.7825 38.702 30.2251 38.4054 31.0082 38.2683C33.2078 37.8812 35.2199 36.6554 36.2198 33.7467C36.4577 33.0866 36.642 32.3979 36.7281 31.6543C36.7383 31.5274 36.7466 31.3992 36.7626 31.2684C36.7919 31.0204 37.0674 30.9796 37.2058 31.1039L37.2275 31.1116C37.5176 31.2047 37.7555 31.1887 37.9876 31.0714C38.3467 30.8884 38.7351 30.4375 39.223 29.5867C39.5265 29.0587 39.8007 28.5242 39.934 27.9235C40.1611 26.912 39.9302 26.2226 39.4863 26.0613ZM19.747 23.4517C20.1577 24.9873 20.5792 26.0689 20.9038 26.7749C20.8165 25.1257 20.8879 22.3133 22.1997 20.9938C22.2724 20.9217 22.3796 20.8969 22.4759 20.9307C22.5722 20.9664 22.6391 21.0537 22.6487 21.1558L22.8177 23.1392C23.4248 22.1162 24.5224 20.7011 26.2054 20.0136L26.4815 19.4345C22.9484 19.9377 19.8886 21.409 19.747 23.4517ZM23.002 16.9371C23.0109 17.0704 23.0441 17.1948 23.1021 17.3108C23.1621 17.4282 23.2431 17.5315 23.3464 17.6195C23.4491 17.7069 23.5639 17.7726 23.6914 17.8153C23.819 17.8561 23.9516 17.874 24.0881 17.8663C24.2265 17.8561 24.3566 17.823 24.4777 17.7656C24.5983 17.7069 24.7041 17.6284 24.7953 17.529C24.8878 17.4282 24.9548 17.3147 24.9981 17.1935C25.0415 17.0717 25.0606 16.9422 25.0511 16.8089C25.0428 16.6769 25.0096 16.5526 24.9509 16.4352C24.8923 16.3179 24.8106 16.2158 24.7073 16.1297C24.6047 16.0405 24.4892 15.9767 24.3617 15.9333C24.2348 15.8919 24.1028 15.8747 23.9656 15.8823C23.8272 15.8931 23.6984 15.9244 23.5792 15.9818C23.4593 16.0392 23.3521 16.1189 23.2584 16.2197C23.1659 16.3192 23.099 16.4314 23.0556 16.5545C23.0122 16.6769 22.9937 16.8051 23.002 16.9371ZM29.4011 19.2451L26.4343 22.3005C27.9681 21.4562 30.0299 20.5429 32.1689 20.0786L32.6389 19.5742C31.602 19.3746 30.5018 19.2604 29.4011 19.2451ZM29.6192 17.073C29.669 17.1929 29.741 17.3019 29.838 17.4008C29.933 17.4952 30.0427 17.5698 30.1677 17.6221C30.2914 17.6744 30.4221 17.7018 30.5618 17.7031C30.6983 17.7056 30.8303 17.6833 30.9553 17.6367C31.0796 17.5883 31.1919 17.5175 31.2907 17.4263C31.3896 17.3319 31.4655 17.2248 31.5178 17.1061C31.5726 16.9869 31.6 16.86 31.6026 16.7267C31.6051 16.5947 31.5809 16.4684 31.5312 16.3479C31.4827 16.228 31.41 16.1176 31.3131 16.0194C31.2155 15.9244 31.1045 15.8498 30.9808 15.7975C30.8583 15.7452 30.7282 15.719 30.5905 15.7165C30.4527 15.7139 30.322 15.7375 30.1964 15.786C30.0714 15.8345 29.9591 15.9046 29.8609 15.9965C29.7621 16.0889 29.6862 16.1954 29.6326 16.3153C29.579 16.4339 29.5516 16.5596 29.5491 16.6929C29.5465 16.8262 29.5695 16.9518 29.6192 17.073ZM30.5076 22.6245L35.5668 20.3765L33.3436 19.578L30.5076 22.6245ZM33.0362 17.1603C33.0796 17.2821 33.1485 17.3944 33.2403 17.4951C33.3328 17.5946 33.4386 17.6718 33.5605 17.7305C33.681 17.7866 33.8117 17.8204 33.9495 17.8261C34.0866 17.8363 34.2186 17.8166 34.3455 17.7751C34.4724 17.7318 34.5872 17.6667 34.6899 17.5774C34.7932 17.4875 34.8736 17.3842 34.9322 17.2681C34.9903 17.1514 35.0228 17.0264 35.0304 16.8931C35.0387 16.7611 35.0183 16.6329 34.975 16.5111C34.9316 16.3887 34.8627 16.2758 34.7702 16.1769C34.6765 16.0762 34.5694 15.9977 34.4482 15.9403C34.3283 15.8842 34.1976 15.8511 34.0611 15.8447C33.924 15.8357 33.792 15.8536 33.665 15.8957C33.5381 15.9391 33.4227 16.0054 33.3213 16.0928C33.2167 16.1827 33.137 16.286 33.0796 16.4027C33.0203 16.5188 32.9878 16.6444 32.9801 16.7764C32.9731 16.9097 32.9916 17.0379 33.0362 17.1603ZM28.6639 19.2515C28.1416 19.2649 27.6173 19.3 27.1014 19.3574L25.6907 22.312L28.6639 19.2515ZM28.4961 16.6929C28.493 16.5609 28.4649 16.4352 28.4113 16.3153C28.3565 16.1961 28.2806 16.0896 28.1811 15.999C28.0797 15.9059 27.9662 15.8345 27.8425 15.7886C27.7181 15.7414 27.5874 15.7178 27.449 15.7216C27.3112 15.7241 27.1811 15.7516 27.0587 15.8039C26.9343 15.8574 26.8259 15.9308 26.7302 16.029C26.6339 16.1227 26.5606 16.2324 26.5115 16.3542C26.4624 16.476 26.4401 16.603 26.4426 16.7362C26.4452 16.8695 26.4739 16.9945 26.5274 17.1151C26.581 17.2337 26.6569 17.3395 26.7564 17.4327C26.8552 17.5238 26.9681 17.5946 27.0925 17.6418C27.2181 17.6884 27.3501 17.7107 27.4904 17.7082C27.6263 17.7056 27.757 17.6782 27.8795 17.6259C28.0038 17.5736 28.1135 17.499 28.2085 17.402C28.3042 17.3057 28.3782 17.1961 28.4266 17.0755C28.4757 16.9543 28.4981 16.8274 28.4961 16.6929ZM21.627 17.0532C21.6124 16.9212 21.5735 16.7987 21.5097 16.6846C21.4446 16.5711 21.3605 16.4716 21.2527 16.388C21.1455 16.3045 21.0282 16.2445 20.8987 16.2107C20.7706 16.1725 20.6373 16.1623 20.5008 16.1763C20.363 16.1897 20.2361 16.2286 20.1181 16.2917C19.9995 16.3555 19.8962 16.4378 19.8082 16.5436C19.7208 16.6482 19.6583 16.7649 19.6194 16.8887C19.5812 17.0117 19.5697 17.1412 19.5824 17.2739C19.5965 17.4059 19.636 17.5283 19.7004 17.6425C19.7648 17.7573 19.849 17.8542 19.9562 17.9403C20.0633 18.0238 20.1819 18.0825 20.3107 18.1195C20.4402 18.1558 20.5716 18.168 20.7093 18.1533C20.8471 18.1386 20.9759 18.0985 21.0945 18.0347C21.2125 17.9728 21.3152 17.8886 21.4 17.7847C21.488 17.6801 21.5499 17.5634 21.5888 17.4397C21.6283 17.3147 21.6411 17.1865 21.627 17.0532ZM36.0993 20.7024L35.6644 20.8956C37.0833 22.7788 37.2402 25.2424 37.1739 26.7347C37.5227 25.9771 37.9736 24.7979 38.4047 23.1054C38.1866 22.1513 37.3282 21.3337 36.0993 20.7024ZM36.4469 17.388C36.4858 17.5124 36.5489 17.6272 36.6363 17.7318C36.7236 17.8363 36.827 17.9173 36.9449 17.9811C37.0642 18.0442 37.1924 18.0806 37.3308 18.0946C37.4666 18.1093 37.5986 18.0991 37.7281 18.0608C37.8569 18.0232 37.9736 17.9633 38.0808 17.8803C38.1879 17.793 38.274 17.6948 38.3359 17.5812C38.3996 17.4665 38.4379 17.3434 38.4506 17.2114C38.4647 17.0793 38.4519 16.9499 38.4124 16.8262C38.3728 16.7018 38.3103 16.587 38.2223 16.4824C38.1324 16.3778 38.0278 16.2956 37.9111 16.2331C37.7925 16.1699 37.665 16.1336 37.5272 16.1176C37.3914 16.1042 37.2594 16.1164 37.1299 16.1533C37.0004 16.191 36.8831 16.2509 36.7772 16.3351C36.6701 16.4199 36.584 16.5181 36.5215 16.6329C36.4583 16.7464 36.4201 16.8708 36.4073 17.0015C36.3939 17.1348 36.4067 17.2649 36.4469 17.388ZM41.8371 17.3045C41.8039 17.1776 41.7452 17.0602 41.6642 16.9518C41.5794 16.8421 41.4799 16.7541 41.3645 16.6865C41.2491 16.6195 41.1234 16.5755 40.9876 16.5545C40.8517 16.5347 40.7185 16.5398 40.5877 16.5698C40.457 16.5998 40.3371 16.6552 40.2268 16.7337C40.1164 16.8121 40.0271 16.9072 39.957 17.0181C39.8894 17.1297 39.8435 17.2496 39.8243 17.3816C39.8046 17.5136 39.811 17.6412 39.8435 17.7681C39.876 17.8937 39.934 18.0111 40.0163 18.1214C40.0986 18.2266 40.1968 18.3172 40.3129 18.3835C40.4289 18.4518 40.5558 18.4977 40.693 18.5168C40.8288 18.5379 40.9627 18.5328 41.0922 18.5028C41.2236 18.4715 41.3447 18.418 41.4538 18.3382C41.5647 18.2585 41.6534 18.1641 41.7229 18.0532C41.7905 17.9422 41.8364 17.821 41.8568 17.6903C41.8766 17.5596 41.8696 17.4301 41.8371 17.3045ZM45.2356 17.9735C45.2101 17.8465 45.1597 17.7254 45.0832 17.6125C45.0054 17.499 44.9103 17.4065 44.8013 17.3332C44.6897 17.2585 44.5679 17.2063 44.4314 17.1788C44.2981 17.1501 44.1648 17.1476 44.0328 17.1712C43.9008 17.1935 43.7777 17.2401 43.6629 17.3121C43.5462 17.3855 43.4531 17.476 43.3778 17.5832C43.3026 17.689 43.2516 17.8089 43.2235 17.9371C43.1954 18.0678 43.1948 18.1986 43.2203 18.3236C43.2458 18.4518 43.2968 18.5736 43.3727 18.6858C43.4474 18.7993 43.5411 18.8905 43.6521 18.9664C43.7643 19.041 43.888 19.0921 44.0239 19.1208C44.1584 19.1482 44.2911 19.152 44.4231 19.1297C44.5551 19.1067 44.6788 19.0583 44.7936 18.9862C44.9091 18.9128 45.0054 18.8229 45.0793 18.7171C45.1546 18.6099 45.205 18.4913 45.2324 18.3606C45.2598 18.2311 45.2611 18.1029 45.2356 17.9735ZM48.592 18.8842C48.5767 18.7547 48.5352 18.6316 48.4683 18.513C48.3994 18.3931 48.3114 18.2923 48.2068 18.2101C48.1009 18.1278 47.9823 18.0678 47.8503 18.0296C47.7183 17.9913 47.5857 17.9786 47.4524 17.9907C47.3184 18.0041 47.1928 18.043 47.0729 18.1055C46.9524 18.1692 46.8497 18.2521 46.7674 18.3523C46.6839 18.4543 46.6239 18.5678 46.5876 18.6947C46.5493 18.8229 46.5404 18.9511 46.5557 19.0819C46.571 19.2088 46.6131 19.3344 46.6801 19.453C46.7464 19.5704 46.8325 19.6711 46.9384 19.7534C47.0436 19.8382 47.1635 19.8982 47.2968 19.9364C47.43 19.9741 47.5621 19.9874 47.6941 19.974C47.8286 19.9607 47.9549 19.923 48.0754 19.8593C48.1953 19.7942 48.298 19.7132 48.3803 19.6125C48.4632 19.5117 48.5231 19.3969 48.5608 19.2687C48.5965 19.1418 48.6073 19.0123 48.592 18.8842ZM51.8687 20.1246C51.8662 19.9951 51.8381 19.8682 51.7839 19.7419C51.7271 19.6163 51.6519 19.5079 51.5562 19.4135C51.4618 19.3204 51.3502 19.2477 51.2233 19.1941C51.0958 19.1431 50.9663 19.1157 50.8318 19.1144C50.6972 19.1144 50.5677 19.138 50.4427 19.1877C50.3165 19.2368 50.2061 19.3089 50.113 19.4007C50.0199 19.4919 49.9466 19.5978 49.8968 19.7209C49.8458 19.8446 49.8216 19.9734 49.8241 20.1022C49.8241 20.2317 49.8541 20.3599 49.9077 20.4855C49.9612 20.6092 50.0359 20.7196 50.1334 20.8133C50.2291 20.9077 50.342 20.9804 50.4695 21.034C50.5964 21.0863 50.7272 21.1124 50.8605 21.1137C50.995 21.115 51.1245 21.0901 51.2501 21.0404C51.3764 20.9893 51.4867 20.9192 51.5805 20.8273C51.6736 20.7362 51.7456 20.629 51.796 20.5059C51.8458 20.3828 51.87 20.2566 51.8687 20.1246ZM54.9503 21.5282C54.9184 21.3937 54.8655 21.2731 54.7896 21.1634C54.7137 21.055 54.6168 20.9619 54.502 20.8854C54.3872 20.8108 54.2641 20.7597 54.1333 20.7336C54.0013 20.7062 53.8693 20.7062 53.7367 20.7298C53.6027 20.7572 53.4822 20.8044 53.3732 20.8777C53.2641 20.9492 53.1735 21.0423 53.1002 21.1507C53.0269 21.2642 52.979 21.3835 52.9561 21.5097C52.9325 21.6392 52.9363 21.7699 52.9656 21.9032C52.9956 22.0352 53.0492 22.1558 53.1251 22.2648C53.2016 22.3764 53.2979 22.4689 53.4146 22.5461C53.5288 22.6207 53.6525 22.6704 53.7832 22.6978C53.9152 22.724 54.0472 22.7253 54.1805 22.6991C54.3138 22.673 54.435 22.6232 54.5434 22.5524C54.6525 22.4823 54.743 22.3892 54.817 22.2782C54.8897 22.1672 54.9369 22.048 54.9611 21.9185C54.9835 21.7923 54.9796 21.6615 54.9503 21.5282ZM57.4247 17.881L54.8999 18.6947C54.8534 18.7094 54.8062 18.7171 54.7571 18.7171C54.669 18.7171 54.5836 18.6935 54.5064 18.6456C54.3897 18.571 54.3125 18.4479 54.2953 18.3121L53.9414 15.4499L51.349 16.5035C51.224 16.5545 51.0837 16.5481 50.9638 16.4875C50.8439 16.4263 50.7559 16.3166 50.7246 16.1859L49.9759 13.1866L47.0602 15.0947C46.9403 15.1731 46.7885 15.1916 46.6526 15.1444C46.5168 15.096 46.4109 14.9888 46.3663 14.8517L45.3472 11.7625L42.712 14.1119C42.6043 14.2076 42.4576 14.2503 42.3154 14.2229C42.1719 14.1929 42.052 14.1024 41.9863 13.971L40.3632 10.6866L37.7861 13.4831C37.6885 13.589 37.547 13.6426 37.4035 13.6298C37.2587 13.6164 37.1305 13.538 37.0534 13.4181L34.8608 10.0017L32.1899 13.0061C32.0968 13.1107 31.9597 13.1694 31.8194 13.1604C31.6785 13.154 31.549 13.0833 31.4667 12.9685L29.1077 9.68665L26.7487 12.9685C26.6665 13.0833 26.5364 13.154 26.3954 13.1604C26.2545 13.1694 26.1187 13.1107 26.0255 13.0061L23.3572 10.0017L21.1653 13.4181C21.0875 13.538 20.9581 13.617 20.8146 13.6298C20.6711 13.6426 20.5308 13.589 20.4332 13.4831L17.8548 10.6866L16.2305 13.971C16.1667 14.1017 16.0462 14.1929 15.9027 14.2229C15.7605 14.2503 15.6138 14.2082 15.506 14.1119L12.8702 11.7625L11.8517 14.8517C11.8077 14.9888 11.7012 15.096 11.5654 15.1444C11.4283 15.1916 11.2784 15.1731 11.1566 15.0947L8.24086 13.1866L7.49343 16.1859C7.46026 16.3166 7.37353 16.4263 7.253 16.4875C7.1331 16.5487 6.99407 16.5545 6.8678 16.5035L4.27347 15.4499L3.92016 18.3121C3.90486 18.4492 3.82642 18.571 3.70971 18.6456C3.593 18.7196 3.44951 18.7387 3.31814 18.6947L0.667684 17.8402C0.612839 17.8223 0.565008 17.7949 0.521642 17.7605L1.98908 21.6749C3.13766 17.2943 14.7943 13.8492 29.0063 13.8492C43.1808 13.8492 54.8119 17.2758 56.014 21.6405L57.4247 17.881ZM18.8382 27.0013C18.4983 27.0849 18.6239 27.5957 18.9638 27.5121C19.1992 27.4548 19.6354 27.729 19.974 28.3527C19.8879 28.4573 19.8643 28.6378 19.9217 28.8412C20.0129 29.1562 20.2693 29.4152 20.4938 29.3979C20.9861 29.359 20.6723 28.6256 20.6424 28.5549C20.2776 27.6301 19.5652 26.8221 18.8382 27.0013Z" fill="url(#paint0_linear_116_370)"/>
</g>
</g>
<defs>
<linearGradient id="paint0_linear_116_370" x1="29" y1="0" x2="29" y2="39.2281" gradientUnits="userSpaceOnUse">
<stop stop-color="#007A31"/>
<stop offset="0.671875" stop-color="#004F80"/>
</linearGradient>
<clipPath id="clip0_116_370">
<rect width="58" height="40" fill="white"/>
</clipPath>
<clipPath id="clip1_116_370">
<rect width="58" height="40" fill="white"/>
</clipPath>
</defs>
</svg>
