<svg width="56" height="30" viewBox="0 0 56 30" fill="none" xmlns="http://www.w3.org/2000/svg">
<g clip-path="url(#clip0_654_660)">
<mask id="mask0_654_660" style="mask-type:luminance" maskUnits="userSpaceOnUse" x="0" y="5" width="56" height="25">
<path d="M0 5H56V29.838H0V5Z" fill="white"/>
</mask>
<g mask="url(#mask0_654_660)">
<mask id="mask1_654_660" style="mask-type:luminance" maskUnits="userSpaceOnUse" x="0" y="5" width="56" height="25">
<path d="M0 5H56V29.838H0V5Z" fill="white"/>
</mask>
<g mask="url(#mask1_654_660)">
<path d="M5.288 27.134C4.49089 26.8574 3.7171 26.5177 2.974 26.118C2.253 25.716 1.554 25.245 1.097 24.608C0.871003 24.292 0.722002 23.928 0.712002 23.558C0.702002 23.178 0.829003 22.838 1.021 22.533C1.408 21.926 1.981 21.51 2.509 21.168C3.59 20.498 4.593 20.12 5.289 19.86C5.987 19.603 6.395 19.48 6.395 19.48L6.369 19.398L6.064 19.455C5.866 19.494 5.573 19.541 5.209 19.641C4.486 19.845 3.418 20.086 2.235 20.733C1.655 21.069 1.005 21.463 0.479002 22.191C0.339286 22.3856 0.226593 22.5982 0.144002 22.823C0.100108 22.9526 0.0646999 23.0849 0.0380025 23.219L0.0180025 23.359L0.00800245 23.432L0.00400245 23.45L2.45195e-06 23.524L0.00100245 23.575C-0.0169975 24.117 0.208002 24.636 0.482002 25.038C1.052 25.854 1.816 26.368 2.583 26.822C3.358 27.272 4.173 27.63 4.993 27.946C6.659 28.516 8.35 28.904 9.94 29.208C11.53 29.518 13.039 29.619 14.32 29.737C15.602 29.848 16.68 29.822 17.43 29.837C18.18 29.833 18.611 29.806 18.611 29.806L18.621 29.719C18.621 29.719 16.921 29.584 14.391 29.229C11.869 28.859 8.49 28.287 5.288 27.134ZM55.998 23.514V23.488L55.981 23.286C55.964 23.151 55.964 23.009 55.919 22.886C55.596 21.845 54.868 21.253 54.217 20.796C53.547 20.333 52.857 20.005 52.185 19.721C51.518 19.419 50.841 19.239 50.208 19.064C49.6124 18.9126 49.0136 18.7743 48.412 18.649C47.295 18.419 46.349 18.355 45.695 18.288C45.3506 18.2578 45.0055 18.2358 44.66 18.222L44.642 18.307L45.647 18.517C46.287 18.644 47.197 18.855 48.277 19.147C49.352 19.447 50.604 19.833 51.877 20.407C52.51 20.693 53.156 21.022 53.743 21.451C54.328 21.87 54.887 22.411 55.083 23.107C55.28 23.8 54.924 24.545 54.408 25.028C53.896 25.538 53.282 25.93 52.668 26.253C52.048 26.573 51.43 26.845 50.831 27.067C50.235 27.297 49.659 27.486 49.122 27.647C48.053 27.975 47.144 28.189 46.509 28.34L45.507 28.56L45.525 28.644C45.525 28.644 45.904 28.629 46.562 28.566C47.212 28.476 48.162 28.404 49.27 28.137C49.8717 28.004 50.4679 27.8469 51.057 27.666C51.689 27.48 52.358 27.251 53.017 26.918C53.678 26.588 54.356 26.189 54.982 25.597C55.294 25.289 55.58 24.951 55.796 24.439C55.849 24.299 55.896 24.155 55.935 24.012C55.956 23.902 55.963 23.821 55.977 23.726L55.987 23.656L55.992 23.622V23.613C55.993 23.629 56.004 23.441 55.999 23.513L55.998 23.514ZM46.781 23.09C46.836 22.767 46.733 22.342 46.559 22.069C46.398 21.7998 46.1893 21.5623 45.943 21.368C45.019 20.646 44.013 20.302 43.05 19.994C42.1204 19.7145 41.1751 19.4901 40.219 19.322C39.799 19.246 39.387 19.18 38.981 19.118L38.937 19.417C39.331 19.5 39.731 19.589 40.137 19.694C41.029 19.919 41.949 20.184 42.865 20.532C43.771 20.88 44.725 21.306 45.434 21.946C45.782 22.276 46.007 22.63 45.912 23.001C45.852 23.279 45.502 23.663 45.084 23.919C44.237 24.463 43.172 24.815 42.094 25.106C39.916 25.666 37.572 25.968 35.192 26.189C32.808 26.38 30.373 26.507 27.937 26.483C25.501 26.503 23.067 26.38 20.682 26.186C18.302 25.964 15.961 25.661 13.782 25.101C12.704 24.811 11.638 24.459 10.792 23.915C10.374 23.648 10.029 23.303 9.962 22.974C9.958 22.951 9.947 22.855 9.942 22.887L9.957 22.687C9.984 22.617 9.984 22.565 10.04 22.463C10.125 22.286 10.268 22.109 10.441 21.95C11.149 21.31 12.103 20.884 13.009 20.535C13.9008 20.2035 14.811 19.9237 15.735 19.697C16.8155 19.4254 17.9088 19.2078 19.011 19.045C19.041 18.972 19.068 18.896 19.099 18.825C18.021 18.945 16.873 19.102 15.653 19.32C14.6973 19.4886 13.7524 19.7129 12.823 19.992C11.86 20.298 10.853 20.642 9.929 21.366C9.701 21.55 9.481 21.775 9.311 22.069C9.2147 22.2331 9.1458 22.4118 9.107 22.598L9.08 22.798C9.072 22.965 9.088 23.006 9.094 23.116C9.225 23.881 9.749 24.356 10.222 24.72C11.21 25.444 12.312 25.872 13.434 26.26C15.688 27.014 18.079 27.465 20.517 27.765C22.955 28.083 25.451 28.185 27.939 28.21C30.429 28.183 32.924 28.084 35.361 27.762C37.799 27.461 40.19 27.005 42.443 26.255C43.565 25.866 44.667 25.439 45.654 24.716C46.125 24.341 46.644 23.902 46.781 23.09Z" fill="currentColor"/>
</g>
</g>
<mask id="mask2_654_660" style="mask-type:luminance" maskUnits="userSpaceOnUse" x="13" y="0" width="30" height="23">
<path d="M13 0H43V22.381H13V0Z" fill="white"/>
</mask>
<g mask="url(#mask2_654_660)">
<mask id="mask3_654_660" style="mask-type:luminance" maskUnits="userSpaceOnUse" x="16" y="1" width="25" height="22">
<path d="M16 1H41V22.786H16V1Z" fill="white"/>
</mask>
<g mask="url(#mask3_654_660)">
<path d="M24.355 15.562C22.019 15.609 20.378 15.761 19.237 15.933C17.9705 18.0011 16.8873 20.1761 16 22.433C16.498 22.654 17.064 22.786 17.666 22.786C19.395 22.786 20.654 23.799 21 22.434C21.346 23.799 22.972 22.597 24.7 22.597C26.436 22.597 27.662 23.807 28 22.434C28.34 23.807 30.009 22.634 31.744 22.634C33.47 22.634 34.652 23.796 35 22.434C35.348 23.796 37.05 22.784 38.775 22.784C39.5642 22.7852 40.337 22.8611 41 22.433C38.362 18.336 37.888 12.668 38.064 8.369C37.485 8.374 36.663 8.444 35.504 8.656C36.699 7.986 37.537 7.709 38.102 7.609C38.329 3.8 39.022 1 39.022 1C29.366 3.033 23.245 9.642 19.677 15.229C20.799 15.228 22.313 15.313 24.355 15.562Z" fill="currentColor"/>
</g>
</g>
</g>
<defs>
<clipPath id="clip0_654_660">
<rect width="56" height="30" fill="white"/>
</clipPath>
</defs>
</svg>
