<svg width="56" height="30" viewBox="0 0 56 30" fill="none" xmlns="http://www.w3.org/2000/svg">
<g clip-path="url(#clip0_132_74)">
<g clip-path="url(#clip1_132_74)">
<path d="M5.28816 27.1338C4.48972 26.8483 3.70427 26.5205 2.97417 26.1183C2.25273 25.716 1.55378 25.2446 1.09703 24.6079C0.871259 24.2922 0.721608 23.9288 0.712092 23.5586C0.701712 23.1788 0.828873 22.8372 1.02091 22.5327C1.40759 21.9263 1.98111 21.5102 2.50878 21.1676C3.59008 20.4972 4.59266 20.1201 5.28816 19.8597C5.98711 19.6028 6.39454 19.4808 6.39454 19.4808L6.36859 19.3978C6.36859 19.3978 6.26306 19.4177 6.0641 19.4548C5.866 19.4938 5.57275 19.5414 5.20857 19.6408C4.48626 19.845 3.41794 20.0855 2.23543 20.7325C1.65412 21.069 1.00534 21.4626 0.478531 22.191C0.345315 22.3735 0.238915 22.5742 0.143761 22.8225C0.103104 22.9487 0.0537954 23.1183 0.0382246 23.2195L0.0174635 23.3596L0.00708379 23.4323L0.00448845 23.4496L0.000163971 23.524L0.00102854 23.575C-0.0171373 24.1174 0.207773 24.6364 0.481991 25.0378C1.05205 25.8536 1.81588 26.3674 2.58317 26.8224C3.35825 27.2722 4.17225 27.6303 4.99318 27.9461C6.65924 28.5153 8.3504 28.9037 9.94034 29.2082C11.5303 29.5187 13.0389 29.6191 14.32 29.7367C15.602 29.8483 16.6807 29.8215 17.4307 29.8379C18.1807 29.8327 18.6115 29.8059 18.6115 29.8059L18.6202 29.7194C18.6202 29.7194 16.9204 29.5845 14.391 29.2281C11.8694 28.8596 8.48967 28.2869 5.28816 27.1338ZM55.9986 23.5136V23.4885L55.9813 23.2861C55.964 23.1512 55.964 23.0093 55.919 22.8856C55.5963 21.845 54.868 21.2533 54.2174 20.7957C53.547 20.3329 52.8576 20.005 52.1846 19.7213C51.5177 19.4185 50.8412 19.2395 50.208 19.0639C49.5713 18.9012 48.9692 18.7663 48.4122 18.6495C47.2954 18.4194 46.349 18.3554 45.6951 18.2879C45.0394 18.2334 44.6596 18.2222 44.6596 18.2222L44.6423 18.3069C44.6423 18.3069 45.0074 18.3831 45.6475 18.5163C46.2876 18.6443 47.1968 18.8545 48.2763 19.1469C49.3525 19.4479 50.6042 19.8329 51.8766 20.4073C52.5098 20.6927 53.156 21.0223 53.7434 21.4514C54.3282 21.87 54.887 22.4107 55.0833 23.107C55.2797 23.7999 54.9242 24.5447 54.4078 25.0283C53.8956 25.5387 53.2823 25.9305 52.6673 26.2532C52.0488 26.5724 51.4303 26.8449 50.8308 27.0672C50.2348 27.2973 49.6587 27.4859 49.1224 27.6468C48.0532 27.9746 47.144 28.1892 46.5091 28.3397C45.8724 28.4798 45.5073 28.5594 45.5073 28.5594L45.5247 28.6442C45.5247 28.6442 45.9035 28.6286 46.5618 28.5663C47.2123 28.4755 48.1622 28.4037 49.2703 28.1373C49.8265 28.0118 50.426 27.8622 51.0574 27.6658C51.6889 27.4798 52.3585 27.2515 53.0176 26.9176C53.6785 26.588 54.3559 26.1892 54.9821 25.5966C55.2944 25.2895 55.5799 24.9513 55.7961 24.4392C55.8489 24.2991 55.8956 24.1555 55.9345 24.0119C55.9562 23.902 55.9631 23.8207 55.9769 23.7264L55.9873 23.6555L55.9925 23.6217V23.6131C55.9934 23.6287 56.0037 23.441 55.9986 23.5136ZM46.7807 23.0897C46.836 22.7671 46.7331 22.3415 46.5592 22.069C46.3888 21.7766 46.1691 21.5517 45.9425 21.3675C45.0186 20.646 44.0134 20.3017 43.0498 19.9938C42.0818 19.6962 41.132 19.4886 40.2185 19.3216C39.7981 19.2455 39.3872 19.1798 38.9815 19.1175C38.9659 19.217 38.9512 19.3164 38.9374 19.4168C39.331 19.4998 39.7315 19.5889 40.1372 19.6936C41.029 19.9185 41.9486 20.1832 42.8655 20.5318C43.7712 20.8796 44.7254 21.306 45.4338 21.9462C45.7816 22.2757 46.0065 22.6304 45.9122 23.0006C45.8516 23.2792 45.5013 23.6633 45.0843 23.9185C44.2366 24.4626 43.1717 24.8155 42.0939 25.1062C39.9157 25.6667 37.5723 25.9677 35.1917 26.1892C32.8077 26.3804 30.3735 26.5067 27.9366 26.4833C25.5007 26.5032 23.0673 26.3804 20.6816 26.1857C18.3027 25.9643 15.961 25.6607 13.7811 25.101C12.7041 24.8103 11.6384 24.4591 10.7924 23.915C10.3737 23.6477 10.0294 23.3034 9.9611 22.9738C9.95764 22.9505 9.94726 22.8553 9.94121 22.8873L9.95678 22.6866C9.9836 22.6174 9.98359 22.5647 10.0398 22.4635C10.1246 22.2861 10.2682 22.1088 10.4412 21.9496C11.1488 21.3095 12.1029 20.8839 13.0086 20.5353C13.9247 20.1875 14.8451 19.922 15.7352 19.6971C16.8806 19.4029 17.9757 19.204 19.0112 19.0448C19.0414 18.9722 19.0682 18.896 19.0994 18.8251C18.0215 18.9453 16.8728 19.1019 15.6531 19.3199C14.7396 19.4869 13.7915 19.6953 12.8235 19.992C11.8599 20.2983 10.8538 20.6425 9.9291 21.3657C9.70073 21.55 9.48101 21.7749 9.31059 22.069C9.22495 22.1988 9.15056 22.4072 9.10731 22.5975L9.07963 22.7982C9.07184 22.9652 9.08828 23.0058 9.09433 23.1157C9.22495 23.8813 9.74917 24.3562 10.2215 24.7195C11.2102 25.4444 12.3123 25.8717 13.4342 26.2601C15.6877 27.0136 18.0786 27.4651 20.5172 27.7653C22.9549 28.0828 25.4505 28.1857 27.9392 28.2099C30.4297 28.1831 32.9236 28.0836 35.3613 27.7618C37.799 27.4608 40.1899 27.0049 42.4425 26.2549C43.5645 25.8665 44.6674 25.4392 45.6544 24.716C46.125 24.3415 46.644 23.902 46.7807 23.0897Z" fill="#ECECEC"/>
</g>
</g>
<g clip-path="url(#clip2_132_74)">
<g clip-path="url(#clip3_132_74)">
<path d="M24.3555 15.562C22.019 15.6093 20.3785 15.7609 19.2374 15.933C17.594 18.6231 16.5533 21.0085 16 22.4337C16.4979 22.6542 17.0641 22.7858 17.6655 22.7858C19.3949 22.7858 20.6542 23.7995 21 22.4337C21.3463 23.7995 22.9716 22.597 24.7005 22.597C26.4359 22.597 27.6615 23.8067 28 22.4337C28.3401 23.8067 30.009 22.6342 31.7444 22.6342C33.4702 22.6342 34.6516 23.7956 35 22.4337C35.3481 23.7956 37.0497 22.7842 38.7753 22.7842C39.6163 22.7842 40.3882 22.5279 41 22.1295C38.3616 18.0329 37.8877 12.6683 38.0637 8.3686C37.485 8.37354 36.6626 8.44374 35.5036 8.65563C36.699 7.9859 37.537 7.70901 38.1016 7.60918C38.3289 3.80008 39.0228 1 39.0228 1C29.3655 3.03285 23.2448 9.64229 19.6768 15.2287C20.7994 15.2276 22.3125 15.3134 24.3555 15.562Z" fill="#ECECEC"/>
</g>
</g>
<defs>
<clipPath id="clip0_132_74">
<rect width="56" height="24.8379" fill="white" transform="translate(0 5)"/>
</clipPath>
<clipPath id="clip1_132_74">
<rect width="56" height="24.8379" fill="white" transform="translate(0 5)"/>
</clipPath>
<clipPath id="clip2_132_74">
<rect width="30" height="22.3806" fill="white" transform="translate(13)"/>
</clipPath>
<clipPath id="clip3_132_74">
<rect width="25" height="21.7858" fill="white" transform="translate(16 1)"/>
</clipPath>
</defs>
</svg>
