<svg width="54" height="38" viewBox="0 0 54 38" fill="none" xmlns="http://www.w3.org/2000/svg">
<g clip-path="url(#clip0_127_44)">
<path d="M25.4336 30.9066C24.5836 30.6028 24.0824 30.4397 23.9332 30.4064L36.532 23.4315L33.1674 17.3634C32.9549 16.8815 32.8497 16.4672 32.8497 16.1334C32.8497 15.5861 33.0225 15.101 33.3713 14.6749C33.7179 14.2499 34.0914 14.0084 34.4842 13.9462L47.3599 11.5732C47.3878 11.5732 47.4812 11.5732 47.6336 11.5732C48.329 11.5732 48.9139 11.8179 49.384 12.3063C49.8541 12.7914 50.0891 13.3688 50.0891 14.0385C50.0891 15.4047 49.3915 16.2075 47.9952 16.4522L39.6712 18.003L46.8125 30.9538C46.2652 31.1352 45.7221 31.2264 45.1769 31.2264C44.5705 31.2264 43.8182 31.06 42.9231 30.7273C42.0302 30.3936 41.2789 30.224 40.6725 30.224C40.1263 30.224 39.3675 30.3936 38.3973 30.7273C37.4249 31.06 36.6694 31.2264 36.1231 31.2264C35.6058 31.2264 34.8631 31.06 33.894 30.7273C32.9216 30.3936 32.165 30.224 31.6187 30.224C31.0724 30.224 30.3244 30.3936 29.366 30.7273C28.4097 31.06 27.6617 31.2264 27.1154 31.2264C26.5401 31.2275 25.9799 31.1212 25.4336 30.9066Z" fill="#1B1E22"/>
<path d="M46.0387 20.6958C46.8426 19.8779 47.8117 19.4712 48.9504 19.4712C50.0913 19.4712 51.0711 19.8779 51.8889 20.6958C52.7078 21.5146 53.1178 22.4924 53.1178 23.6278C53.1178 24.7676 52.7078 25.7496 51.8889 26.5674C51.0701 27.3853 50.0913 27.792 48.9504 27.792C47.7538 27.792 46.7696 27.3928 45.9958 26.5889C45.2198 25.7872 44.8324 24.7987 44.8324 23.6278C44.8324 22.4913 45.2338 21.5136 46.0387 20.6958Z" fill="#1B1E22"/>
<path d="M6.14538 16.2161C6.19582 18.8327 5.53685 21.0253 5.02599 22.398C5.50788 22.3797 6.12928 22.2424 6.93099 21.9547C7.78958 21.6478 8.46036 21.4911 8.94975 21.4911C9.43915 21.4911 10.111 21.6478 10.9685 21.9547C11.8099 22.2531 12.471 22.4055 12.9604 22.4055H13.012C13.4992 22.4055 14.1668 22.2531 15.0243 21.9547C15.8925 21.6478 16.5719 21.4911 17.0624 21.4911C17.5239 21.4911 18.1871 21.6478 19.0575 21.9547C19.9118 22.2531 20.5826 22.4055 21.0709 22.4055H21.1224C21.6097 22.4055 22.2697 22.2531 23.1122 21.9547C23.9676 21.6478 24.6416 21.4911 25.1299 21.4911C25.6204 21.4911 26.2922 21.6478 27.1465 21.9547C27.637 22.1243 28.0502 22.2434 28.4215 22.3164C26.655 18.1415 17.1783 2.66219 5.25137 0.0520768C1.81379 -0.694897 5.96186 6.68684 6.14538 16.2161Z" fill="#1B1E22"/>
<path d="M22.0958 25.9815L21.6698 25.9708C20.706 25.9225 19.8077 25.5554 19.3226 25.3612C17.0613 24.553 16.7264 24.6539 14.9674 25.2603C13.1558 25.8978 12.4206 25.8935 10.5918 25.2603C8.74797 24.6346 8.22208 24.6754 6.48451 25.2603C4.65786 25.8935 3.92054 25.8978 2.11213 25.2603C1.18808 24.9437 0.59994 24.8417 0 24.8643V27.5516C0.0203915 27.5484 0.0407831 27.5409 0.0590281 27.5409C0.601014 27.5409 1.34048 27.6997 2.2538 28.0174C4.09333 28.6399 4.62351 28.6099 6.36216 28.0174C7.27871 27.7008 8.01924 27.542 8.56123 27.542C9.07423 27.542 9.79974 27.7008 10.7141 28.0185C12.4506 28.6077 12.9755 28.6474 14.8214 28.0185C16.6502 27.3789 17.3854 27.3789 19.1981 28.0185C20.0427 28.3115 20.7146 28.4628 21.1932 28.4789L25.0977 25.7132C24.3346 25.8184 23.1498 25.9815 22.0958 25.9815Z" fill="#1B1E22"/>
<path d="M51.8685 33.7271C49.9936 33.0757 49.3647 33.0757 47.4908 33.7271C45.5622 34.4011 44.7959 34.4011 42.8415 33.7271C40.8679 33.0531 40.3076 33.0971 38.4606 33.7271C36.4976 34.4011 35.7378 34.4011 33.8102 33.7271C31.9331 33.0757 31.3074 33.0757 29.4303 33.7271C27.5017 34.4011 26.7354 34.4011 24.78 33.7271C23.827 33.4009 23.0832 33.2345 22.567 33.2345C22.0819 33.2345 21.3532 33.4009 20.4001 33.7271C19.5093 34.0341 18.7999 34.1832 18.2451 34.2111V37.2473L18.2526 37.3697C18.5799 37.1808 19.3237 37.0144 20.2778 36.6882C22.2869 35.9959 23.0017 36.0335 24.9034 36.6882C26.7548 37.3214 27.3193 37.3654 29.2855 36.6882C31.2377 36.0142 31.9943 36.0142 33.9583 36.6882C35.9224 37.3622 36.4847 37.3214 38.3404 36.6882C40.2389 36.0292 40.9494 35.9927 42.965 36.6882C44.8088 37.3214 45.3722 37.3622 47.347 36.6882C49.3014 36.0142 50.0677 36.0142 51.9963 36.6882C52.8237 36.9769 53.4956 37.14 54 37.1733V34.0459C53.6083 34.2466 52.8312 34.0652 51.8685 33.7271Z" fill="#1B1E22"/>
</g>
<defs>
<clipPath id="clip0_127_44">
<rect width="54" height="37.3697" fill="white"/>
</clipPath>
</defs>
</svg>
