<svg width="24" height="24" viewBox="0 0 24 24" fill="none" xmlns="http://www.w3.org/2000/svg">
<path fill-rule="evenodd" clip-rule="evenodd" d="M18.5445 22.1302L10.4917 15.8085V6.50771L18.5445 0.186646V22.1302ZM4.15985 17.109L4.83028 24.1866H7.95857L7.46896 19.4127C7.46896 19.4127 8.58945 18.9802 8.61153 17.1078H4.15967L4.15985 17.109ZM21.4152 11.9381C21.0936 11.9381 20.832 11.5891 20.832 11.1574C20.832 10.7258 21.0927 10.3768 21.4152 10.3768H23.5073C23.8297 10.3768 24.0904 10.7258 24.0904 11.1574C24.0904 11.5879 23.8297 11.9381 23.5073 11.9381H21.4152ZM20.3403 17.3288C20.0492 17.1476 19.9222 16.6826 20.0582 16.2929C20.1943 15.902 20.5409 15.7332 20.832 15.9152L22.7735 17.1262C23.0656 17.3084 23.1916 17.7725 23.0557 18.1622C22.9203 18.5531 22.5736 18.7218 22.2818 18.5408L20.3403 17.3288ZM20.8322 6.40098C20.5411 6.58318 20.1944 6.41328 20.0583 6.02238C19.9222 5.63266 20.0491 5.16863 20.3404 4.98642L22.2819 3.77539C22.5739 3.59413 22.9206 3.76308 23.0558 4.15399C23.1919 4.5437 23.0657 5.00774 22.7737 5.18995L20.8322 6.40098ZM1.26867 8.33043H1.94603V14.2697C1.94603 14.4427 1.95752 14.6126 1.98032 14.7765H1.26867C0.621043 14.7765 0.0903931 14.0671 0.0903931 13.1992V9.90705C0.0903931 9.04009 0.620328 8.33043 1.26867 8.33043ZM9.52142 6.50771H4.076C3.43897 6.50771 2.91823 7.20482 2.91823 8.0576V14.2696C2.91823 15.1163 3.43526 15.8084 4.06768 15.8084H9.52124L9.52142 6.50771Z" fill="currentColor"/>
</svg>
