<svg width="24" height="24" viewBox="0 0 24 24" fill="none" xmlns="http://www.w3.org/2000/svg">
<path d="M6.91592 8.37012C6.73204 8.37146 6.56806 8.25552 6.50779 8.0818C6.44771 7.90826 6.50492 7.7156 6.65015 7.6031L9.95903 5.00605V5.00586C10.146 4.85912 10.4165 4.89183 10.5633 5.07876C10.7101 5.26569 10.6775 5.53622 10.4904 5.68297L7.18151 8.28002V8.28021C7.10554 8.33914 7.01198 8.37089 6.91592 8.37012Z" fill="currentColor"/>
<path d="M16.2248 8.37013C16.1287 8.37089 16.0351 8.33913 15.9592 8.28021L12.6503 5.68316V5.68297C12.5604 5.61256 12.5024 5.50925 12.4886 5.39598C12.475 5.28272 12.507 5.1685 12.5774 5.07876C12.7241 4.89183 12.9947 4.85912 13.1816 5.00586L16.4905 7.60291V7.6031C16.6358 7.7156 16.693 7.90827 16.6329 8.0818C16.5726 8.25552 16.4086 8.37147 16.2248 8.37013Z" fill="currentColor"/>
<path d="M18.501 7.98853C18.4189 7.98815 18.3386 7.96442 18.2695 7.91984C18.0711 7.79185 18.0135 7.52744 18.1409 7.32847L20.9997 2.9228C21.0581 2.82063 21.1557 2.74697 21.2699 2.71884C21.3841 2.69091 21.5049 2.711 21.6038 2.77452C21.7027 2.83823 21.7712 2.93963 21.793 3.0552C21.815 3.17076 21.7884 3.29015 21.7197 3.38562L18.8567 7.79128C18.7788 7.91278 18.6451 7.98681 18.501 7.98853Z" fill="currentColor"/>
<path d="M23.9999 22.5002V23.3574C23.9999 23.471 23.9547 23.5801 23.8744 23.6604C23.794 23.7408 23.6849 23.7859 23.5713 23.7859H12.8561C12.8165 23.7946 12.7756 23.7946 12.7362 23.7859C13.3548 23.3266 13.8702 22.7426 14.2491 22.0717H23.5712C23.6848 22.0717 23.7939 22.1168 23.8743 22.1972C23.9546 22.2775 23.9998 22.3866 23.9998 22.5002H23.9999Z" fill="currentColor"/>
<path d="M23.9999 20.3569V21.2141C23.9999 21.3277 23.9548 21.4368 23.8744 21.5171C23.794 21.5975 23.685 21.6426 23.5713 21.6426H14.476C14.7294 21.1012 14.893 20.5222 14.9603 19.9283H23.5711C23.6848 19.9283 23.7939 19.9735 23.8742 20.0539C23.9546 20.1342 23.9997 20.2433 23.9997 20.3569H23.9999Z" fill="currentColor"/>
<path d="M22.2855 18.2146V19.0717C22.2855 19.1854 22.2403 19.2944 22.16 19.3748C22.0796 19.4551 21.9705 19.5003 21.8569 19.5003H14.9992V19.286C14.9998 18.7786 14.929 18.2737 14.7891 17.786H21.8569C21.9706 17.786 22.0796 17.8312 22.16 17.9115C22.2404 17.9919 22.2855 18.1009 22.2855 18.2146Z" fill="currentColor"/>
<path d="M23.9999 16.0711V16.9283C23.9999 17.0419 23.9547 17.151 23.8744 17.2314C23.794 17.3117 23.685 17.3569 23.5713 17.3569H14.6563C14.4225 16.7295 14.0784 16.149 13.6405 15.6426H23.5714C23.685 15.6426 23.7941 15.6877 23.8745 15.7681C23.9548 15.8484 24 15.9575 24 16.0711H23.9999Z" fill="currentColor"/>
<path d="M7.28428 9.00005C7.28428 9.94673 6.51661 10.7143 5.56986 10.7143C4.62311 10.7143 3.85544 9.94673 3.85544 9.00005C3.85544 8.05337 4.62311 7.28577 5.56986 7.28577C6.51661 7.28577 7.28428 8.05337 7.28428 9.00005Z" fill="currentColor"/>
<path d="M13.2847 4.2857C13.2847 5.23237 12.5171 5.99998 11.5703 5.99998C10.6236 5.99998 9.8559 5.23237 9.8559 4.2857C9.8559 3.33902 10.6236 2.57141 11.5703 2.57141C12.5171 2.57141 13.2847 3.33902 13.2847 4.2857Z" fill="currentColor"/>
<path d="M19.2852 9.00005C19.2852 9.94673 18.5176 10.7143 17.5708 10.7143C16.6241 10.7143 15.8564 9.94673 15.8564 9.00005C15.8564 8.05337 16.6241 7.28577 17.5708 7.28577C18.5176 7.28577 19.2852 8.05337 19.2852 9.00005Z" fill="currentColor"/>
<path d="M23.9999 1.71429C23.9999 2.66096 23.2322 3.42857 22.2855 3.42857C21.3387 3.42857 20.5711 2.66096 20.5711 1.71429C20.5711 0.767608 21.3387 0 22.2855 0C23.2322 0 23.9999 0.767608 23.9999 1.71429Z" fill="currentColor"/>
<path d="M3.85543 19.2857C3.85791 18.9986 3.88222 18.7119 3.92833 18.4286H3.85543C3.61874 18.4286 3.42682 18.2367 3.42682 18C3.42682 17.7634 3.61874 17.5715 3.85543 17.5715H4.12981C4.17688 17.4172 4.23276 17.2672 4.29264 17.1429C3.96717 17.0769 3.69069 16.8635 3.54413 16.5655C3.39775 16.2674 3.39775 15.9184 3.54413 15.6203C3.6907 15.3222 3.96718 15.1089 4.29264 15.0429C4.29264 14.8062 4.48456 14.6143 4.72125 14.6143C4.95794 14.6143 5.14986 14.8062 5.14986 15.0429H5.57846C5.65844 15.044 5.73613 15.0695 5.80138 15.1158C6.54759 14.4618 7.45437 14.0181 8.4287 13.8301C7.45094 12.5798 5.90968 11.9053 4.32766 12.0356C2.74583 12.1659 1.33565 13.0833 0.575618 14.4767C-0.18441 15.8702 -0.192247 17.5523 0.554762 18.9526C1.30176 20.3532 2.70333 21.2836 4.28402 21.4286C4.00103 20.7496 3.85543 20.0214 3.85543 19.2857Z" fill="currentColor"/>
<path d="M4.49857 15.8572C4.38013 15.8572 4.28427 15.953 4.28427 16.0715C4.28427 16.1899 4.38013 16.2857 4.49857 16.2857H4.73851C4.83266 16.1379 4.93426 15.9947 5.04294 15.8572H4.49857Z" fill="currentColor"/>
<path d="M9.42731 14.5714C8.17691 14.5714 6.97774 15.0681 6.09354 15.9522C5.20934 16.8363 4.71265 18.0353 4.71265 19.2857C4.71265 20.536 5.20939 21.7351 6.09354 22.6192C6.97774 23.5033 8.17686 24 9.42731 24C10.6778 24 11.8769 23.5033 12.7611 22.6192C13.6453 21.7351 14.142 20.536 14.142 19.2857C14.142 18.0353 13.6452 16.8363 12.7611 15.9522C11.8769 15.0681 10.6778 14.5714 9.42731 14.5714ZM9.21301 18.8571H9.64161C10.0245 18.8189 10.3986 18.9876 10.6232 19.3C10.8476 19.6125 10.8886 20.0208 10.7303 20.3715C10.5721 20.7222 10.2388 20.9617 9.85589 21C9.85589 21.1136 9.81074 21.2227 9.73037 21.303C9.65001 21.3834 9.54094 21.4286 9.42729 21.4286C9.1906 21.4286 8.99868 21.2367 8.99868 21H8.57008C8.33339 21 8.14147 20.8081 8.14147 20.5714C8.14147 20.3347 8.33339 20.1428 8.57008 20.1428H9.64159C9.76003 20.1428 9.85589 20.047 9.85589 19.9286C9.85589 19.8101 9.76003 19.7143 9.64159 19.7143H9.21298C8.83011 19.7525 8.45604 19.5838 8.2314 19.2713C8.00696 18.9589 7.96601 18.5506 8.12425 18.1999C8.28249 17.8492 8.6158 17.6097 8.9987 17.5714C8.9987 17.3347 9.19062 17.1428 9.42731 17.1428C9.664 17.1428 9.85592 17.3347 9.85592 17.5714H10.2845C10.5212 17.5714 10.7131 17.7633 10.7131 18C10.7131 18.2367 10.5212 18.4286 10.2845 18.4286H9.21301C9.09457 18.4286 8.9987 18.5244 8.9987 18.6428C8.9987 18.7613 9.09457 18.8571 9.21301 18.8571Z" fill="currentColor"/>
</svg>
