<svg width="140" height="140" viewBox="0 0 140 140" fill="none" xmlns="http://www.w3.org/2000/svg">
<path fill-rule="evenodd" clip-rule="evenodd" d="M117.099 128.759C117.099 134.968 92.8547 140 62.9489 140C33.0427 140 8.79932 134.968 8.79932 128.759C8.79932 122.551 33.0427 117.518 62.9489 117.518C92.8547 117.518 117.099 122.551 117.099 128.759Z" fill="#DADADA"/>
<path fill-rule="evenodd" clip-rule="evenodd" d="M102.222 71H29V50.2728C29 41.2857 36.4955 34 45.7426 34H87.2568C96.504 34 104 41.2857 104 50.2728V69.272C104 70.2263 103.204 71 102.222 71" fill="#BEC0D5"/>
<path fill-rule="evenodd" clip-rule="evenodd" d="M102.207 67.7859H29.1054V50C29.1054 41.0101 36.4112 33.7227 45.4243 33.7227H85.8879C94.901 33.7227 102.207 41.0101 102.207 50V67.7859Z" fill="#BEC0D5"/>
<path fill-rule="evenodd" clip-rule="evenodd" d="M45.036 35.7666V35.7666C37.3595 35.7666 31.136 42.0983 31.136 49.9094V67.7666H58.936V49.9094C58.936 42.0983 52.713 35.7666 45.036 35.7666" fill="#ECECEC"/>
<path fill-rule="evenodd" clip-rule="evenodd" d="M85.432 33.7227H45.4782C45.435 33.7227 45.3929 33.7254 45.3503 33.726C53.7998 33.7955 60.5 40.4593 60.5 49H101.627C101.321 40.2944 94.1363 33.7227 85.432 33.7227Z" fill="#ECECEC"/>
<path fill-rule="evenodd" clip-rule="evenodd" d="M104 72H21.5069C20.6741 72 20 71.3283 20 70.4997C20 69.6711 20.6741 69 21.5069 69H104V72Z" fill="#BEC0D5"/>
<path fill-rule="evenodd" clip-rule="evenodd" d="M61 129H67V72H61V100.5V129Z" fill="#BEC0D5"/>
<path fill-rule="evenodd" clip-rule="evenodd" d="M63.9642 125.012C58.5438 125.012 54.1496 127.284 54.1496 130.087C54.1496 132.889 58.5438 133.187 63.9642 133.187C69.3846 133.187 73.7788 132.889 73.7788 130.087C73.7788 127.284 69.3846 125.012 63.9642 125.012" fill="#BEC0D5"/>
<path fill-rule="evenodd" clip-rule="evenodd" d="M81.1663 58.5635C80.8067 60.6005 78.8737 61.9585 76.8499 61.596C74.8266 61.234 73.4768 59.2891 73.837 57.2521C74.1966 55.2151 76.129 53.8571 78.1534 54.219C80.1773 54.5815 81.5259 56.5265 81.1663 58.5635" fill="#BEC0D5"/>
<path fill-rule="evenodd" clip-rule="evenodd" d="M80.4362 58.7257C79.9877 60.357 78.3094 61.3128 76.689 60.8613C75.0681 60.4093 74.1179 58.7208 74.567 57.0895C75.0156 55.4582 76.6939 54.5018 78.3148 54.9538C79.9351 55.4058 80.8853 57.0944 80.4362 58.7257" fill="#F07185"/>
<path fill-rule="evenodd" clip-rule="evenodd" d="M91.9084 38.8125L83.4225 36.4967C82.6953 36.2977 81.9347 36.7221 81.7328 37.4392L80.5678 41.5839L80.0212 43.5298L75.8094 58.512L77.3377 58.9294L81.549 43.9466L89.8296 46.2063C91.8937 46.7697 94.0491 45.5668 94.6209 43.5336C95.1927 41.4998 93.9719 39.3754 91.9084 38.8125Z" fill="url(#paint0_linear_225_81)"/>
<path d="M139 39.4505C139 39.4505 137.881 39.6833 137.134 39.1746C135.816 38.2766 136.307 37.0904 135.305 36.551C134.06 35.8798 133.414 37.2611 132.221 36.6183C130.82 35.8627 131.744 34.6315 130.42 33.9182C129.035 33.1718 128.018 34.3684 126.712 33.6642C126.032 33.2976 125.944 32.9397 125.655 32.2614C125.342 31.5302 125.402 30.8941 124.548 30.4367C123.423 29.8353 122.588 31.1099 121.203 30.3635C119.88 29.6502 120.804 28.4189 119.402 27.6634C118.209 27.0205 117.563 28.4018 116.318 27.7311C115.317 27.1913 115.843 25.9482 114.49 25.1071C113.384 24.4204 112.499 25.045 111.927 24.9546C110.928 24.797 110.571 23.5037 110.571 23.5037" stroke="#E0B20C"/>
<path d="M9 106.844C9 106.844 9.07941 105.676 9.77032 105.074C10.9897 104.011 11.996 104.812 12.7856 103.966C13.7673 102.914 12.6152 101.908 13.5555 100.9C14.6605 99.7168 15.5933 100.958 16.6363 99.8396C17.7283 98.6703 16.8548 97.3457 17.8849 96.2429C18.4206 95.6686 18.788 95.6776 19.518 95.5715C20.3053 95.4573 20.8998 95.6871 21.571 94.9648C22.4526 94.0136 21.4548 92.8484 22.5463 91.6787C23.5903 90.5609 24.5226 91.8019 25.6276 90.6182C26.568 89.6101 25.4163 88.6043 26.3975 87.5529C27.1871 86.7069 28.2387 87.5578 29.4128 86.4446C30.372 85.5353 30.0117 84.4934 30.2527 83.953C30.6748 83.0072 32.0136 83 32.0136 83" stroke="#599EBB"/>
<path fill-rule="evenodd" clip-rule="evenodd" d="M13.9438 41.0238C13.772 40.4754 13.0255 39.8089 11.4146 40.3543C10.2607 40.7444 8.40855 41.8441 7.51156 42.6377C7.97709 41.4849 8.43977 39.2487 8.43977 37.9777C8.43977 36.2159 7.54846 35.7666 6.99494 35.7666C6.44283 35.7666 5.60261 36.3016 5.60261 38.0634C5.60261 39.3285 6.0355 41.5026 6.48257 42.6363C5.57423 41.8189 3.67522 40.6691 2.51424 40.2759C0.903343 39.732 0.219245 40.4754 0.0475105 41.0238C-0.122804 41.5706 0.105701 42.5683 1.71518 43.1122C2.86906 43.5038 4.98806 43.7477 6.16323 43.6531C5.13567 44.3019 3.49922 45.8272 2.78106 46.8544C1.78756 48.2807 2.25451 49.1896 2.70158 49.5281C3.15008 49.8665 4.13081 49.9493 5.12573 48.5231C5.83821 47.5003 6.71676 45.4769 6.99494 44.2842C7.26886 45.5021 8.15592 47.5949 8.87266 48.6236C9.86758 50.0483 10.8412 49.8665 11.2897 49.5281C11.7368 49.1896 12.1143 48.2437 11.1208 46.8175C10.4069 45.7962 8.82866 44.3005 7.82664 43.6561C9.0231 43.7625 11.2088 43.529 12.3698 43.1373C13.9793 42.5934 14.1141 41.5706 13.9438 41.0238Z" fill="url(#paint1_linear_225_81)"/>
<path fill-rule="evenodd" clip-rule="evenodd" d="M54.6124 20.4891C54.6332 20.0165 54.2109 19.2773 52.7149 19.2188C51.6434 19.1764 49.7854 19.4753 48.8075 19.8206C49.5336 19.0693 50.576 17.4798 50.9484 16.4983C51.4686 15.137 50.861 14.523 50.4033 14.3594C49.9456 14.1938 49.0925 14.3574 48.5723 15.7187C48.1999 16.6962 47.9169 18.5058 47.9544 19.5136C47.4426 18.6108 46.2067 17.1587 45.3619 16.5084C44.1864 15.6076 43.3978 15.9792 43.0961 16.3529C42.7923 16.7245 42.6904 17.5626 43.8639 18.4634C44.7044 19.1077 46.3898 19.9277 47.3885 20.2044C46.3461 20.4003 44.5401 21.091 43.6454 21.6707C42.3991 22.4765 42.5198 23.3187 42.7903 23.7125C43.0607 24.1084 43.8514 24.4639 45.0956 23.658C45.9861 23.0804 47.3115 21.7777 47.8941 20.9395C47.7609 21.9615 47.8816 23.8438 48.1708 24.8516C48.5765 26.2493 49.4379 26.3987 49.9081 26.2695C50.3783 26.1422 50.9713 25.5242 50.5677 24.1246C50.2764 23.1228 49.4088 21.499 48.7679 20.7032C49.7292 21.1395 51.6101 21.6121 52.6858 21.6545C54.1817 21.7131 54.5937 20.9617 54.6124 20.4891Z" fill="#6ECBA9"/>
<path fill-rule="evenodd" clip-rule="evenodd" d="M101.58 80.8213C101.312 80.6497 100.748 80.6441 100.236 81.4857C99.8667 82.089 99.4431 83.2625 99.3303 83.9431C99.1276 83.2703 98.54 82.1309 98.0915 81.5828C97.4687 80.822 96.9192 80.9653 96.6762 81.1737C96.434 81.3814 96.2548 81.9288 96.8769 82.6896C97.324 83.2341 98.2818 84.0098 98.8791 84.3295C98.1919 84.3203 96.9524 84.5401 96.3046 84.8081C95.4063 85.1797 95.3689 85.7596 95.4873 86.0603C95.6063 86.3602 96.0582 86.7048 96.9572 86.3325C97.6008 86.0659 98.6175 85.3718 99.0985 84.8897C98.877 85.5561 98.6985 86.8317 98.7469 87.5449C98.8147 88.5354 99.3414 88.751 99.657 88.7283C99.9726 88.7056 100.432 88.3709 100.364 87.3812C100.316 86.6707 99.985 85.4668 99.6861 84.8485C100.237 85.2704 101.365 85.8383 102.043 86.0113C102.983 86.2517 103.346 85.805 103.423 85.4909C103.499 85.1761 103.33 84.6252 102.39 84.3848C101.716 84.2133 100.496 84.1629 99.8293 84.2629C100.391 83.8573 101.267 82.9335 101.638 82.3266C102.151 81.485 101.849 80.9929 101.58 80.8213" fill="#8896E1"/>
<path fill-rule="evenodd" clip-rule="evenodd" d="M100.954 4.26612C99.1923 3.59764 97.7644 2.48995 96.8948 1.11719L96.1871 0L95.6272 0.947618C94.754 2.42475 93.2432 3.61387 91.3601 4.30438L90.0952 4.76901L91.4008 5.28261C92.9707 5.90027 94.2696 6.87054 95.1314 8.06945L96.1871 9.53771L96.998 8.33696C97.8058 7.14142 99.0441 6.15738 100.559 5.50696L102.279 4.76901L100.954 4.26612Z" fill="#FF8960"/>
<path d="M93.5153 9.99801C85.1466 16.1183 88.2729 23.2264 92.1012 26.1284" stroke="url(#paint2_linear_225_81)"/>
<defs>
<linearGradient id="paint0_linear_225_81" x1="85.2856" y1="25.2068" x2="63.1278" y2="43.8861" gradientUnits="userSpaceOnUse">
<stop stop-color="#FF8960"/>
<stop offset="1" stop-color="#F07185"/>
</linearGradient>
<linearGradient id="paint1_linear_225_81" x1="7" y1="28.7666" x2="-7" y2="42.7666" gradientUnits="userSpaceOnUse">
<stop stop-color="#FF8960"/>
<stop offset="1" stop-color="#FF62A5"/>
</linearGradient>
<linearGradient id="paint2_linear_225_81" x1="93.527" y1="10.0014" x2="89.1209" y2="25.2683" gradientUnits="userSpaceOnUse">
<stop stop-color="#FF8960"/>
<stop offset="0.765625" stop-color="#F07185"/>
</linearGradient>
</defs>
</svg>
