<svg width="172" height="160" viewBox="0 0 172 160" fill="none" xmlns="http://www.w3.org/2000/svg">
<path d="M83.0307 22.0277L62.75 22.0277V18.8537C62.7524 16.1754 63.8201 13.6071 65.7194 11.7126C67.6184 9.8184 70.1937 8.75272 72.8801 8.75001L72.8817 8.75001L72.882 8.75001C74.2135 8.74812 75.5324 9.00794 76.7631 9.51457C77.9948 10.0216 79.1141 10.7659 80.0569 11.7047C80.9998 12.6435 81.7476 13.7584 82.2579 14.9856C82.7681 16.2128 83.0307 17.5283 83.0307 18.8567V22.0277Z" stroke="black" stroke-width="1.5" stroke-miterlimit="10"/>
<path d="M119.231 88.2549C119.227 93.5232 120.719 98.6847 123.533 103.142C126.348 107.6 130.37 111.171 135.134 113.443L135.134 113.443C136.068 113.888 136.855 114.587 137.407 115.459C137.958 116.332 138.25 117.342 138.25 118.372V118.373V118.494V118.495C138.251 118.821 138.187 119.144 138.062 119.446C137.937 119.747 137.754 120.021 137.523 120.252C137.292 120.484 137.017 120.667 136.714 120.792C136.412 120.917 136.087 120.982 135.76 120.982H12.2405C11.9128 120.982 11.5883 120.917 11.2857 120.792C10.9831 120.667 10.7084 120.484 10.4771 120.252C10.2459 120.021 10.0627 119.747 9.938 119.446C9.81328 119.144 9.74941 118.821 9.75002 118.495V118.494L9.75003 118.373L9.75002 118.371C9.74713 117.337 10.0388 116.323 10.5912 115.447C11.1437 114.572 11.9343 113.871 12.8712 113.425L12.8722 113.425C17.6335 111.154 21.6537 107.586 24.4679 103.132C27.2822 98.6781 28.7754 93.5205 28.7749 88.2555V65.9561C28.7749 53.9924 33.5395 42.5183 42.0212 34.0581C50.503 25.5979 62.0072 20.8446 74.003 20.8446C85.9989 20.8446 97.5031 25.5979 105.985 34.0581C114.467 42.5183 119.231 53.9924 119.231 65.9561V88.2549ZM119.231 88.2549L119.981 88.2555H119.231V88.2549Z" fill="currentColor" stroke="black" stroke-width="1.5"/>
<path d="M52 71C52 74.5899 55.134 77.5 59 77.5C62.866 77.5 66 74.5899 66 71" stroke="#0066FF" stroke-width="2.5" stroke-linecap="round"/>
<path d="M81 71C81 74.5899 84.134 77.5 88 77.5C91.866 77.5 95 74.5899 95 71" stroke="#0066FF" stroke-width="2.5" stroke-linecap="round"/>
<path d="M66 89.5H80.5" stroke="#0066FF" stroke-width="2.5" stroke-linecap="round"/>
<path d="M124.25 34.7321C124.25 42.4416 117.883 48.7143 110 48.7143C102.117 48.7143 95.75 42.4416 95.75 34.7321C95.75 27.0227 102.117 20.75 110 20.75C117.883 20.75 124.25 27.0227 124.25 34.7321Z" fill="currentColor" stroke="black" stroke-width="1.5"/>
<path d="M110.006 41.1932C109.109 41.1894 108.342 40.9527 107.705 40.483C107.069 40.0133 106.582 39.3295 106.245 38.4318C105.908 37.5341 105.739 36.4527 105.739 35.1875C105.739 33.9261 105.908 32.8485 106.245 31.9545C106.586 31.0606 107.075 30.3788 107.711 29.9091C108.351 29.4394 109.116 29.2045 110.006 29.2045C110.897 29.2045 111.66 29.4413 112.296 29.9148C112.933 30.3845 113.419 31.0663 113.756 31.9602C114.097 32.8504 114.268 33.9261 114.268 35.1875C114.268 36.4564 114.099 37.5398 113.762 38.4375C113.425 39.3314 112.938 40.0152 112.302 40.4886C111.665 40.9583 110.9 41.1932 110.006 41.1932ZM110.006 39.6761C110.794 39.6761 111.41 39.2917 111.853 38.5227C112.3 37.7538 112.523 36.642 112.523 35.1875C112.523 34.2216 112.421 33.4053 112.217 32.7386C112.016 32.0682 111.726 31.5606 111.347 31.2159C110.972 30.8674 110.525 30.6932 110.006 30.6932C109.222 30.6932 108.607 31.0795 108.16 31.8523C107.713 32.625 107.487 33.7367 107.484 35.1875C107.484 36.1572 107.584 36.9773 107.785 37.6477C107.989 38.3144 108.279 38.8201 108.654 39.1648C109.029 39.5057 109.48 39.6761 110.006 39.6761Z" fill="black"/>
<mask id="path-8-inside-1_241_69" fill="white">
<path fill-rule="evenodd" clip-rule="evenodd" d="M44 120.3C44 136.999 57.6232 150.537 74.4284 150.537C91.2335 150.537 104.857 136.999 104.857 120.3H44Z"/>
</mask>
<path fill-rule="evenodd" clip-rule="evenodd" d="M44 120.3C44 136.999 57.6232 150.537 74.4284 150.537C91.2335 150.537 104.857 136.999 104.857 120.3H44Z" fill="currentColor"/>
<path d="M44 120.3V118.8H42.5V120.3H44ZM104.857 120.3H106.357V118.8H104.857V120.3ZM74.4284 149.037C58.4427 149.037 45.5 136.162 45.5 120.3H42.5C42.5 137.837 56.8038 152.037 74.4284 152.037V149.037ZM103.357 120.3C103.357 136.162 90.414 149.037 74.4284 149.037V152.037C92.053 152.037 106.357 137.837 106.357 120.3H103.357ZM104.857 118.8H44V121.8H104.857V118.8Z" fill="black" mask="url(#path-8-inside-1_241_69)"/>
<path d="M149.766 54H162.761V56.2735L152.805 68.5026H163V71.0872H149V68.6462L158.956 56.5846H149.766V54Z" fill="#0066FF"/>
<path d="M135.547 63H144.829V64.6239L137.718 73.359H145V75.2051H135V73.4615L142.111 64.8462H135.547V63Z" fill="#1066FF"/>
<path d="M125.328 71H130.897V71.9744L126.631 77.2154H131V78.3231H125V77.2769L129.267 72.1077H125.328V71Z" fill="#2066FF"/>
</svg>
