<svg width="172" height="160" viewBox="0 0 172 160" fill="none" xmlns="http://www.w3.org/2000/svg">
<path d="M83.0307 23.0277L62.75 23.0277V19.8537C62.7524 17.1754 63.8201 14.6071 65.7194 12.7126C67.6184 10.8184 70.1937 9.75272 72.8801 9.75001L72.8817 9.75001L72.882 9.75001C74.2135 9.74812 75.5324 10.0079 76.7631 10.5146C77.9948 11.0216 79.1141 11.7659 80.0569 12.7047C80.9998 13.6435 81.7476 14.7584 82.2579 15.9856C82.7681 17.2128 83.0307 18.5283 83.0307 19.8567V23.0277Z" stroke="#f5f5f5" stroke-width="1.5" stroke-miterlimit="10"/>
<path d="M119.231 89.2549C119.227 94.5232 120.719 99.6847 123.533 104.142C126.348 108.6 130.37 112.171 135.134 114.443L135.134 114.443C136.068 114.888 136.855 115.587 137.407 116.459C137.958 117.332 138.25 118.342 138.25 119.372V119.373V119.494V119.495C138.251 119.821 138.187 120.144 138.062 120.446C137.937 120.747 137.754 121.021 137.523 121.252C137.292 121.484 137.017 121.667 136.714 121.792C136.412 121.917 136.087 121.982 135.76 121.982H12.2405C11.9128 121.982 11.5883 121.917 11.2857 121.792C10.9831 121.667 10.7084 121.484 10.4771 121.252C10.2459 121.021 10.0627 120.747 9.938 120.446C9.81328 120.144 9.74941 119.821 9.75002 119.495V119.494L9.75003 119.373L9.75002 119.371C9.74713 118.337 10.0388 117.323 10.5912 116.447C11.1437 115.572 11.9343 114.871 12.8712 114.425L12.8722 114.425C17.6335 112.154 21.6537 108.586 24.4679 104.132C27.2822 99.6781 28.7754 94.5205 28.7749 89.2555V66.9561C28.7749 54.9924 33.5395 43.5183 42.0212 35.0581C50.503 26.5979 62.0072 21.8446 74.003 21.8446C85.9989 21.8446 97.5031 26.5979 105.985 35.0581C114.467 43.5183 119.231 54.9924 119.231 66.9561V89.2549ZM119.231 89.2549L119.981 89.2555H119.231V89.2549Z" fill="currentColor" stroke="#f5f5f5" stroke-width="1.5"/>
<path d="M52 72C52 75.5899 55.134 78.5 59 78.5C62.866 78.5 66 75.5899 66 72" stroke="#4088FF" stroke-width="2.5" stroke-linecap="round"/>
<path d="M81 72C81 75.5899 84.134 78.5 88 78.5C91.866 78.5 95 75.5899 95 72" stroke="#4088FF" stroke-width="2.5" stroke-linecap="round"/>
<path d="M66 90.5H80.5" stroke="#4088FF" stroke-width="2.5" stroke-linecap="round"/>
<path d="M124.25 35.7321C124.25 43.4416 117.883 49.7143 110 49.7143C102.117 49.7143 95.75 43.4416 95.75 35.7321C95.75 28.0227 102.117 21.75 110 21.75C117.883 21.75 124.25 28.0227 124.25 35.7321Z" fill="currentColor" stroke="#f5f5f5" stroke-width="1.5"/>
<path d="M110.006 42.1932C109.109 42.1894 108.342 41.9527 107.705 41.483C107.069 41.0133 106.582 40.3295 106.245 39.4318C105.908 38.5341 105.739 37.4527 105.739 36.1875C105.739 34.9261 105.908 33.8485 106.245 32.9545C106.586 32.0606 107.075 31.3788 107.711 30.9091C108.351 30.4394 109.116 30.2045 110.006 30.2045C110.897 30.2045 111.66 30.4413 112.296 30.9148C112.933 31.3845 113.419 32.0663 113.756 32.9602C114.097 33.8504 114.268 34.9261 114.268 36.1875C114.268 37.4564 114.099 38.5398 113.762 39.4375C113.425 40.3314 112.938 41.0152 112.302 41.4886C111.665 41.9583 110.9 42.1932 110.006 42.1932ZM110.006 40.6761C110.794 40.6761 111.41 40.2917 111.853 39.5227C112.3 38.7538 112.523 37.642 112.523 36.1875C112.523 35.2216 112.421 34.4053 112.217 33.7386C112.016 33.0682 111.726 32.5606 111.347 32.2159C110.972 31.8674 110.525 31.6932 110.006 31.6932C109.222 31.6932 108.607 32.0795 108.16 32.8523C107.713 33.625 107.487 34.7367 107.484 36.1875C107.484 37.1572 107.584 37.9773 107.785 38.6477C107.989 39.3144 108.279 39.8201 108.654 40.1648C109.029 40.5057 109.48 40.6761 110.006 40.6761Z" fill="#f5f5f5"/>
<mask id="path-8-inside-1_247_59" fill="white">
<path fill-rule="evenodd" clip-rule="evenodd" d="M44 121.3C44 137.999 57.6233 151.537 74.4284 151.537C91.2335 151.537 104.857 137.999 104.857 121.3H44Z"/>
</mask>
<path fill-rule="evenodd" clip-rule="evenodd" d="M44 121.3C44 137.999 57.6233 151.537 74.4284 151.537C91.2335 151.537 104.857 137.999 104.857 121.3H44Z" fill="currentColor"/>
<path d="M44 121.3V119.8H42.5V121.3H44ZM104.857 121.3H106.357V119.8H104.857V121.3ZM74.4284 150.037C58.4427 150.037 45.5 137.162 45.5 121.3H42.5C42.5 138.837 56.8038 153.037 74.4284 153.037V150.037ZM103.357 121.3C103.357 137.162 90.414 150.037 74.4284 150.037V153.037C92.053 153.037 106.357 138.837 106.357 121.3H103.357ZM104.857 119.8H44V122.8H104.857V119.8Z" fill="#f5f5f5" mask="url(#path-8-inside-1_247_59)"/>
<path d="M149.766 55H162.761V57.2735L152.805 69.5026H163V72.0872H149V69.6462L158.956 57.5846H149.766V55Z" fill="#4088FF"/>
<path d="M135.547 64H144.829V65.6239L137.718 74.359H145V76.2051H135V74.4615L142.111 65.8462H135.547V64Z" fill="#5088FF"/>
<path d="M125.328 72H130.897V72.9744L126.631 78.2154H131V79.3231H125V78.2769L129.267 73.1077H125.328V72Z" fill="#6088FF"/>
</svg>
