<svg width="24" height="24" viewBox="0 0 24 24" fill="none" xmlns="http://www.w3.org/2000/svg">
<path d="M2.1398 16.5C1.61526 15.5455 1.23136 14.5203 1 13.456C2.81268 15.0965 5.1865 15.9776 7.63055 15.9171C10.0746 15.8566 12.4019 14.8592 14.1312 13.131C15.8605 11.4029 16.8596 9.07621 16.9217 6.6322C16.9838 4.1882 16.1043 1.81379 14.465 0C16.1831 0.376988 17.7895 1.14957 19.1566 2.25634C20.5236 3.3631 21.6136 4.77352 22.34 6.37548C23.0663 7.97743 23.4089 9.72673 23.3405 11.4843C23.2722 13.2419 22.7947 14.9593 21.9461 16.5H2.1398Z" fill="#1B1E22"/>
<path d="M13.6825 18H1.375C1.27554 18 1.18016 18.0395 1.10984 18.1098C1.03951 18.1802 1 18.2755 1 18.375C1 18.4745 1.03951 18.5698 1.10984 18.6402C1.18016 18.7105 1.27554 18.75 1.375 18.75H13.6825C13.782 18.75 13.8773 18.7105 13.9477 18.6402C14.018 18.5698 14.0575 18.4745 14.0575 18.375C14.0575 18.2755 14.018 18.1802 13.9477 18.1098C13.8773 18.0395 13.782 18 13.6825 18Z" fill="#1B1E22"/>
<path d="M23.625 20.375C23.625 20.2755 23.5855 20.1802 23.5152 20.1098C23.4448 20.0395 23.3495 20 23.25 20H12.375C12.2755 20 12.1802 20.0395 12.1098 20.1098C12.0395 20.1802 12 20.2755 12 20.375C12 20.4745 12.0395 20.5698 12.1098 20.6402C12.1802 20.7105 12.2755 20.75 12.375 20.75H23.25C23.3495 20.75 23.4448 20.7105 23.5152 20.6402C23.5855 20.5698 23.625 20.4745 23.625 20.375Z" fill="#1B1E22"/>
<path d="M8.375 22C8.27554 22 8.18016 22.0395 8.10984 22.1098C8.03951 22.1802 8 22.2755 8 22.375C8 22.4745 8.03951 22.5698 8.10984 22.6402C8.18016 22.7105 8.27554 22.75 8.375 22.75H15.0312C15.1307 22.75 15.2261 22.7105 15.2964 22.6402C15.3667 22.5698 15.4062 22.4745 15.4062 22.375C15.4062 22.2755 15.3667 22.1802 15.2964 22.1098C15.2261 22.0395 15.1307 22 15.0312 22H8.375Z" fill="#1B1E22"/>
<path d="M8.48394 12.0043C8.06958 11.4284 7.5689 10.9216 7 10.5022C7.56856 10.0823 8.06918 9.57554 8.48394 9C8.90898 9.57754 9.4205 10.0844 10 10.5022C9.42029 10.9197 8.90874 11.4266 8.48394 12.0043Z" fill="#1B1E22"/>
<path d="M11.5 8C11.0812 7.42618 10.5751 6.92118 10 6.50324C10.5752 6.08294 11.0813 5.57577 11.5 5C11.9198 5.57299 12.4258 6.07786 13 6.49676C12.4251 6.91738 11.919 7.4245 11.5 8Z" fill="#1B1E22"/>
<path d="M6.5 7C6.08168 6.42388 5.57555 5.91666 5 5.49676C5.57471 5.07842 6.08075 4.57347 6.5 4C6.9198 4.57299 7.42577 5.07786 8 5.49676C7.42507 5.91738 6.91905 6.4245 6.5 7Z" fill="#1B1E22"/>
</svg>
