<svg width="24" height="24" viewBox="0 0 24 24" fill="none" xmlns="http://www.w3.org/2000/svg">
<path d="M13 3.9997V4C12.6771 3.95663 12.3427 3.93389 12 3.93389C11.6573 3.93389 11.323 3.95661 11 4V2.14419C11 1.96625 11.1118 1.80542 11.2932 1.68887C11.4741 1.57202 11.7238 1.5 12 1.5C12.5524 1.5 13 1.7886 13 2.14419V3.9997Z" fill="#FF5C00"/>
<path d="M21.2695 18.3861C21.4521 18.5624 21.5651 18.8052 21.5651 19.0743C21.5651 19.6113 21.1136 20.0471 20.5572 20.0471H14.6243H9.37591H3.443C3.16423 20.0471 2.9127 19.9381 2.73017 19.7618C2.5476 19.5861 2.4346 19.3428 2.4346 19.0742C2.4346 18.588 2.80379 18.1852 3.28597 18.1125C3.33695 18.1046 3.38969 18.1007 3.443 18.1007H20.5573C20.61 18.1007 20.6621 18.1046 20.7132 18.1125C20.9287 18.145 21.1223 18.2435 21.2695 18.3861Z" fill="#FF5C00"/>
<path d="M9.37592 20.0471H14.6244C14.6244 21.4463 13.449 22.5804 12.0001 22.5804C10.5507 22.5804 9.37592 21.4464 9.37592 20.0471Z" fill="#FFA010"/>
<path d="M20.7155 18.0303H3.28423H3.28365C3.28365 17.3942 3.39494 16.7682 3.60937 16.1762C3.82322 15.5843 4.13909 15.0265 4.54882 14.5286C5.36834 13.5327 5.814 12.2985 5.814 11.0269V10.0053C5.814 8.35598 6.50658 6.86329 7.6257 5.78296C8.46143 4.97676 9.53417 4.39996 10.7344 4.1594C11.143 4.07718 11.5661 4.03406 11.9996 4.03406C12.4331 4.03406 12.8562 4.07714 13.2648 4.1594C16.0744 4.72279 18.1852 7.1257 18.1852 10.0053V11.0269C18.1852 11.6624 18.2965 12.289 18.5109 12.881C18.7248 13.4729 19.0407 14.0307 19.4504 14.5286C20.2698 15.5244 20.7155 16.7581 20.7155 18.0303Z" fill="#FFA010"/>
<path opacity="0.25" d="M19.4503 14.5286C19.0406 14.0307 18.7247 13.4729 18.5108 12.881C18.2964 12.289 18.1851 11.6624 18.1851 11.0269V10.0053C18.1851 7.1257 16.0744 4.72279 13.2647 4.1594C12.8561 4.07718 12.433 4.03406 11.9995 4.03406C11.566 4.03406 11.1429 4.07714 10.7343 4.1594C10.628 4.18073 10.5231 4.20557 10.4189 4.23206C13.0693 4.90626 15.0237 7.23468 15.0237 10.0053V11.0269C15.0237 11.6624 15.1349 12.289 15.3494 12.881C15.5632 13.4729 15.8791 14.0307 16.2888 14.5286C17.1083 15.5245 17.554 16.7581 17.554 18.0303H20.7155C20.7155 16.7581 20.2698 15.5244 19.4503 14.5286Z" fill="#4D4D4D"/>
<path d="M21.1452 17.8025C21.0945 16.5206 20.6184 15.2731 19.7908 14.2674C19.414 13.8095 19.1215 13.2965 18.9212 12.7422C18.7212 12.1903 18.6199 11.6131 18.6199 11.0267V10.0051C18.6199 7.04834 16.5289 4.5545 13.6997 3.82822V2.64105C13.6997 1.73612 12.9371 1 11.9997 1C11.0623 1 10.2997 1.73612 10.2997 2.64105V3.82634C9.18245 4.11102 8.15773 4.67623 7.3185 5.48605C6.06804 6.69308 5.37944 8.29798 5.37944 10.005V11.0266C5.37944 12.1989 4.96359 13.3499 4.20856 14.2673C3.77105 14.799 3.43144 15.3947 3.19914 16.0375C2.99286 16.607 2.87744 17.1998 2.85409 17.8026C2.35127 18.0206 2 18.5081 2 19.0738C2 19.8418 2.64723 20.4666 3.44285 20.4666H8.97253C9.18425 21.8968 10.4609 23 12 23C13.5392 23 14.8158 21.8968 15.0275 20.4666H20.5571C21.3528 20.4666 22 19.8418 22 19.0738C21.9999 18.508 21.6483 18.0202 21.1452 17.8025ZM11.1691 2.64105C11.1691 2.19892 11.5417 1.8392 11.9997 1.8392C12.4577 1.8392 12.8304 2.19887 12.8304 2.64105V3.66448C12.5582 3.63148 12.281 3.61428 11.9997 3.61428C11.7198 3.61428 11.4425 3.63106 11.1691 3.66392V2.64105ZM4.8892 14.7894C5.76591 13.724 6.24872 12.3877 6.24872 11.0267V10.0051C6.24872 8.52214 6.84696 7.12803 7.9331 6.07953C9.01988 5.03094 10.4641 4.45348 11.9997 4.45348C15.1708 4.45348 17.7506 6.94391 17.7506 10.0051V11.0267C17.7506 11.7077 17.8684 12.3781 18.1006 13.019C18.333 13.6619 18.6726 14.2576 19.1101 14.7894C19.7899 15.6155 20.1935 16.6309 20.2675 17.681H3.73167C3.76396 17.2147 3.85972 16.7564 4.01986 16.3142C4.21997 15.7602 4.51249 15.2472 4.8892 14.7894ZM11.9999 22.1608C10.9414 22.1608 10.056 21.4318 9.85386 20.4667H14.146C13.9439 21.4319 13.0585 22.1608 11.9999 22.1608ZM20.557 19.6275H3.44275C3.12654 19.6275 2.86924 19.3791 2.86924 19.0738C2.86924 18.7685 3.1265 18.5202 3.44275 18.5202H20.557C20.8733 18.5202 21.1305 18.7685 21.1305 19.0738C21.1306 19.3791 20.8733 19.6275 20.557 19.6275Z" fill="black"/>
</svg>
