<svg width="24" height="24" viewBox="0 0 24 24" fill="none" xmlns="http://www.w3.org/2000/svg">
<path d="M15.2587 17.9587H2.95125C2.85179 17.9587 2.75641 17.9982 2.68608 18.0686C2.61576 18.1389 2.57625 18.2343 2.57625 18.3337C2.57625 18.4332 2.61576 18.5286 2.68608 18.5989C2.75641 18.6692 2.85179 18.7087 2.95125 18.7087H15.2587C15.3582 18.7087 15.4536 18.6692 15.5239 18.5989C15.5942 18.5286 15.6337 18.4332 15.6337 18.3337C15.6337 18.2343 15.5942 18.1389 15.5239 18.0686C15.4536 17.9982 15.3582 17.9587 15.2587 17.9587Z" fill="#FFB913"/>
<path d="M22.625 19.9313C22.625 19.8318 22.5855 19.7364 22.5152 19.6661C22.4448 19.5958 22.3495 19.5563 22.25 19.5563H11.375C11.2755 19.5563 11.1802 19.5958 11.1098 19.6661C11.0395 19.7364 11 19.8318 11 19.9313C11 20.0307 11.0395 20.1261 11.1098 20.1964C11.1802 20.2668 11.2755 20.3063 11.375 20.3063H22.25C22.3495 20.3063 22.4448 20.2668 22.5152 20.1964C22.5855 20.1261 22.625 20.0307 22.625 19.9313Z" fill="#FFB913"/>
<path d="M8.80499 21.645C8.70554 21.645 8.61015 21.6845 8.53983 21.7549C8.4695 21.8252 8.42999 21.9206 8.42999 22.02C8.42999 22.1195 8.4695 22.2149 8.53983 22.2852C8.61015 22.3555 8.70554 22.395 8.80499 22.395H15.4612C15.5607 22.395 15.6561 22.3555 15.7264 22.2852C15.7967 22.2149 15.8362 22.1195 15.8362 22.02C15.8362 21.9206 15.7967 21.8252 15.7264 21.7549C15.6561 21.6845 15.5607 21.645 15.4612 21.645H8.80499Z" fill="#FFB913"/>
<path d="M20.875 15.375H16.8052C17.7363 14.3481 18.2514 13.0112 18.25 11.625C18.25 10.1332 17.6574 8.70242 16.6025 7.64752C15.5476 6.59263 14.1168 6 12.625 6C11.1332 6 9.70242 6.59263 8.64752 7.64752C7.59263 8.70242 7 10.1332 7 11.625C6.99856 13.0112 7.51368 14.3481 8.44484 15.375H4.375C4.27554 15.375 4.18016 15.4145 4.10984 15.4848C4.03951 15.5552 4 15.6505 4 15.75C4 15.8495 4.03951 15.9448 4.10984 16.0152C4.18016 16.0855 4.27554 16.125 4.375 16.125H20.875C20.9745 16.125 21.0698 16.0855 21.1402 16.0152C21.2105 15.9448 21.25 15.8495 21.25 15.75C21.25 15.6505 21.2105 15.5552 21.1402 15.4848C21.0698 15.4145 20.9745 15.375 20.875 15.375Z" fill="#FFB913"/>
<path d="M12.375 4.125C12.2755 4.125 12.1802 4.08549 12.1098 4.01516C12.0395 3.94484 12 3.84946 12 3.75V0.375C12 0.275544 12.0395 0.180161 12.1098 0.109835C12.1802 0.0395089 12.2755 0 12.375 0C12.4745 0 12.5698 0.0395089 12.6402 0.109835C12.7105 0.180161 12.75 0.275544 12.75 0.375V3.75C12.75 3.84946 12.7105 3.94484 12.6402 4.01516C12.5698 4.08549 12.4745 4.125 12.375 4.125Z" fill="#FFB913"/>
<path d="M6.94652 6.32158C6.89727 6.32165 6.8485 6.31197 6.803 6.29312C6.7575 6.27427 6.71617 6.24662 6.6814 6.21175L5.09057 4.62092C5.05503 4.58626 5.02671 4.54489 5.00728 4.49921C4.98785 4.45353 4.97768 4.40444 4.97736 4.35479C4.97705 4.30515 4.9866 4.25594 5.00545 4.21001C5.0243 4.16408 5.05209 4.12236 5.08719 4.08725C5.1223 4.05215 5.16402 4.02436 5.20995 4.00551C5.25587 3.98666 5.30509 3.97711 5.35473 3.97742C5.40438 3.97774 5.45346 3.98791 5.49915 4.00734C5.54483 4.02678 5.5862 4.05509 5.62086 4.09063L7.21169 5.68131C7.26412 5.73376 7.29982 5.80057 7.31428 5.87331C7.32874 5.94604 7.32131 6.02143 7.29293 6.08995C7.26455 6.15846 7.21649 6.21702 7.15483 6.25823C7.09317 6.29943 7.02068 6.32158 6.94652 6.32158Z" fill="#FFB913"/>
<path d="M4.75 11.625H1.375C1.27554 11.625 1.18016 11.5855 1.10983 11.5152C1.03951 11.4448 1 11.3495 1 11.25C1 11.1505 1.03951 11.0552 1.10983 10.9848C1.18016 10.9145 1.27554 10.875 1.375 10.875H4.75C4.84946 10.875 4.94484 10.9145 5.01516 10.9848C5.08549 11.0552 5.125 11.1505 5.125 11.25C5.125 11.3495 5.08549 11.4448 5.01516 11.5152C4.94484 11.5855 4.84946 11.625 4.75 11.625Z" fill="#FFB913"/>
<path d="M23.125 11.625H19.75C19.6505 11.625 19.5552 11.5855 19.4848 11.5152C19.4145 11.4448 19.375 11.3495 19.375 11.25C19.375 11.1505 19.4145 11.0552 19.4848 10.9848C19.5552 10.9145 19.6505 10.875 19.75 10.875H23.125C23.2245 10.875 23.3198 10.9145 23.3902 10.9848C23.4605 11.0552 23.5 11.1505 23.5 11.25C23.5 11.3495 23.4605 11.4448 23.3902 11.5152C23.3198 11.5855 23.2245 11.625 23.125 11.625Z" fill="#FFB913"/>
<path d="M17.5535 6.32158C17.4793 6.32157 17.4068 6.29957 17.3452 6.25837C17.2835 6.21716 17.2354 6.1586 17.2071 6.09009C17.1787 6.02158 17.1713 5.94619 17.1857 5.87345C17.2002 5.80071 17.2359 5.7339 17.2883 5.68145L18.8791 4.09063C18.9498 4.02177 19.0447 3.98351 19.1433 3.98414C19.2419 3.98476 19.3363 4.02422 19.4061 4.09397C19.4758 4.16371 19.5153 4.25812 19.5159 4.35675C19.5165 4.45539 19.4783 4.55029 19.4094 4.62091L17.8187 6.21174C17.784 6.24663 17.7426 6.2743 17.6971 6.29315C17.6515 6.312 17.6027 6.32166 17.5535 6.32158Z" fill="#FFB913"/>
</svg>
