<svg width="24" height="24" viewBox="0 0 24 24" fill="none" xmlns="http://www.w3.org/2000/svg">
<g clip-path="url(#clip0_164_133)">
<path d="M21.3333 16.1852H16.9118C17.9234 15.0696 18.483 13.6171 18.4815 12.1111C18.4815 10.4903 17.8376 8.93596 16.6916 7.7899C15.5455 6.64385 13.9911 6 12.3704 6C10.7496 6 9.19522 6.64385 8.04916 7.7899C6.90311 8.93596 6.25926 10.4903 6.25926 12.1111C6.25769 13.6171 6.81733 15.0696 7.82896 16.1852H3.40741C3.29936 16.1852 3.19573 16.2281 3.11933 16.3045C3.04292 16.3809 3 16.4845 3 16.5926C3 16.7006 3.04292 16.8043 3.11933 16.8807C3.19573 16.9571 3.29936 17 3.40741 17H21.3333C21.4414 17 21.545 16.9571 21.6214 16.8807C21.6978 16.8043 21.7407 16.7006 21.7407 16.5926C21.7407 16.4845 21.6978 16.3809 21.6214 16.3045C21.545 16.2281 21.4414 16.1852 21.3333 16.1852Z" fill="#ffa010"/>
<path d="M12.25 4.125C12.1505 4.125 12.0552 4.08549 11.9848 4.01516C11.9145 3.94484 11.875 3.84946 11.875 3.75V0.375C11.875 0.275544 11.9145 0.180161 11.9848 0.109835C12.0552 0.0395089 12.1505 0 12.25 0C12.3495 0 12.4448 0.0395089 12.5152 0.109835C12.5855 0.180161 12.625 0.275544 12.625 0.375V3.75C12.625 3.84946 12.5855 3.94484 12.5152 4.01516C12.4448 4.08549 12.3495 4.125 12.25 4.125Z" fill="#ffa010"/>
<path d="M6.94652 6.32158C6.89727 6.32165 6.8485 6.31197 6.803 6.29312C6.7575 6.27427 6.71617 6.24662 6.6814 6.21175L5.09057 4.62092C5.05503 4.58626 5.02671 4.54489 5.00728 4.49921C4.98785 4.45353 4.97768 4.40444 4.97736 4.35479C4.97705 4.30515 4.9866 4.25594 5.00545 4.21001C5.0243 4.16408 5.05209 4.12236 5.08719 4.08725C5.1223 4.05215 5.16402 4.02436 5.20995 4.00551C5.25587 3.98666 5.30509 3.97711 5.35473 3.97742C5.40438 3.97774 5.45346 3.98791 5.49915 4.00734C5.54483 4.02678 5.5862 4.05509 5.62086 4.09063L7.21169 5.68131C7.26412 5.73376 7.29982 5.80057 7.31428 5.87331C7.32874 5.94604 7.32131 6.02143 7.29293 6.08995C7.26455 6.15846 7.21649 6.21702 7.15483 6.25823C7.09317 6.29943 7.02068 6.32158 6.94652 6.32158Z" fill="#ffa010"/>
<path d="M4.75 11.625H1.375C1.27554 11.625 1.18016 11.5855 1.10983 11.5152C1.03951 11.4448 1 11.3495 1 11.25C1 11.1505 1.03951 11.0552 1.10983 10.9848C1.18016 10.9145 1.27554 10.875 1.375 10.875H4.75C4.84946 10.875 4.94484 10.9145 5.01516 10.9848C5.08549 11.0552 5.125 11.1505 5.125 11.25C5.125 11.3495 5.08549 11.4448 5.01516 11.5152C4.94484 11.5855 4.84946 11.625 4.75 11.625Z" fill="#ffa010"/>
<path d="M23.125 11.625H19.75C19.6505 11.625 19.5552 11.5855 19.4848 11.5152C19.4145 11.4448 19.375 11.3495 19.375 11.25C19.375 11.1505 19.4145 11.0552 19.4848 10.9848C19.5552 10.9145 19.6505 10.875 19.75 10.875H23.125C23.2245 10.875 23.3198 10.9145 23.3902 10.9848C23.4605 11.0552 23.5 11.1505 23.5 11.25C23.5 11.3495 23.4605 11.4448 23.3902 11.5152C23.3198 11.5855 23.2245 11.625 23.125 11.625Z" fill="#ffa010"/>
<path d="M17.5535 6.32158C17.4793 6.32157 17.4068 6.29957 17.3452 6.25837C17.2835 6.21716 17.2354 6.1586 17.2071 6.09009C17.1787 6.02158 17.1713 5.94619 17.1857 5.87345C17.2002 5.80071 17.2359 5.7339 17.2883 5.68145L18.8791 4.09063C18.9498 4.02177 19.0447 3.98351 19.1433 3.98414C19.2419 3.98476 19.3363 4.02422 19.4061 4.09397C19.4758 4.16371 19.5153 4.25812 19.5159 4.35675C19.5165 4.45539 19.4783 4.55029 19.4094 4.62091L17.8187 6.21174C17.784 6.24663 17.7426 6.2743 17.6971 6.29315C17.6515 6.312 17.6027 6.32166 17.5535 6.32158Z" fill="#ffa010"/>
<path d="M12.0716 18.5H0.356938C0.262272 18.5 0.171484 18.559 0.104545 18.6641C0.0376059 18.7691 0 18.9116 0 19.0602C0 19.2088 0.0376059 19.3513 0.104545 19.4564C0.171484 19.5614 0.262272 19.6205 0.356938 19.6205H12.0716C12.1663 19.6205 12.2571 19.5614 12.324 19.4564C12.391 19.3513 12.4286 19.2088 12.4286 19.0602C12.4286 18.9116 12.391 18.7691 12.324 18.6641C12.2571 18.559 12.1663 18.5 12.0716 18.5Z" fill="#ffa010"/>
<path d="M23.95 21.0385C23.95 20.8956 23.9128 20.7587 23.8465 20.6577C23.7803 20.5567 23.6905 20.5 23.5968 20.5H13.3532C13.2595 20.5 13.1697 20.5567 13.1035 20.6577C13.0372 20.7587 13 20.8956 13 21.0385C13 21.1813 13.0372 21.3182 13.1035 21.4192C13.1697 21.5202 13.2595 21.5769 13.3532 21.5769H23.5968C23.6905 21.5769 23.7803 21.5202 23.8465 21.4192C23.9128 21.3182 23.95 21.1813 23.95 21.0385Z" fill="#ffa010"/>
<path d="M9.36709 22.5C9.26973 22.5 9.17636 22.559 9.10752 22.6641C9.03868 22.7691 9 22.9116 9 23.0602C9 23.2088 9.03868 23.3513 9.10752 23.4564C9.17636 23.5614 9.26973 23.6205 9.36709 23.6205H15.8829C15.9803 23.6205 16.0736 23.5614 16.1425 23.4564C16.2113 23.3513 16.25 23.2088 16.25 23.0602C16.25 22.9116 16.2113 22.7691 16.1425 22.6641C16.0736 22.559 15.9803 22.5 15.8829 22.5H9.36709Z" fill="#ffa010"/>
</g>
<defs>
<clipPath id="clip0_164_133">
<rect width="24" height="24" fill="white"/>
</clipPath>
</defs>
</svg>
