<svg viewBox="0 0 24 24" fill="none" xmlns="http://www.w3.org/2000/svg">
<mask id="mask0_438_11890" style="mask-type:luminance" maskUnits="userSpaceOnUse" x="0" y="0" width="24" height="24">
<path d="M12 5.36442e-07C5.37256 5.36442e-07 0 5.3726 0 12C0 18.6274 5.37256 24 12 24C18.6274 24 24 18.6274 24 12C24 5.3726 18.6274 5.36442e-07 12 5.36442e-07Z" fill="white"/>
</mask>
<g mask="url(#mask0_438_11890)">
<path d="M9.3168 -3.47083e-05H2V3.65833L9.3168 -3.47083e-05Z" fill="#00008B"/>
<path d="M30.0771 10.4445L29.3333 9.66192L28.5895 10.4445L28.7376 9.37504L27.662 9.28148L28.5906 8.73048L27.993 7.8312L29.0028 8.21356L29.3333 7.18572L29.6639 8.21356L30.6736 7.8312L30.0761 8.73048L31.0046 9.28148L29.929 9.37504L30.0771 10.4445ZM26.9878 13.809L26.4 13.4445L25.8122 13.809L25.9773 13.1374L25.4489 12.691L26.1388 12.6404L26.4 12L26.6612 12.6404L27.3511 12.691L26.8227 13.1374L26.9878 13.809ZM24.7438 21.5445L24 20.7619L23.2562 21.5445L23.4043 20.4751L22.3287 20.3814L23.2572 19.8305L22.6597 18.9312L23.6694 19.3136L24 18.2857L24.3306 19.3136L25.3403 18.9312L24.7428 19.8305L25.6713 20.3814L24.5957 20.4751L24.7438 21.5445ZM18.7438 12.0445L18 11.2619L17.2562 12.0445L17.4043 10.975L16.3287 10.8815L17.2572 10.3305L16.6597 9.4312L17.6694 9.8136L18 8.78572L18.3306 9.8136L19.3403 9.4312L18.7428 10.3305L19.6713 10.8815L18.5957 10.975L18.7438 12.0445ZM22.6597 2.9312L23.6694 3.31356L24 2.28576L24.3306 3.31356L25.3403 2.9312L24.7428 3.83044L25.6713 4.38148L24.5957 4.47508L24.7438 5.54452L24 4.76192L23.2562 5.54452L23.4043 4.47508L22.3287 4.38148L23.2572 3.83044L22.6597 2.9312ZM1.562 21.2435L-2.68221e-07 19.6L-1.562 21.2435L-1.25092 18.9976L-3.50972 18.8011L-1.55988 17.644L-2.81456 15.7555L-0.694202 16.5585L-2.68221e-07 14.4L0.694199 16.5585L2.81464 15.7555L1.55988 17.644L3.50976 18.8011L1.25092 18.9976L1.562 21.2435ZM12 5.36442e-07V1.34L6.68084 4.00004L12 4V4.80004V7.2V8H6.68332L12 10.6584V11.1056V12H9.3168L2 8.34164V12H1.2H-1.2H-2V8.34112L-9.3166 12H-10.211H-12V24H36V5.36442e-07H12Z" fill="#00008B"/>
<path d="M12 4.80005V4.00001L6.68079 4.00005L12 1.34001V8.95739e-06L3.99995 4.00001H2.21115L10.2112 8.95739e-06H9.31675L1.99995 3.65837V8.95739e-06H1.19995V4.80005H12Z" fill="white"/>
<path d="M1.19995 12H1.99995V8.34164L9.31675 12H12L3.99999 8.00004H5.78883L12 11.1056V10.6584L6.68327 8H12V7.2H1.19995V12Z" fill="white"/>
<path d="M4.00012 8.00004L12.0001 12V11.1056L5.78896 8.00004H4.00012Z" fill="#FF0000"/>
<path d="M3.99998 4L12 8.9407e-08H10.2112L2.21118 4H3.99998Z" fill="#FF0000"/>
<path d="M-1.2 12H1.2V7.2H12V4.80004L1.2 4.8V2.68221e-07H-1.2V4.8H-12V7.2H-1.2V12Z" fill="#FF0000"/>
<path d="M1.55987 17.644L2.81459 15.7555L0.694194 16.5585L-4.58548e-05 14.4001L-0.694246 16.5585L-2.81457 15.7555L-1.55993 17.644L-3.50977 18.8012L-1.25093 18.9977L-1.56201 21.2435L-4.58548e-05 19.6001L1.56195 21.2435L1.25091 18.9977L3.50975 18.8012L1.55987 17.644Z" fill="white"/>
<path d="M24.7427 19.8305L25.3403 18.9312L24.3305 19.3136L24 18.2857L23.6693 19.3136L22.6597 18.9312L23.2571 19.8305L22.3286 20.3814L23.4043 20.4751L23.2561 21.5446L24 20.7619L24.7437 21.5446L24.5957 20.4751L25.6713 20.3814L24.7427 19.8305Z" fill="white"/>
<path d="M18.7427 10.3305L19.3403 9.4312L18.3305 9.8136L18 8.78572L17.6693 9.8136L16.6597 9.4312L17.2571 10.3305L16.3286 10.8815L17.4043 10.975L17.2562 12.0446L18 11.2619L18.7437 12.0446L18.5957 10.975L19.6713 10.8815L18.7427 10.3305Z" fill="white"/>
<path d="M23.4043 4.47508L23.2561 5.54456L24 4.76192L24.7437 5.54456L24.5957 4.47508L25.6713 4.38148L24.7427 3.83048L25.3402 2.9312L24.3305 3.31356L24 2.28576L23.6693 3.31356L22.6597 2.9312L23.2571 3.83048L22.3286 4.38148L23.4043 4.47508Z" fill="white"/>
</g>
</svg>
