<svg viewBox="0 0 24 24" fill="none" xmlns="http://www.w3.org/2000/svg">
<mask id="mask0_426_11705" style="mask-type:luminance" maskUnits="userSpaceOnUse" x="0" y="0" width="24" height="24">
<path d="M12 5.36442e-07C5.37256 5.36442e-07 0 5.3726 0 12C0 18.6274 5.37256 24 12 24C18.6274 24 24 18.6274 24 12C24 5.3726 18.6274 5.36442e-07 12 5.36442e-07Z" fill="white"/>
</mask>
<g mask="url(#mask0_426_11705)">
<path d="M-4 24.0032H4V-0.003227H-4V24.0032Z" fill="#D52B1E"/>
<path d="M15.0634 14.7566L18.2 12.2166L17.4934 11.8866C17.3946 11.8399 17.346 11.7271 17.38 11.6233L18 9.7166L16.1934 10.0999C16.0925 10.121 15.9907 10.068 15.95 9.97328L15.6 9.14992L14.19 10.6633C14.1077 10.7501 13.9706 10.7538 13.8838 10.6714C13.8301 10.6206 13.8061 10.5459 13.82 10.4733L14.5 6.9666L13.41 7.5966C13.3068 7.65712 13.1741 7.62248 13.1136 7.51924C13.1111 7.51508 13.1089 7.51088 13.1067 7.5066L12 5.33328L10.8934 7.5066C10.8398 7.61364 10.7097 7.657 10.6027 7.60344C10.5984 7.60132 10.5942 7.59904 10.59 7.5966L9.50005 6.9666L10.18 10.4733C10.2026 10.5908 10.1257 10.7044 10.0082 10.727C9.93561 10.7409 9.86089 10.7169 9.81005 10.6633L8.40005 9.14992L8.05005 9.97328C8.00941 10.068 7.90761 10.121 7.80669 10.0999L6.00005 9.7166L6.62005 11.6233C6.65405 11.7271 6.60545 11.8399 6.50669 11.8866L5.80005 12.2166L8.93669 14.7566C9.00873 14.8151 9.03557 14.9129 9.00337 14.9999L8.61669 16.0666L11.48 15.5633C11.6524 15.5336 11.8162 15.6493 11.8458 15.8217C11.8497 15.8442 11.8511 15.8671 11.85 15.8899L11.7 18.7666H12.3L12.15 15.8899C12.142 15.7152 12.2771 15.5671 12.4518 15.559C12.4746 15.558 12.4975 15.5594 12.52 15.5633L15.3834 16.0666L14.9967 14.9999C14.9645 14.9129 14.9913 14.8151 15.0634 14.7566Z" fill="#D52B1E"/>
<path d="M20 24.0032H28V-0.003227H20V24.0032Z" fill="#D52B1E"/>
<path d="M14.9967 15L15.3833 16.0667L12.52 15.5633C12.4975 15.5594 12.4746 15.558 12.4518 15.5591C12.277 15.5671 12.142 15.7153 12.15 15.89L12.3 18.7667H11.7L11.85 15.89C11.851 15.8671 11.8496 15.8443 11.8458 15.8217C11.8161 15.6493 11.6524 15.5337 11.48 15.5633L8.61668 16.0667L9.00336 15C9.03552 14.913 9.00868 14.8151 8.93668 14.7567L5.8 12.2167L6.50668 11.8867C6.6054 11.84 6.654 11.7271 6.62 11.6233L6 9.71666L7.80668 10.1C7.90756 10.121 8.00936 10.0681 8.05 9.9733L8.4 9.14997L9.81 10.6633C9.86084 10.7169 9.93556 10.741 10.0082 10.727C10.1257 10.7044 10.2026 10.5908 10.18 10.4733L9.5 6.96666L10.59 7.59666C10.5942 7.59906 10.5984 7.60134 10.6026 7.6035C10.7096 7.65702 10.8398 7.61366 10.8934 7.50666L12 5.3333L13.1067 7.50666C13.1088 7.51094 13.1111 7.51513 13.1135 7.51925C13.174 7.62249 13.3068 7.65714 13.41 7.59666L14.5 6.96666L13.82 10.4733C13.806 10.5459 13.83 10.6206 13.8837 10.6715C13.9706 10.7538 14.1076 10.7501 14.19 10.6633L15.6 9.14997L15.95 9.9733C15.9907 10.0681 16.0924 10.121 16.1933 10.1L18 9.71666L17.38 11.6233C17.346 11.7271 17.3946 11.84 17.4933 11.8867L18.2 12.2167L15.0633 14.7567C14.9913 14.8151 14.9645 14.913 14.9967 15ZM4 24.0032H20V-0.00322233H4V24.0032Z" fill="white"/>
</g>
</svg>
