<svg viewBox="0 0 24 24" fill="none" xmlns="http://www.w3.org/2000/svg">
<mask id="mask0_400_9572" style="mask-type:luminance" maskUnits="userSpaceOnUse" x="0" y="0" width="24" height="24">
<path d="M12 5.36442e-07C5.37256 5.36442e-07 0 5.3726 0 12C0 18.6274 5.37256 24 12 24C18.6274 24 24 18.6274 24 12C24 5.3726 18.6274 5.36442e-07 12 5.36442e-07Z" fill="white"/>
</mask>
<g mask="url(#mask0_400_9572)">
<path d="M-6 24H30V16H-6V24Z" fill="black"/>
<path d="M-6 8H30V1.78814e-07H-6V8Z" fill="#CE1126"/>
<path d="M-6 16H30V8H-6V16Z" fill="white"/>
<path d="M12 15.7524C12.7977 15.7524 13.5609 15.6893 14.0085 15.5631C14.1979 15.5287 14.1979 15.4312 14.1979 15.3049C14.3874 15.2417 14.2897 15.018 14.4217 15.018C14.2897 15.0525 14.261 14.7943 14.1004 14.8288C14.1004 14.6049 13.8766 14.5763 13.6872 14.6393C13.3084 14.7656 12.637 14.7943 12 14.7943C11.363 14.7656 10.6973 14.7656 10.3128 14.6393C10.1234 14.5763 9.89973 14.6049 9.89973 14.8288C9.73901 14.7943 9.71033 15.0526 9.57837 15.018C9.71033 15.018 9.61273 15.2417 9.80217 15.3049C9.80217 15.4312 9.80217 15.5287 9.99729 15.5631C10.4391 15.6893 11.2024 15.7524 12 15.7524Z" fill="white"/>
<path d="M9.68747 15.0382C9.69935 15.0625 9.70591 15.0897 9.71167 15.1135C9.72739 15.1784 9.74083 15.2343 9.81715 15.2597C9.83655 15.2662 9.84967 15.2844 9.84967 15.3048C9.84967 15.4312 9.84967 15.4888 10.0055 15.5162C10.4214 15.6348 11.1651 15.7049 12 15.7049C12.8454 15.7049 13.5728 15.6366 13.9955 15.5173C14.1503 15.489 14.1503 15.4313 14.1503 15.3048C14.1503 15.2844 14.1634 15.2662 14.1829 15.2597C14.2591 15.2343 14.2727 15.1784 14.2883 15.1135C14.294 15.0897 14.3006 15.0625 14.3125 15.0382C14.2839 15.0164 14.2606 14.9865 14.2396 14.9596C14.1886 14.8942 14.1594 14.8654 14.1102 14.8752C14.0963 14.8785 14.0816 14.8748 14.0704 14.8657C14.0593 14.8567 14.0527 14.8431 14.0527 14.8288C14.0527 14.7675 14.0329 14.7222 13.9939 14.694C13.9316 14.6492 13.82 14.6453 13.7021 14.6844C13.3845 14.7904 12.8278 14.8418 12 14.8418C11.8842 14.8367 11.7697 14.8324 11.656 14.8283C11.1233 14.8088 10.6202 14.7904 10.298 14.6844C10.1802 14.6453 10.0685 14.649 10.006 14.694C9.96703 14.7222 9.94727 14.7675 9.94727 14.8288C9.94727 14.8431 9.94079 14.8567 9.92959 14.8657C9.91831 14.8748 9.90355 14.8781 9.88975 14.8753C9.84063 14.8646 9.81123 14.8943 9.76023 14.9596C9.73931 14.9865 9.71595 15.0164 9.68747 15.0382ZM12 15.8C11.1442 15.8 10.4095 15.7303 9.98415 15.6088C9.77335 15.572 9.75607 15.456 9.75467 15.3368C9.65623 15.2891 9.63427 15.198 9.61927 15.1358C9.60827 15.0904 9.60215 15.0743 9.59347 15.0687C9.58475 15.068 9.57575 15.0665 9.56623 15.064C9.54311 15.058 9.52811 15.0357 9.53115 15.012C9.53543 14.978 9.57807 14.9674 9.60683 14.9731C9.62939 14.9697 9.65043 14.9458 9.68523 14.9012C9.72427 14.8512 9.77519 14.7858 9.85575 14.7786C9.86839 14.6936 9.91247 14.6442 9.95043 14.6168C10.0384 14.5535 10.1796 14.5448 10.3278 14.5942C10.637 14.6958 11.1337 14.714 11.6595 14.7333C11.7734 14.7374 11.8882 14.7416 12.002 14.7468C12.8173 14.7467 13.3644 14.6968 13.6721 14.5942C13.8202 14.5447 13.9614 14.5533 14.0496 14.6169C14.0875 14.6442 14.1316 14.6936 14.1442 14.7786C14.2248 14.7858 14.2757 14.8511 14.3146 14.9011C14.3496 14.9458 14.3705 14.9697 14.3932 14.9731C14.4218 14.9674 14.4644 14.9781 14.4687 15.012C14.4719 15.0357 14.4568 15.058 14.4337 15.064C14.4242 15.0665 14.4152 15.068 14.4065 15.0686C14.3978 15.0743 14.3916 15.0904 14.3807 15.1358C14.3657 15.198 14.3437 15.2891 14.2454 15.3368C14.244 15.4558 14.2266 15.5719 14.0168 15.6098C13.5905 15.7303 12.8538 15.8 12 15.8Z" fill="#C09300"/>
<path d="M12.0323 12.096L14.7718 14.6392L14.5768 10.0204C14.5482 9.32036 13.9398 9.48096 13.498 9.73348C13.0503 10.0204 12.5396 10.0204 12.0001 9.83096C11.4607 10.0204 10.95 10.0204 10.5024 9.73348C10.0605 9.48096 9.45227 9.32032 9.42355 10.0204L9.22839 14.6392L12.0323 12.096Z" fill="white"/>
<path d="M9.85203 9.54327C9.77851 9.54327 9.70875 9.55687 9.64847 9.59019C9.52507 9.65847 9.45799 9.80355 9.44903 10.0215L9.25647 14.5796L12.0153 12.0773C12.0252 12.0685 12.0401 12.0686 12.0496 12.0774L14.7439 14.5786L14.5514 10.0215C14.5425 9.80359 14.4755 9.65847 14.3521 9.59027C14.0994 9.45015 13.6793 9.65915 13.5107 9.75555C13.0899 10.0253 12.5811 10.06 12.0003 9.85791C11.4191 10.0601 10.9105 10.0253 10.4887 9.75491C10.3611 9.68203 10.0872 9.54327 9.85203 9.54327ZM14.772 14.6646C14.7656 14.6646 14.7594 14.6623 14.7547 14.6578L12.0321 12.1306L9.24559 14.658C9.23807 14.665 9.22719 14.6666 9.21775 14.6623C9.20851 14.6578 9.20271 14.6484 9.20315 14.6382L9.39827 10.0194C9.40799 9.78251 9.48387 9.62319 9.62387 9.54575C9.89983 9.39311 10.3389 9.61087 10.5151 9.71151C10.9262 9.97503 11.423 10.007 11.9918 9.80707C11.9972 9.80519 12.0033 9.80519 12.0087 9.80707C12.5777 10.007 13.0744 9.97495 13.4843 9.71215C13.6616 9.61083 14.1012 9.39323 14.3767 9.54579C14.5167 9.62319 14.5925 9.78255 14.6023 10.0194L14.7974 14.6382C14.7977 14.6484 14.792 14.658 14.7826 14.6623C14.7792 14.6639 14.7756 14.6646 14.772 14.6646Z" fill="#C09300"/>
<path d="M12.7976 10.6289L12.8895 12.8551L13.1477 13.1077L13.0501 10.6576C12.987 10.6575 12.8264 10.6576 12.7976 10.6289Z" fill="#C09300"/>
<path d="M12.1264 12.6024L12.5109 14.3526L12.3846 14.4788L12.2526 14.3812L12.0345 12.8205L12.1264 14.3812L12.0001 14.5419L11.8739 14.3812L11.9657 12.8205L11.7477 14.3812L11.6155 14.4788L11.4894 14.3526L11.8739 12.6024H12.1264Z" fill="#C09300"/>
<path d="M11.8957 14.3744L12.0001 14.5071L12.1044 14.3744L12.0131 12.8218L12.0559 12.8175L12.2727 14.3693L12.3825 14.4505L12.4873 14.3457L12.1091 12.6239H11.891L11.5129 14.3457L11.6176 14.4505L11.7276 14.3693L11.9443 12.8175L11.9871 12.8218L11.8957 14.3744ZM12.0001 14.5767L11.8518 14.3881L11.9127 13.3552L11.7677 14.3931L11.6133 14.507L11.4658 14.3594L11.4684 14.3479L11.8565 12.5809H12.1435L12.1473 12.5977L12.5345 14.3594L12.3867 14.507L12.2326 14.3931L12.2313 14.3842L12.0874 13.3543L12.1482 14.3881L12.0001 14.5767Z" fill="#C09300"/>
<path d="M9.73883 9.85964L9.54947 14.3524L9.22803 14.6392L9.42319 10.0204C9.51499 9.9572 9.67575 9.85964 9.73883 9.85964Z" fill="#C09300"/>
<path d="M10.1236 10.1811L9.96288 13.9393L9.6416 14.2682L9.83668 9.92859C9.89984 9.99167 10.0893 10.1465 10.1236 10.181V10.1811Z" fill="#C09300"/>
<path d="M10.4736 10.468L10.3474 13.6025L10.0892 13.8549L10.2499 10.2787C10.3129 10.3418 10.4392 10.4336 10.4736 10.468Z" fill="#C09300"/>
<path d="M10.8523 10.6288L10.7261 13.3002L10.4735 13.505L10.5998 10.5312C10.663 10.5599 10.7892 10.6288 10.8523 10.6288Z" fill="#C09300"/>
<path d="M11.2024 10.6289L11.1105 12.8551L10.8523 13.1077L10.9499 10.6576C11.0129 10.6575 11.1736 10.6576 11.2024 10.6289Z" fill="#C09300"/>
<path d="M14.2612 9.85964L14.4506 14.3524L14.772 14.6392L14.5769 10.0204C14.4851 9.9572 14.3243 9.85964 14.2612 9.85964Z" fill="#C09300"/>
<path d="M13.8763 10.1811L14.0371 13.9393L14.3583 14.2682L14.1633 9.92859C14.1001 9.99167 13.9107 10.1465 13.8763 10.181V10.1811Z" fill="#C09300"/>
<path d="M13.5264 10.468L13.6526 13.6025L13.9108 13.8549L13.7501 10.2787C13.6871 10.3418 13.5608 10.4336 13.5264 10.468Z" fill="#C09300"/>
<path d="M13.1476 10.6288L13.2738 13.3002L13.5264 13.505L13.4001 10.5312C13.3369 10.5599 13.2107 10.6288 13.1476 10.6288Z" fill="#C09300"/>
<path d="M11.1392 11.8336L10.376 14.5418L11.4262 14.7025L11.8737 12.6656L11.1392 11.8336Z" fill="white"/>
<path d="M10.4061 14.5224L11.4077 14.6756L11.8478 12.6723L11.1501 11.8821L10.4061 14.5224ZM11.4261 14.7263C11.4249 14.7263 11.4237 14.7262 11.4225 14.726L10.3724 14.5654C10.3657 14.5644 10.3597 14.5604 10.356 14.5548C10.3523 14.549 10.3512 14.542 10.3531 14.5354L11.1162 11.8272C11.1186 11.8188 11.1253 11.8124 11.1338 11.8105C11.1421 11.8088 11.1511 11.8114 11.1569 11.8179L11.8914 12.6499C11.8965 12.6556 11.8985 12.6633 11.8968 12.6707L11.4493 14.7076C11.4468 14.7187 11.4371 14.7263 11.4261 14.7263Z" fill="#C09300"/>
<path d="M12.8608 11.8336L13.6239 14.5418L12.5739 14.7025L12.1262 12.6656L12.8608 11.8336Z" fill="white"/>
<path d="M12.152 12.6723L12.5923 14.6756L13.5937 14.5224L12.8497 11.8821L12.152 12.6723ZM12.5739 14.7263C12.5628 14.7263 12.5531 14.7187 12.5507 14.7076L12.103 12.6707C12.1013 12.6633 12.1033 12.6556 12.1084 12.6498L12.8429 11.8179C12.8487 11.8114 12.8575 11.8088 12.866 11.8105C12.8745 11.8124 12.8812 11.8188 12.8836 11.8272L13.6468 14.5354C13.6487 14.542 13.6477 14.549 13.644 14.5548C13.6403 14.5604 13.6343 14.5644 13.6276 14.5654L12.5775 14.726C12.5762 14.7262 12.575 14.7263 12.5739 14.7263Z" fill="#C09300"/>
<path d="M13.0213 13.0068C13.0149 13.0068 13.0086 13.0044 13.0038 12.9998L12.5075 12.5259C12.4974 12.5162 12.4969 12.5001 12.5067 12.4899C12.5165 12.4798 12.5325 12.4794 12.5426 12.4891L13.012 12.9374L13.0895 12.748C13.0949 12.7352 13.1096 12.7289 13.1227 12.7342C13.1357 12.7395 13.1419 12.7544 13.1367 12.7674L13.0449 12.9911C13.0416 12.9988 13.0348 13.0045 13.0266 13.0062C13.0249 13.0067 13.0231 13.0068 13.0213 13.0068Z" fill="#C09300"/>
<path d="M12.6068 13.8165L12.8105 14.1334L12.92 13.7996C12.9231 13.7902 12.9314 13.7835 12.9412 13.7823C12.9524 13.781 12.9608 13.7858 12.9659 13.7943L13.1647 14.1212L13.3117 13.5822L13.0256 13.2887L12.935 13.6111C12.9323 13.6205 12.9246 13.6275 12.9151 13.6293C12.9059 13.6307 12.8959 13.6273 12.8901 13.6194L12.6915 13.3503L12.6068 13.8165ZM12.4679 14.3782C12.4661 14.3782 12.4644 14.378 12.4626 14.3776C12.4489 14.3747 12.4401 14.3612 12.4431 14.3475L12.5518 13.8326L12.2067 13.3084C12.199 13.2967 12.2023 13.2809 12.214 13.2732C12.2253 13.2655 12.2413 13.2687 12.2491 13.2804L12.5653 13.7607L12.652 13.2833C12.6538 13.2733 12.6614 13.2654 12.6712 13.2631C12.6809 13.2606 12.6914 13.2647 12.6974 13.2727L12.9001 13.5473L12.9886 13.2326C12.991 13.2238 12.9979 13.2171 13.0067 13.2149C13.0157 13.2126 13.0249 13.2151 13.0312 13.2217L13.3582 13.5571C13.3645 13.5635 13.3669 13.5729 13.3645 13.5815L13.1982 14.1916C13.1955 14.2014 13.1873 14.2087 13.1773 14.2101C13.1672 14.2117 13.1572 14.2068 13.1521 14.1981L12.9511 13.8678L12.8421 14.1999C12.8391 14.2092 12.8309 14.216 12.8211 14.2172C12.8117 14.2192 12.8019 14.214 12.7966 14.2057L12.5921 13.8877L12.4927 14.358C12.4903 14.37 12.4797 14.3782 12.4679 14.3782Z" fill="#C09300"/>
<path d="M10.9785 13.0068C10.9768 13.0068 10.975 13.0067 10.9732 13.0062C10.965 13.0045 10.9582 12.9988 10.955 12.9911L10.8632 12.7674C10.8579 12.7544 10.8642 12.7395 10.8772 12.7342C10.8902 12.7287 10.9049 12.7352 10.9103 12.748L10.9879 12.9373L11.4571 12.4891C11.4672 12.4794 11.4834 12.4798 11.4931 12.4899C11.5028 12.5001 11.5024 12.5162 11.4923 12.5259L10.9961 12.9998C10.9913 13.0044 10.985 13.0068 10.9785 13.0068Z" fill="#C09300"/>
<path d="M11.3342 13.1962C11.332 13.1962 11.3297 13.1958 11.3274 13.1952C11.3174 13.1924 11.3101 13.1838 11.3089 13.1734L11.2051 12.1995C11.2037 12.1856 11.2138 12.173 11.2277 12.1716C11.2438 12.1694 11.2542 12.1803 11.2557 12.1941L11.3528 13.1046L11.6297 12.7422C11.6381 12.7309 11.6539 12.7288 11.6653 12.7374C11.6764 12.746 11.6785 12.7619 11.67 12.773L11.3544 13.1861C11.3496 13.1925 11.342 13.1962 11.3342 13.1962Z" fill="#C09300"/>
<path d="M11.696 13.5385C11.685 13.5385 11.6748 13.5312 11.6716 13.5201L11.4992 12.9251C11.4952 12.9116 11.5031 12.8975 11.5166 12.8936C11.5297 12.89 11.5441 12.8975 11.548 12.9109L11.7203 13.506C11.7243 13.5194 11.7165 13.5335 11.703 13.5375C11.7007 13.5381 11.6983 13.5385 11.696 13.5385Z" fill="#C09300"/>
<path d="M11.0473 13.7821C11.0483 13.7821 11.0492 13.7822 11.0503 13.7823C11.0601 13.7835 11.0684 13.7902 11.0715 13.7996L11.1811 14.1334L11.3847 13.8165L11.3 13.3503L11.1014 13.6194C11.0957 13.6273 11.0859 13.6308 11.0764 13.6293C11.0669 13.6275 11.0592 13.6205 11.0565 13.6111L10.9659 13.2887L10.6798 13.5822L10.8268 14.1213L11.0257 13.7944C11.0302 13.7867 11.0385 13.7821 11.0473 13.7821ZM11.5236 14.3782C11.5117 14.3782 11.5012 14.37 11.4987 14.358L11.3994 13.8877L11.1949 14.2057C11.1896 14.2141 11.1803 14.2193 11.1704 14.2172C11.1607 14.216 11.1525 14.2093 11.1494 14.1999L11.0404 13.8679L10.8395 14.1981C10.8342 14.2068 10.8242 14.2115 10.8143 14.2101C10.8042 14.2087 10.796 14.2014 10.7933 14.1916L10.627 13.5815C10.6247 13.5729 10.627 13.5635 10.6333 13.5571L10.9603 13.2217C10.9666 13.2152 10.976 13.2127 10.9848 13.2149C10.9935 13.2171 11.0005 13.2238 11.0029 13.2326L11.0914 13.5474L11.2941 13.2728C11.3001 13.2647 11.3105 13.2607 11.3203 13.2631C11.3301 13.2654 11.3377 13.2733 11.3395 13.2833L11.4262 13.7607L11.7424 13.2804C11.7501 13.2688 11.7662 13.2655 11.7775 13.2732C11.7893 13.2809 11.7925 13.2967 11.7848 13.3084L11.4397 13.8326L11.5484 14.3475C11.5514 14.3613 11.5426 14.3747 11.5289 14.3776C11.5271 14.378 11.5253 14.3782 11.5236 14.3782Z" fill="#C09300"/>
<path d="M11.2654 14.728C11.2547 14.728 11.2447 14.7212 11.2412 14.7105L11.1325 14.3793L10.9716 14.6522C10.9664 14.6609 10.9562 14.6657 10.9466 14.6646C10.9366 14.6633 10.9282 14.6563 10.9253 14.6467L10.8022 14.238L10.6204 14.4936C10.612 14.505 10.5962 14.5077 10.5848 14.4995C10.5735 14.4914 10.5708 14.4755 10.5789 14.4641L10.7909 14.1663C10.7965 14.1584 10.8064 14.1545 10.8157 14.156C10.8253 14.1575 10.8332 14.1644 10.836 14.1737L10.9573 14.5764L11.1171 14.3052C11.1222 14.2965 11.1315 14.2915 11.1417 14.2928C11.1517 14.2939 11.16 14.3006 11.1632 14.3101L11.2895 14.6947C11.2938 14.708 11.2866 14.7223 11.2733 14.7267C11.2706 14.7276 11.2679 14.728 11.2654 14.728Z" fill="#C09300"/>
<path d="M12.7429 14.728C12.7404 14.728 12.7377 14.7276 12.735 14.7267C12.7217 14.7223 12.7145 14.708 12.7188 14.6947L12.8451 14.3101C12.8483 14.3006 12.8566 14.2939 12.8666 14.2928C12.8763 14.2915 12.8861 14.2965 12.8912 14.3052L13.051 14.5765L13.1724 14.1737C13.1753 14.1644 13.1831 14.1575 13.1927 14.156C13.2021 14.1541 13.2119 14.1583 13.2175 14.1663L13.4295 14.4641C13.4376 14.4755 13.4349 14.4914 13.4236 14.4995C13.4122 14.5077 13.3964 14.505 13.3881 14.4936L13.2062 14.238L13.083 14.6467C13.0801 14.6563 13.0717 14.6633 13.0617 14.6646C13.052 14.6659 13.0418 14.661 13.0367 14.6522L12.8758 14.3793L12.7671 14.7105C12.7636 14.7212 12.7536 14.728 12.7429 14.728Z" fill="#C09300"/>
<path d="M10.9155 14.5416C11.1737 14.5761 11.4607 14.6047 11.6845 14.5761C11.8107 14.5761 11.9025 14.7941 11.65 14.8286C11.4263 14.8572 11.0763 14.8286 10.8868 14.7941C10.7262 14.7654 10.3761 14.7023 10.1523 14.6391C9.92847 14.5416 10.0893 14.3524 10.2153 14.381C10.4105 14.4441 10.663 14.5073 10.9155 14.5416Z" fill="white"/>
<path d="M10.1885 14.4031C10.1402 14.4031 10.0857 14.4394 10.0701 14.487C10.0536 14.5369 10.0865 14.5827 10.1625 14.6158C10.3885 14.6794 10.7538 14.7446 10.8913 14.769C11.0668 14.801 11.4171 14.8329 11.6468 14.8034C11.738 14.7909 11.7883 14.7522 11.7845 14.697C11.7811 14.647 11.7334 14.6016 11.6845 14.6016C11.4532 14.6314 11.1501 14.5986 10.9121 14.5668C10.6047 14.525 10.3387 14.4476 10.2076 14.4052C10.2014 14.4038 10.195 14.4031 10.1885 14.4031ZM11.4333 14.8657C11.2318 14.8657 11.0108 14.8425 10.8823 14.8191C10.7442 14.7944 10.3771 14.729 10.1454 14.6636C9.99345 14.5976 10.0125 14.4996 10.0218 14.4711C10.0478 14.3918 10.141 14.3382 10.221 14.3562C10.3527 14.3987 10.6154 14.4752 10.9191 14.5164V14.5165C11.154 14.5479 11.4532 14.5803 11.6813 14.5509H11.6817C11.7612 14.5509 11.83 14.6162 11.8352 14.6935C11.8373 14.725 11.8305 14.8296 11.6535 14.8538C11.5875 14.8622 11.5119 14.8657 11.4333 14.8657Z" fill="#C09300"/>
<path d="M13.0847 14.5416C12.8264 14.5761 12.5396 14.6047 12.3215 14.5761C12.1895 14.5761 12.0976 14.7941 12.3502 14.8286C12.574 14.8572 12.924 14.8286 13.1133 14.7941C13.274 14.7654 13.624 14.7023 13.8478 14.6391C14.0717 14.5416 13.9111 14.3524 13.7848 14.381C13.5896 14.4441 13.3372 14.5073 13.0847 14.5416Z" fill="white"/>
<path d="M12.3182 14.6012C12.2634 14.6015 12.2194 14.6524 12.2163 14.698C12.2125 14.7525 12.2627 14.7909 12.3536 14.8033C12.5833 14.8327 12.9336 14.801 13.1088 14.769C13.2465 14.7444 13.6119 14.6793 13.8409 14.6146C13.9137 14.5826 13.9465 14.5368 13.9301 14.4869C13.9124 14.4328 13.8437 14.3934 13.7903 14.4057C13.6614 14.4475 13.3955 14.5249 13.0881 14.5667C12.8499 14.5986 12.5471 14.6314 12.3182 14.6012ZM12.5671 14.8657C12.4885 14.8657 12.413 14.8622 12.3469 14.8537C12.1702 14.8296 12.1634 14.7258 12.1655 14.6946C12.1709 14.6166 12.2423 14.5506 12.3215 14.5506C12.5472 14.5802 12.846 14.5477 13.0813 14.5163C13.3849 14.4751 13.6473 14.3986 13.7769 14.3567C13.8601 14.3382 13.9524 14.3916 13.9784 14.471C13.9878 14.4995 14.0068 14.5975 13.8581 14.6624C13.6232 14.7289 13.2561 14.7944 13.1178 14.819C12.9895 14.8424 12.7686 14.8657 12.5671 14.8657Z" fill="#C09300"/>
<path d="M10.1236 14.4156C9.92855 14.3812 9.83671 14.6048 9.89991 14.7311C9.92855 14.668 10.0606 14.668 10.0893 14.6048C10.1236 14.5074 10.0606 14.5074 10.1236 14.4156Z" fill="white"/>
<path d="M10.0813 14.4374C10.0118 14.4385 9.96978 14.4795 9.94958 14.5066C9.91218 14.5567 9.89754 14.6249 9.9095 14.6815C9.93106 14.6656 9.95846 14.6548 9.9853 14.6443C10.0201 14.6306 10.056 14.6165 10.0661 14.5943C10.0784 14.5592 10.0753 14.5402 10.0719 14.5201C10.0675 14.4937 10.0657 14.4708 10.0813 14.4374ZM9.89986 14.7565C9.89026 14.7565 9.88146 14.751 9.87714 14.7424C9.8377 14.6636 9.8507 14.5542 9.90886 14.4763C9.96086 14.4064 10.0405 14.375 10.128 14.3905C10.1365 14.3921 10.1437 14.3977 10.147 14.4057C10.1504 14.4137 10.1494 14.4228 10.1445 14.4299C10.1154 14.4724 10.118 14.488 10.1219 14.5116C10.1259 14.5349 10.1307 14.5637 10.1132 14.6133C10.0938 14.6563 10.0481 14.6742 10.0039 14.6915C9.96906 14.7052 9.9331 14.7194 9.92302 14.7415C9.91898 14.7504 9.91014 14.7562 9.90034 14.7565H9.89986Z" fill="#C09300"/>
<path d="M10.8868 15.0024C10.8868 14.8763 11.0129 14.8918 11.0129 14.7656C11.0129 14.7025 10.9786 14.6049 10.9155 14.6049C10.8523 14.6049 10.7892 14.668 10.7892 14.7311C10.7604 14.8574 10.8868 14.8764 10.8868 15.0024Z" fill="white"/>
<path d="M10.9155 14.6304C10.8664 14.6304 10.8146 14.6822 10.8146 14.7312C10.8013 14.7923 10.824 14.8214 10.8527 14.8583C10.8651 14.8742 10.8782 14.8911 10.8889 14.9108C10.9023 14.892 10.9184 14.8778 10.9331 14.865C10.9634 14.8383 10.9875 14.8173 10.9875 14.7657C10.9875 14.7112 10.9572 14.6304 10.9155 14.6304ZM10.8868 15.028C10.8727 15.028 10.8613 15.0166 10.8613 15.0025C10.8613 14.9522 10.8377 14.9218 10.8126 14.8896C10.7815 14.8496 10.7464 14.8045 10.7645 14.7255C10.7637 14.6547 10.839 14.5796 10.9155 14.5796C10.9957 14.5796 11.0383 14.6877 11.0383 14.7657C11.0383 14.8403 10.9986 14.8752 10.9666 14.9032C10.9363 14.9299 10.9122 14.951 10.9122 15.0025C10.9122 15.0166 10.9009 15.028 10.8868 15.028Z" fill="#C09300"/>
<path d="M11.7952 14.6393C11.9844 14.6393 11.9657 14.8918 11.8738 15.0181C11.8738 14.9263 11.7131 14.8918 11.7131 14.8288C11.7131 14.7311 11.8582 14.7311 11.7952 14.6393Z" fill="white"/>
<path d="M11.8357 14.67C11.8422 14.7122 11.8093 14.739 11.7856 14.7583C11.7563 14.7822 11.7386 14.7988 11.7386 14.8288C11.7386 14.8439 11.7694 14.8651 11.7966 14.8839C11.8258 14.9039 11.8594 14.9271 11.88 14.9577C11.9155 14.8837 11.9302 14.7852 11.8981 14.722C11.8845 14.6955 11.8636 14.6781 11.8357 14.67ZM11.8738 15.0435C11.8713 15.0435 11.8685 15.043 11.866 15.0422C11.8555 15.0388 11.8484 15.0291 11.8484 15.018C11.8484 14.9812 11.8075 14.953 11.7678 14.9257C11.7266 14.8975 11.6877 14.8707 11.6877 14.8288C11.6877 14.7725 11.7257 14.7416 11.7535 14.719C11.7882 14.6907 11.7949 14.6836 11.7742 14.6536C11.7689 14.6459 11.7683 14.6358 11.7727 14.6275C11.7771 14.6191 11.7857 14.6139 11.7952 14.6139C11.8818 14.6139 11.9235 14.6601 11.9433 14.699C11.9933 14.7972 11.9577 14.9459 11.8943 15.0329C11.8895 15.0396 11.8818 15.0435 11.8738 15.0435Z" fill="#C09300"/>
<path d="M13.8763 14.4156C14.0715 14.3812 14.1633 14.6048 14.1002 14.7311C14.0715 14.668 13.9395 14.668 13.9108 14.6048C13.8763 14.5074 13.9395 14.5074 13.8763 14.4156Z" fill="white"/>
<path d="M13.9186 14.4374C13.9344 14.4708 13.9326 14.4937 13.9281 14.52C13.9247 14.5401 13.9216 14.5591 13.9347 14.5965C13.944 14.6165 13.9799 14.6306 14.0147 14.6443C14.0416 14.6548 14.069 14.6656 14.0906 14.6816C14.1025 14.6249 14.0878 14.5568 14.0505 14.5067C14.0302 14.4795 13.9882 14.4385 13.9186 14.4374ZM14.1002 14.7565H14.0997C14.0898 14.7562 14.0811 14.7505 14.0771 14.7416C14.0669 14.7194 14.0309 14.7052 13.9961 14.6916C13.9519 14.6742 13.9063 14.6563 13.8877 14.6154C13.8693 14.5637 13.8741 14.5349 13.878 14.5116C13.882 14.488 13.8845 14.4724 13.8554 14.4299C13.8506 14.4228 13.8496 14.4137 13.8529 14.4057C13.8563 14.3977 13.8634 14.3921 13.8719 14.3905C13.9599 14.3753 14.0391 14.4064 14.0911 14.4763C14.1493 14.5542 14.1623 14.6636 14.1229 14.7424C14.1186 14.751 14.1098 14.7565 14.1002 14.7565Z" fill="#C09300"/>
<path d="M13.1131 15.0024C13.1131 14.8763 12.9871 14.8918 12.9871 14.7656C12.9871 14.7025 13.0214 14.6049 13.0845 14.6049C13.1476 14.6049 13.2108 14.668 13.2108 14.7311C13.2395 14.8574 13.1131 14.8764 13.1131 15.0024Z" fill="white"/>
<path d="M13.0845 14.6304C13.0426 14.6304 13.0124 14.7112 13.0124 14.7657C13.0124 14.8173 13.0364 14.8383 13.0668 14.865C13.0814 14.8778 13.0976 14.892 13.1109 14.9108C13.1216 14.8911 13.1347 14.8742 13.1471 14.8583C13.1759 14.8214 13.1985 14.7923 13.1859 14.7368C13.1853 14.6822 13.1335 14.6304 13.0845 14.6304ZM13.1131 15.028C13.099 15.028 13.0876 15.0166 13.0876 15.0025C13.0876 14.951 13.0636 14.9299 13.0333 14.9032C13.0013 14.8752 12.9615 14.8403 12.9615 14.7657C12.9615 14.6877 13.0043 14.5796 13.0845 14.5796C13.161 14.5796 13.2361 14.6547 13.2361 14.7312C13.2535 14.8045 13.2183 14.8496 13.1872 14.8896C13.1621 14.9218 13.1385 14.9522 13.1385 15.0025C13.1385 15.0166 13.1271 15.028 13.1131 15.028Z" fill="#C09300"/>
<path d="M12.2048 14.6393C12.0155 14.6393 12.0343 14.8918 12.1261 15.0181C12.1261 14.9263 12.2868 14.8918 12.2868 14.8288C12.2868 14.7311 12.1417 14.7311 12.2048 14.6393Z" fill="white"/>
<path d="M12.1642 14.67C12.1363 14.6781 12.1154 14.6955 12.1018 14.722C12.0697 14.7852 12.0844 14.8837 12.1199 14.9577C12.1405 14.9271 12.1741 14.9039 12.2033 14.8839C12.2305 14.8651 12.2613 14.8439 12.2613 14.8288C12.2613 14.7988 12.2436 14.7822 12.2143 14.7583C12.1906 14.739 12.1577 14.7122 12.1642 14.67ZM12.1261 15.0435C12.1181 15.0435 12.1104 15.0396 12.1056 15.0329C12.0422 14.9459 12.0066 14.7972 12.0566 14.699C12.0764 14.6601 12.1181 14.6139 12.2047 14.6139C12.2141 14.6139 12.2228 14.6191 12.2272 14.6275C12.2316 14.6358 12.231 14.6459 12.2257 14.6536C12.205 14.6836 12.2117 14.6907 12.2464 14.719C12.2742 14.7416 12.3122 14.7725 12.3122 14.8288C12.3122 14.8707 12.2733 14.8975 12.2321 14.9257C12.1924 14.953 12.1515 14.9812 12.1515 15.018C12.1515 15.0291 12.1444 15.0388 12.1339 15.0422C12.1314 15.043 12.1286 15.0435 12.1261 15.0435Z" fill="#C09300"/>
<path d="M10.3763 14.5597C10.3744 14.5597 10.3725 14.5594 10.3707 14.5588L10.1813 14.4957C10.1729 14.493 10.1679 14.4846 10.1693 14.4759C10.1706 14.4673 10.1781 14.461 10.1869 14.461C10.254 14.461 10.3573 14.4913 10.39 14.5305C10.3951 14.5365 10.3955 14.5453 10.391 14.5519C10.3877 14.5569 10.3821 14.5597 10.3763 14.5597Z" fill="#C09300"/>
<path d="M10.7258 14.6572C10.7242 14.6572 10.7226 14.6571 10.721 14.6566L10.4972 14.5936C10.4886 14.5912 10.4831 14.5828 10.4843 14.574C10.4856 14.5652 10.4931 14.5586 10.502 14.5586C10.54 14.5586 10.6687 14.5881 10.7344 14.6238C10.7423 14.6281 10.7457 14.6377 10.7423 14.6462C10.7395 14.653 10.733 14.6572 10.7258 14.6572Z" fill="#C09300"/>
<path d="M11.4263 14.7489C11.4192 14.7489 11.4128 14.7448 11.41 14.7382C11.4067 14.731 11.4088 14.7225 11.4149 14.7174C11.4511 14.6872 11.5553 14.6847 11.65 14.6847C11.6594 14.6847 11.6672 14.6919 11.6678 14.7014C11.6684 14.7107 11.6616 14.7189 11.6522 14.7202L11.4285 14.7488C11.4278 14.7489 11.427 14.7489 11.4263 14.7489Z" fill="#C09300"/>
<path d="M11.3 14.7202H11.0761C11.0679 14.7202 11.0609 14.7147 11.0589 14.7068C11.0568 14.6989 11.0605 14.6907 11.0676 14.6867C11.1321 14.6514 11.2697 14.647 11.3126 14.6898C11.3177 14.6949 11.3192 14.7026 11.3165 14.7093C11.3137 14.7159 11.3073 14.7202 11.3 14.7202Z" fill="#C09300"/>
<path d="M13.8137 14.4788C13.7505 14.4788 13.6587 14.5075 13.6243 14.5419L13.8137 14.4788Z" fill="white"/>
<path d="M13.6242 14.5597C13.6181 14.5597 13.6123 14.5567 13.6091 14.5513C13.6046 14.5442 13.6057 14.5351 13.6115 14.5293C13.6517 14.489 13.7503 14.461 13.8135 14.461C13.8223 14.461 13.8297 14.4673 13.8311 14.4759C13.8325 14.4846 13.8275 14.493 13.8192 14.4957L13.6298 14.5588C13.6279 14.5594 13.6261 14.5597 13.6242 14.5597Z" fill="#C09300"/>
<path d="M13.498 14.5764C13.4636 14.5764 13.3373 14.6051 13.2742 14.6394L13.498 14.5764Z" fill="white"/>
<path d="M13.2742 14.6572C13.267 14.6572 13.2605 14.653 13.2577 14.6462C13.2543 14.6377 13.2577 14.6281 13.2656 14.6238C13.3313 14.5881 13.46 14.5586 13.498 14.5586C13.5069 14.5586 13.5144 14.5652 13.5157 14.574C13.5169 14.5828 13.5114 14.5912 13.5028 14.5936L13.279 14.6566C13.2773 14.6571 13.2758 14.6572 13.2742 14.6572Z" fill="#C09300"/>
<path d="M12.35 14.7025C12.4131 14.7025 12.5393 14.7025 12.5738 14.7311L12.35 14.7025Z" fill="white"/>
<path d="M12.5737 14.7489C12.573 14.7489 12.5722 14.7489 12.5715 14.7488L12.3478 14.7202C12.3384 14.7189 12.3316 14.7107 12.3322 14.7014C12.3328 14.6919 12.3406 14.6847 12.35 14.6847C12.4447 14.6847 12.5489 14.6872 12.5851 14.7174C12.5912 14.7225 12.5933 14.731 12.59 14.7382C12.5872 14.7448 12.5808 14.7489 12.5737 14.7489Z" fill="#C09300"/>
<path d="M12.7 14.7024C12.7343 14.6679 12.8607 14.6679 12.9238 14.7024H12.7Z" fill="white"/>
<path d="M12.9238 14.7202H12.7C12.6927 14.7202 12.6863 14.7159 12.6834 14.7093C12.6808 14.7026 12.6823 14.6949 12.6873 14.6898C12.7301 14.6471 12.8678 14.6515 12.9324 14.6867C12.9395 14.6907 12.9431 14.6989 12.941 14.7068C12.939 14.7147 12.932 14.7202 12.9238 14.7202Z" fill="#C09300"/>
<path d="M12.6717 13.1962C12.664 13.1962 12.6563 13.1925 12.6515 13.1861L12.3359 12.773C12.3274 12.7619 12.3295 12.746 12.3406 12.7374C12.352 12.7289 12.3679 12.731 12.3762 12.7422L12.6532 13.1046L12.7502 12.1941C12.7517 12.1803 12.7626 12.1692 12.7782 12.1716C12.7922 12.173 12.8022 12.1856 12.8008 12.1995L12.697 13.1734C12.6958 13.1838 12.6886 13.1924 12.6785 13.1952C12.6762 13.1958 12.6739 13.1962 12.6717 13.1962Z" fill="#C09300"/>
<path d="M11.9991 13.0892C13.3048 12.085 13.1928 10.6139 13.1928 10.6139C13.1583 10.6208 13.1256 10.6242 13.0912 10.6242C12.8173 10.6242 12.1641 10.4676 12.0117 10.2685C11.8484 10.4487 11.1809 10.6242 10.9087 10.6242C10.8743 10.6242 10.8398 10.6208 10.8071 10.6139C10.8071 10.6139 10.6934 12.085 11.9991 13.0892Z" fill="white"/>
<path d="M10.829 10.6412C10.8223 10.8397 10.8265 12.1478 11.9992 13.0601C13.1721 12.1477 13.1775 10.8394 13.1711 10.6411C13.1441 10.6452 13.1182 10.6472 13.0913 10.6472C12.8271 10.6472 12.1948 10.4996 12.0105 10.3024C11.8091 10.4896 11.161 10.6472 10.9088 10.6472C10.8817 10.6472 10.855 10.6452 10.829 10.6412ZM11.9992 13.1182L11.9851 13.1074C10.6846 12.1071 10.7831 10.627 10.7842 10.6121L10.7863 10.586L10.8119 10.5914C10.8431 10.5979 10.8756 10.6012 10.9088 10.6012C11.185 10.6012 11.8383 10.4257 11.9948 10.253L12.0133 10.2326L12.03 10.2545C12.1753 10.4442 12.8225 10.6012 13.0913 10.6012C13.1237 10.6012 13.1546 10.5981 13.1884 10.5913L13.2139 10.5862L13.2159 10.6121C13.2169 10.627 13.3137 12.1072 12.0133 13.1074L11.9992 13.1182Z" fill="#C09300"/>
<path d="M13.0888 10.7216C13.0775 10.7223 13.0662 10.7226 13.0548 10.7226C12.8066 10.7226 12.2301 10.5953 12.0079 10.4044C11.775 10.5808 11.189 10.7226 10.9448 10.7226C10.9334 10.7226 10.922 10.7212 10.9108 10.7192C10.9102 10.7748 10.9131 10.8325 10.9166 10.885C10.9295 11.081 10.9639 11.2777 11.0161 11.467C11.1804 12.0628 11.5167 12.5691 11.999 12.9532C12.4816 12.5688 12.8183 12.062 12.983 11.4658C13.0353 11.2765 13.0698 11.0798 13.0829 10.8838C13.0863 10.8324 13.0891 10.7761 13.0888 10.7216Z" fill="white"/>
</g>
<mask id="mask1_400_9572" style="mask-type:luminance" maskUnits="userSpaceOnUse" x="10" y="10" width="4" height="3">
<path d="M10.9451 10.7223C10.9336 10.7223 10.9223 10.7209 10.9111 10.7188C10.9106 10.7745 10.9134 10.8321 10.9169 10.8846C10.9298 11.0806 10.9642 11.2774 11.0164 11.4666C11.1807 12.0624 11.517 12.5687 11.9992 12.9528C12.4818 12.5684 12.8185 12.0616 12.9832 11.4653C13.0355 11.2761 13.07 11.0794 13.083 10.8834C13.0864 10.832 13.0893 10.7758 13.089 10.7212L13.0889 10.7212C13.0776 10.7219 13.0664 10.7223 13.055 10.7223C12.8068 10.7223 12.2303 10.595 12.008 10.404C11.7753 10.5804 11.1893 10.7223 10.9451 10.7223Z" fill="white"/>
</mask>
<g mask="url(#mask1_400_9572)">
<path d="M10.6321 10.0564H11.575V13.3079H10.6321V10.0564Z" fill="#C09300"/>
<path d="M12.3994 10.0564H13.3924V13.3079H12.3994V10.0564Z" fill="#C09300"/>
</g>
<mask id="mask2_400_9572" style="mask-type:luminance" maskUnits="userSpaceOnUse" x="0" y="0" width="24" height="24">
<path d="M12 5.36442e-07C5.37256 5.36442e-07 0 5.3726 0 12C0 18.6274 5.37256 24 12 24C18.6274 24 24 18.6274 24 12C24 5.3726 18.6274 5.36442e-07 12 5.36442e-07Z" fill="white"/>
</mask>
<g mask="url(#mask2_400_9572)">
<path d="M12.2915 13.5383C12.2892 13.5383 12.2868 13.538 12.2845 13.5374C12.271 13.5334 12.2632 13.5193 12.2672 13.5059L12.4395 12.9108C12.4434 12.8974 12.4577 12.8901 12.4709 12.8935C12.4844 12.8974 12.4923 12.9115 12.4883 12.925L12.3159 13.52C12.3127 13.5311 12.3025 13.5383 12.2915 13.5383Z" fill="#C09300"/>
<path d="M11.9309 15.5731C11.9309 15.5717 11.9234 15.5672 11.9142 15.563C11.8966 15.5549 11.8814 15.5426 11.8722 15.5289C11.8657 15.5194 11.8582 15.4952 11.858 15.4836C11.858 15.4778 11.856 15.4753 11.8511 15.4742C11.8307 15.4697 11.7788 15.464 11.7407 15.4621C11.7167 15.4609 11.6719 15.4574 11.641 15.4544C11.574 15.4477 11.5484 15.4487 11.5395 15.4581C11.5361 15.4616 11.5319 15.4688 11.5301 15.4739C11.5284 15.479 11.5218 15.49 11.5156 15.4983C11.5094 15.5066 11.5043 15.5148 11.5043 15.5164C11.5043 15.5181 11.503 15.5194 11.5013 15.5194C11.4997 15.5195 11.4959 15.5218 11.4929 15.5246C11.4853 15.5318 11.4699 15.5424 11.4619 15.546C11.4582 15.5476 11.4518 15.5509 11.4477 15.5532C11.4369 15.5593 11.3619 15.56 11.3498 15.5541C11.345 15.5518 11.337 15.55 11.332 15.55C11.3269 15.55 11.3202 15.5483 11.317 15.5461C11.3122 15.5428 11.3117 15.5407 11.3141 15.5339C11.3176 15.5241 11.3276 15.5216 11.3664 15.521C11.3879 15.5206 11.3942 15.5194 11.4068 15.5129C11.4218 15.5051 11.4475 15.4862 11.4495 15.4816C11.4501 15.4802 11.4531 15.4769 11.4562 15.4743C11.4592 15.4718 11.4626 15.4651 11.4636 15.4595C11.4646 15.4539 11.468 15.4442 11.4712 15.438C11.4778 15.4249 11.477 15.417 11.4657 15.3845C11.454 15.351 11.4499 15.3436 11.4366 15.3324C11.4198 15.3183 11.4202 15.3116 11.4389 15.2925C11.4471 15.2842 11.4586 15.2702 11.4645 15.2616C11.474 15.2475 11.4761 15.2459 11.4845 15.2466C11.4925 15.2472 11.4951 15.2497 11.5024 15.2632C11.5136 15.2839 11.5291 15.3198 11.5292 15.3253C11.5292 15.3277 11.5312 15.3338 11.5336 15.3387C11.536 15.3437 11.5395 15.3525 11.5415 15.3583C11.5462 15.3726 11.5489 15.374 11.5737 15.3761C11.5998 15.3784 11.6001 15.378 11.6024 15.343C11.6033 15.3296 11.6054 15.3173 11.607 15.3157C11.6087 15.3141 11.61 15.3102 11.61 15.3071C11.6099 15.3001 11.595 15.2589 11.5912 15.2552C11.5861 15.2502 11.5882 15.2356 11.5957 15.2228C11.5998 15.2159 11.6043 15.2103 11.6056 15.2103C11.607 15.2103 11.6132 15.2068 11.6195 15.2026C11.6351 15.1922 11.6585 15.1897 11.6686 15.1973C11.675 15.2023 11.6761 15.2058 11.6776 15.2283C11.679 15.2512 11.68 15.2543 11.6871 15.2602C11.6915 15.2638 11.6984 15.2668 11.7023 15.2668C11.7063 15.2668 11.712 15.2689 11.715 15.2714C11.7196 15.2753 11.7301 15.2762 11.7783 15.2765C11.845 15.277 11.8822 15.2788 11.8869 15.2817C11.8888 15.2828 11.9004 15.2837 11.9128 15.2836C11.9251 15.2835 11.9521 15.2844 11.9727 15.2856C12.0088 15.2877 12.0106 15.2881 12.0193 15.2964L12.0284 15.3049L12.0291 15.3432C12.0299 15.3875 12.0325 15.3932 12.0518 15.393C12.0688 15.3928 12.0736 15.3876 12.0749 15.368C12.0756 15.3586 12.0778 15.3496 12.0799 15.348C12.082 15.3463 12.0858 15.3402 12.0882 15.3344C12.0933 15.3224 12.1142 15.3014 12.1238 15.2984C12.1274 15.2974 12.133 15.2942 12.1363 15.2913C12.1396 15.2885 12.1463 15.2854 12.1512 15.2845C12.1728 15.2804 12.1966 15.2724 12.2022 15.2674C12.2061 15.2639 12.2133 15.2617 12.2222 15.2612C12.2337 15.2607 12.2373 15.2618 12.2423 15.2675C12.2495 15.2756 12.2508 15.2818 12.2536 15.3213C12.2548 15.3376 12.2572 15.3544 12.2591 15.3587C12.2609 15.3629 12.2632 15.3832 12.2642 15.4038L12.266 15.4412L12.2566 15.4535L12.2472 15.4658L12.1502 15.4667C12.0968 15.4672 12.0485 15.4684 12.0428 15.4695C12.0315 15.4716 12.0288 15.4775 12.0291 15.4997C12.0292 15.5066 12.0272 15.5122 12.0235 15.5154C12.0204 15.5182 12.017 15.5236 12.0161 15.5273C12.0143 15.5346 11.9944 15.5496 11.9817 15.5535C11.9776 15.5547 11.9722 15.5573 11.9697 15.5592C11.9627 15.5648 11.9402 15.5756 11.9353 15.5756C11.9329 15.5756 11.9309 15.5745 11.9309 15.5731ZM11.9563 15.4809C11.9629 15.4758 11.9631 15.4745 11.9628 15.4216L11.9625 15.3674L11.9544 15.3604C11.9467 15.3536 11.9439 15.3532 11.8886 15.3511C11.8569 15.3498 11.8257 15.3472 11.8194 15.3452C11.811 15.3426 11.8036 15.3424 11.7926 15.3444C11.7828 15.3462 11.771 15.3462 11.7589 15.3443C11.714 15.3372 11.6842 15.3428 11.6734 15.3604C11.6683 15.3686 11.6683 15.3695 11.6732 15.3772C11.676 15.3818 11.6817 15.386 11.6858 15.3867C11.69 15.3874 11.6997 15.3899 11.7073 15.3922C11.7158 15.3947 11.734 15.3962 11.7539 15.3962C11.7718 15.3962 11.802 15.3971 11.821 15.3983C11.84 15.3995 11.8664 15.4007 11.8797 15.401C11.897 15.4015 11.9062 15.4031 11.9123 15.4069L11.9209 15.4122L11.9191 15.44C11.9174 15.4667 11.9177 15.4681 11.9244 15.4738C11.9324 15.4807 11.9421 15.486 11.9464 15.486C11.9481 15.486 11.9525 15.4837 11.9563 15.4809ZM12.1879 15.3938C12.1946 15.3913 12.196 15.3893 12.1945 15.3846C12.1935 15.3813 12.1912 15.3724 12.1893 15.365C12.1864 15.3532 12.185 15.3513 12.1786 15.3514C12.1717 15.3514 12.159 15.3586 12.1474 15.369C12.1417 15.3741 12.1382 15.3866 12.1413 15.3907C12.1481 15.4 12.1682 15.4013 12.1879 15.3938ZM12.4403 15.5496C12.4306 15.5396 12.4285 15.5354 12.4284 15.5256C12.4283 15.5157 12.4302 15.5118 12.4397 15.5022C12.4572 15.4845 12.4658 15.484 12.496 15.4994C12.525 15.514 12.5347 15.5154 12.5373 15.505C12.5398 15.495 12.5565 15.4858 12.5723 15.4857C12.5823 15.4856 12.588 15.4876 12.596 15.4939C12.606 15.5017 12.6065 15.5029 12.6067 15.521C12.6069 15.5396 12.6067 15.5403 12.5951 15.5505C12.584 15.5603 12.5823 15.5608 12.5685 15.5595C12.551 15.5577 12.5405 15.5497 12.5377 15.536C12.5356 15.526 12.5321 15.5236 12.5295 15.5304C12.5286 15.5325 12.5244 15.5352 12.52 15.5364C12.5118 15.5384 12.498 15.5471 12.4882 15.5564C12.4845 15.5598 12.478 15.5615 12.4674 15.5616C12.4532 15.5617 12.4512 15.5608 12.4403 15.5496ZM12.7141 15.5318L12.7073 15.5271L12.7133 15.5188C12.7166 15.5142 12.7243 15.5089 12.7305 15.5069C12.7514 15.5001 12.7655 15.4915 12.7826 15.4753C12.792 15.4664 12.7996 15.4569 12.7996 15.4542C12.7996 15.4515 12.8032 15.445 12.8077 15.4398C12.8155 15.4306 12.8158 15.429 12.8152 15.3999C12.8146 15.3701 12.8131 15.3639 12.802 15.3467C12.7967 15.3385 12.7788 15.3255 12.7605 15.3166C12.7484 15.3108 12.7441 15.2988 12.7503 15.2886C12.753 15.2843 12.7612 15.2684 12.7688 15.2533C12.7763 15.2382 12.784 15.2225 12.786 15.2186C12.7915 15.2076 12.8049 15.2071 12.814 15.2173C12.8225 15.227 12.8364 15.2515 12.8364 15.2571C12.8365 15.2592 12.8391 15.2633 12.8422 15.2661C12.8491 15.2722 12.8639 15.2975 12.8639 15.3034C12.864 15.3056 12.8676 15.3132 12.8719 15.3201C12.8773 15.3288 12.8799 15.3371 12.8801 15.3465C12.8803 15.354 12.8824 15.365 12.8849 15.3709C12.8921 15.3881 12.8898 15.4456 12.8812 15.4617C12.8776 15.4684 12.8737 15.474 12.8725 15.474C12.8713 15.4741 12.8663 15.4794 12.8614 15.4859C12.8521 15.4983 12.8204 15.5206 12.812 15.5207C12.8092 15.5207 12.805 15.5237 12.8026 15.5272C12.7985 15.5334 12.7958 15.5339 12.7596 15.5351C12.7276 15.5362 12.7198 15.5356 12.7141 15.5318ZM12.9522 15.5058C12.9487 15.5026 12.9498 15.4885 12.9537 15.4854C12.9557 15.4838 12.9608 15.4815 12.9649 15.4803C12.969 15.479 12.9744 15.4764 12.9768 15.4743C12.9793 15.4722 12.988 15.4696 12.9962 15.4684C13.0258 15.464 13.0517 15.4405 13.0517 15.4178C13.0518 15.4116 13.0508 15.4051 13.0497 15.4034C13.0464 15.3982 12.9945 15.4014 12.9664 15.4084C12.9598 15.4101 12.9565 15.4087 12.9484 15.4011L12.9384 15.3917L12.937 15.3494L12.9356 15.307L12.9485 15.2927C12.9556 15.2848 12.9647 15.2732 12.9686 15.267C12.9725 15.2606 12.9766 15.2552 12.9776 15.2547C12.9787 15.2542 12.9848 15.2492 12.9911 15.2436C13.0037 15.2324 13.0244 15.221 13.0384 15.2177C13.0432 15.2165 13.0485 15.2136 13.0503 15.2113C13.052 15.209 13.0574 15.2068 13.0621 15.2063C13.0695 15.2057 13.0721 15.2076 13.0792 15.2185C13.0839 15.2256 13.0879 15.2352 13.0882 15.24C13.0884 15.2448 13.0906 15.2538 13.0932 15.2601C13.0956 15.2664 13.0986 15.279 13.0998 15.2881C13.1009 15.2972 13.1034 15.3064 13.1052 15.3086C13.1098 15.3139 13.146 15.3164 13.1523 15.3119C13.1558 15.3093 13.1574 15.3016 13.1584 15.2821C13.1591 15.267 13.1616 15.252 13.1642 15.2468C13.1667 15.2419 13.1696 15.2336 13.1707 15.2284C13.1736 15.2142 13.1973 15.1815 13.2114 15.1721C13.2183 15.1675 13.2256 15.1622 13.2276 15.1603C13.2297 15.1584 13.2344 15.1559 13.2381 15.1548C13.247 15.152 13.2492 15.1483 13.2491 15.1355C13.249 15.1245 13.2399 15.1119 13.221 15.0966C13.2164 15.0929 13.2126 15.0876 13.2126 15.0848C13.2124 15.0767 13.2213 15.0612 13.2351 15.0451C13.2422 15.0369 13.248 15.029 13.2481 15.0277C13.2481 15.0264 13.2528 15.0223 13.2585 15.0188C13.2667 15.0137 13.2705 15.0128 13.2764 15.015C13.2844 15.0178 13.2867 15.0218 13.2941 15.0464C13.3039 15.079 13.3062 15.0886 13.3086 15.107C13.31 15.1174 13.312 15.1273 13.3131 15.129C13.3142 15.1307 13.3275 15.1348 13.3426 15.138C13.3576 15.1412 13.3728 15.1456 13.3764 15.1477C13.3799 15.1498 13.3862 15.1524 13.3902 15.1536C13.4005 15.1564 13.4144 15.1664 13.4145 15.171C13.4145 15.1731 13.4157 15.1748 13.417 15.1748C13.4203 15.1748 13.4354 15.1967 13.4493 15.2217C13.465 15.2498 13.464 15.2492 13.489 15.2489C13.5091 15.2488 13.5114 15.2481 13.517 15.241C13.5204 15.2368 13.5232 15.2299 13.5231 15.2256C13.523 15.2165 13.5307 15.206 13.5495 15.1893C13.5567 15.1829 13.5656 15.175 13.5691 15.1718C13.5808 15.1612 13.594 15.1528 13.5991 15.1528C13.6018 15.1528 13.6167 15.1579 13.632 15.1642C13.6548 15.1735 13.6616 15.1777 13.6684 15.187C13.6833 15.2071 13.715 15.2154 13.7307 15.2033C13.7348 15.2001 13.7397 15.1974 13.7415 15.1974C13.7433 15.1974 13.7448 15.1954 13.7448 15.193C13.7447 15.1869 13.7324 15.1537 13.7287 15.1494C13.727 15.1475 13.7242 15.1359 13.7225 15.1236C13.7208 15.1113 13.7166 15.0954 13.7132 15.0883C13.7091 15.0796 13.7064 15.0664 13.7052 15.0481C13.7041 15.0331 13.7006 15.0112 13.6973 14.9995C13.6941 14.9877 13.6914 14.9745 13.6913 14.9701C13.691 14.9488 13.673 14.9208 13.6547 14.9132C13.6505 14.9115 13.6438 14.9083 13.6396 14.906C13.6288 14.9002 13.6145 14.901 13.6082 14.9079C13.6052 14.9111 13.6 14.9138 13.5965 14.9138C13.5901 14.9138 13.5709 14.9293 13.5709 14.9343C13.5709 14.9358 13.5665 14.9371 13.5611 14.9372C13.5531 14.9372 13.5494 14.935 13.5415 14.9253C13.5361 14.9188 13.5317 14.912 13.5316 14.9103C13.5316 14.9086 13.5262 14.9027 13.5195 14.8972C13.5097 14.8891 13.5074 14.8854 13.5073 14.877C13.5072 14.8687 13.5087 14.8659 13.5146 14.8633C13.5187 14.8614 13.5221 14.8587 13.5221 14.8571C13.522 14.8556 13.5271 14.8534 13.5333 14.8523C13.5394 14.8512 13.5552 14.8476 13.5684 14.8441C13.6016 14.8356 13.6612 14.8351 13.6757 14.8433C13.6811 14.8463 13.6889 14.8495 13.6932 14.8504C13.703 14.8525 13.729 14.8765 13.7343 14.8884C13.7366 14.8934 13.7397 14.8983 13.7412 14.8992C13.7428 14.9001 13.745 14.9063 13.7462 14.913C13.7474 14.9197 13.7503 14.929 13.7525 14.9338C13.7559 14.9408 13.7604 14.9705 13.765 15.0157C13.7658 15.0239 13.7719 15.0516 13.7766 15.0689C13.7784 15.0752 13.7817 15.0899 13.7842 15.1015C13.7866 15.1131 13.7907 15.1248 13.7934 15.1276C13.7959 15.1303 13.7981 15.1348 13.7982 15.1376C13.7983 15.1488 13.8293 15.1677 13.8473 15.1676C13.8631 15.1674 13.8866 15.1568 13.9013 15.1432C13.9097 15.1355 13.9198 15.1284 13.9237 15.1274C13.9318 15.1253 13.945 15.1316 13.9497 15.1396C13.9554 15.1495 13.9648 15.1582 13.9774 15.1652C13.9909 15.1726 13.9958 15.1826 13.9907 15.1921C13.989 15.1953 13.9852 15.1979 13.9824 15.1979C13.9796 15.1979 13.9701 15.2013 13.9613 15.2053C13.9525 15.2094 13.9428 15.2127 13.9398 15.2127C13.9367 15.2127 13.9197 15.2174 13.9019 15.2232C13.8842 15.2289 13.8528 15.2371 13.8322 15.2413C13.7959 15.2489 13.747 15.2624 13.741 15.2666C13.7394 15.2678 13.7327 15.2696 13.7261 15.2708C13.7057 15.2744 13.7039 15.2755 13.702 15.2859C13.6996 15.2988 13.6721 15.3276 13.6518 15.3384C13.6378 15.3459 13.6348 15.3463 13.5998 15.3463C13.5794 15.3462 13.5602 15.3456 13.5572 15.3447C13.5542 15.3438 13.5509 15.3392 13.5498 15.3346C13.5486 15.33 13.5436 15.3235 13.5386 15.3201C13.5291 15.3137 13.5182 15.3139 13.4937 15.3208L13.4828 15.324L13.481 15.3524C13.48 15.368 13.4774 15.3839 13.4752 15.3877C13.473 15.3915 13.4699 15.3972 13.4684 15.4004C13.4667 15.4035 13.4586 15.412 13.4502 15.4192C13.4418 15.4264 13.4296 15.4372 13.423 15.4433C13.4095 15.4557 13.3978 15.4576 13.3897 15.4487C13.3867 15.4454 13.3808 15.443 13.3758 15.443C13.3657 15.4432 13.3424 15.4336 13.3277 15.4233C13.3187 15.417 13.2999 15.3862 13.2998 15.3777C13.2998 15.376 13.297 15.3721 13.2936 15.369C13.2888 15.3644 13.2837 15.3634 13.2688 15.3636C13.2585 15.3638 13.244 15.3653 13.2366 15.3669C13.2292 15.3685 13.2112 15.3713 13.1966 15.373C13.1819 15.3748 13.1656 15.378 13.1603 15.3802C13.155 15.3824 13.145 15.3852 13.138 15.3864C13.1196 15.3895 13.114 15.3963 13.1142 15.4151C13.1143 15.425 13.1128 15.4318 13.11 15.434C13.1077 15.4359 13.105 15.4412 13.104 15.4456C13.1015 15.4572 13.077 15.481 13.0595 15.4889C13.0513 15.4925 13.0396 15.4981 13.0335 15.5013C13.0244 15.506 13.0165 15.5071 12.9884 15.5074C12.9696 15.5075 12.9533 15.5069 12.9522 15.5058ZM13.4173 15.367C13.4257 15.3606 13.4264 15.3514 13.419 15.3449C13.4102 15.3372 13.3943 15.3374 13.378 15.3452C13.3682 15.3498 13.3655 15.3527 13.3656 15.3584C13.3656 15.3632 13.3679 15.3664 13.3724 15.3681C13.3826 15.3719 13.4118 15.3712 13.4173 15.367ZM13.0381 15.3328C13.0484 15.3275 13.0509 15.3218 13.0482 15.309C13.0443 15.2899 13.0202 15.2842 13.0085 15.2997C13.005 15.3044 13.002 15.3095 13.002 15.311C13.002 15.3124 13.0001 15.3152 12.9977 15.3172C12.9942 15.32 12.994 15.3221 12.9967 15.3269C12.9986 15.3303 13.0017 15.334 13.0035 15.3351C13.0092 15.3387 13.0292 15.3373 13.0381 15.3328ZM13.2764 15.2882C13.2774 15.2833 13.2773 15.2721 13.276 15.2634C13.2743 15.2507 13.2719 15.2458 13.2647 15.2396C13.2538 15.2303 13.2483 15.2312 13.2354 15.2442C13.2271 15.2525 13.2259 15.2558 13.2256 15.2709C13.2251 15.2946 13.2284 15.2976 13.254 15.2974C13.2744 15.2972 13.2744 15.2972 13.2764 15.2882ZM13.383 15.2781C13.3958 15.2722 13.3974 15.2704 13.3974 15.262C13.3974 15.2489 13.3855 15.2335 13.368 15.2238C13.3494 15.2136 13.3427 15.2138 13.3344 15.2248C13.328 15.2334 13.3279 15.234 13.3326 15.2469C13.3353 15.2542 13.3375 15.2621 13.3375 15.2644C13.3376 15.2702 13.3557 15.2846 13.363 15.2846C13.3661 15.2847 13.3751 15.2817 13.383 15.2781ZM13.6225 15.2759C13.641 15.2679 13.6463 15.2581 13.639 15.2449C13.6328 15.2336 13.6236 15.2291 13.6087 15.2301C13.5915 15.2312 13.5773 15.2426 13.5774 15.2552C13.5776 15.2634 13.5796 15.2663 13.5904 15.2734C13.5974 15.278 13.6042 15.282 13.6054 15.2821C13.6067 15.2822 13.6143 15.2794 13.6225 15.2759ZM11.0984 15.5028C11.0939 15.5013 11.0901 15.4991 11.0901 15.4979C11.0901 15.4952 11.0617 15.4778 11.0573 15.4778C11.0555 15.4778 11.0532 15.4743 11.0522 15.47C11.0513 15.4656 11.0477 15.4536 11.0442 15.4432C11.0382 15.425 11.0383 15.411 11.0445 15.4072C11.049 15.4045 11.0473 15.3956 11.0414 15.3906C11.0378 15.3875 11.0284 15.3853 11.015 15.3844C10.9869 15.3826 10.9836 15.3817 10.9737 15.3734C10.9666 15.3675 10.9646 15.3629 10.9624 15.3474C10.9609 15.3364 10.9576 15.3264 10.9545 15.3232C10.949 15.3174 10.9397 15.3159 10.9369 15.3203C10.9361 15.3217 10.9313 15.3236 10.9263 15.3246C10.9201 15.3259 10.9162 15.3289 10.9143 15.334C10.9127 15.3381 10.908 15.3459 10.9037 15.3514C10.8963 15.3609 10.8951 15.3614 10.8767 15.3616C10.8661 15.3617 10.853 15.36 10.8474 15.3579C10.8356 15.3533 10.8226 15.3513 10.79 15.349C10.7433 15.3459 10.7216 15.3494 10.718 15.3607C10.713 15.3764 10.6752 15.4088 10.6587 15.4114C10.6521 15.4125 10.6409 15.4153 10.6338 15.4176C10.6267 15.4199 10.6196 15.4211 10.618 15.4202C10.6164 15.4192 10.6006 15.4167 10.5829 15.4145C10.5494 15.4104 10.5371 15.4048 10.537 15.3936C10.5369 15.3868 10.5574 15.3765 10.5653 15.3793C10.5738 15.3824 10.5879 15.3822 10.5878 15.379C10.5878 15.3776 10.5951 15.3748 10.604 15.373C10.613 15.3711 10.6218 15.3677 10.6238 15.3654C10.6258 15.3631 10.6313 15.3611 10.6361 15.3611C10.6432 15.361 10.6464 15.3585 10.6536 15.3474C10.6584 15.3399 10.6623 15.332 10.6623 15.3298C10.6623 15.3275 10.6649 15.3224 10.6682 15.3184C10.6717 15.3139 10.674 15.3066 10.674 15.3002C10.6739 15.2943 10.6759 15.2838 10.6784 15.2768C10.6826 15.2649 10.6824 15.263 10.676 15.244C10.6722 15.233 10.6674 15.223 10.6653 15.2218C10.6632 15.2206 10.66 15.2151 10.658 15.2096C10.6527 15.1949 10.6584 15.1818 10.6796 15.159C10.6818 15.1566 10.6846 15.1505 10.6857 15.1453C10.6878 15.1355 10.6945 15.1301 10.7047 15.13C10.7121 15.1299 10.7263 15.1455 10.7264 15.1538C10.7264 15.1573 10.7286 15.1631 10.7313 15.1667C10.7342 15.1706 10.7373 15.1837 10.739 15.1996C10.7419 15.227 10.7468 15.2552 10.7504 15.2659C10.7534 15.2751 10.7698 15.2877 10.7786 15.2878C10.7829 15.2878 10.7945 15.2896 10.8044 15.2918C10.8143 15.294 10.8302 15.2957 10.8398 15.2956C10.857 15.2955 10.8571 15.2955 10.8748 15.2777C10.8846 15.268 10.8925 15.2585 10.8924 15.2567C10.8919 15.2452 10.8533 15.2244 10.8222 15.2189C10.8114 15.2171 10.8037 15.2038 10.8061 15.1908C10.8081 15.1799 10.8226 15.1609 10.8367 15.1507C10.8421 15.1468 10.86 15.1398 10.8766 15.1352L10.9066 15.1268L10.9149 15.1106C10.9307 15.0798 10.9639 15.0554 10.9905 15.0551C11.0038 15.055 11.0066 15.0565 11.0172 15.0698C11.0202 15.0734 11.0257 15.0803 11.0296 15.085C11.0413 15.0995 11.048 15.1167 11.0462 15.128C11.0445 15.1386 11.049 15.1554 11.0535 15.1553C11.0576 15.1553 11.1014 15.1978 11.1034 15.2039C11.1045 15.207 11.1066 15.2095 11.108 15.2094C11.1117 15.2094 11.1172 15.2287 11.1173 15.2426C11.1176 15.2632 11.113 15.2662 11.081 15.2668C11.0656 15.2671 11.047 15.2691 11.0397 15.2713L11.0262 15.2753L11.0255 15.2913C11.0245 15.3129 11.03 15.3189 11.0535 15.3223C11.0633 15.3238 11.0727 15.3262 11.0744 15.3278C11.0761 15.3294 11.081 15.3307 11.0853 15.3306C11.0896 15.3306 11.0958 15.3324 11.099 15.3346C11.1043 15.3383 11.105 15.3424 11.1053 15.3756L11.1057 15.4125L11.1155 15.4155C11.1208 15.4171 11.1269 15.4199 11.1289 15.4218C11.136 15.4285 11.1454 15.4256 11.1492 15.4157C11.1511 15.4106 11.1538 15.4037 11.1552 15.4005C11.1566 15.3973 11.159 15.3778 11.1605 15.3572C11.162 15.3366 11.1651 15.3146 11.1674 15.3082C11.1696 15.3019 11.1728 15.2812 11.1744 15.2622C11.1761 15.2433 11.1789 15.226 11.1808 15.2239C11.1826 15.2216 11.1847 15.2036 11.1854 15.1829C11.1865 15.1533 11.1878 15.1448 11.192 15.1403C11.1964 15.1356 11.1971 15.129 11.1967 15.0989L11.1963 15.0632L11.1843 15.0532C11.1762 15.0466 11.1722 15.0408 11.1722 15.036C11.1721 15.0256 11.1749 15.0226 11.1899 15.0171C11.1973 15.0144 11.2087 15.0102 11.2153 15.0078C11.2218 15.0054 11.2286 15.0019 11.2302 15C11.2354 14.994 11.2521 14.9834 11.2564 14.9834C11.2587 14.9833 11.2628 14.9856 11.2656 14.9885C11.272 14.9952 11.2726 15.0226 11.2666 15.034C11.264 15.0389 11.2623 15.0501 11.2624 15.0614C11.2625 15.0719 11.2605 15.0862 11.258 15.0931C11.2554 15.1004 11.2521 15.1266 11.2503 15.1548C11.2486 15.1817 11.2456 15.2066 11.2436 15.2101C11.2417 15.2136 11.2401 15.2252 11.2402 15.236C11.2403 15.2468 11.2384 15.2667 11.236 15.2802C11.2336 15.2937 11.2304 15.3163 11.2289 15.3306C11.2274 15.3447 11.2242 15.3608 11.2219 15.3663C11.2196 15.3717 11.217 15.3854 11.216 15.3967C11.2151 15.408 11.2119 15.4218 11.2089 15.4273C11.2059 15.4328 11.2035 15.4397 11.2035 15.4424C11.2036 15.4497 11.1881 15.4764 11.1837 15.4765C11.1817 15.4765 11.1788 15.479 11.1772 15.482C11.1755 15.485 11.1701 15.4882 11.1651 15.4892C11.1601 15.4903 11.1523 15.4936 11.1478 15.4967C11.1382 15.5034 11.1102 15.5068 11.0984 15.5028ZM11.0054 15.2176C11.0133 15.2121 11.014 15.2047 11.0067 15.2028C10.9974 15.2006 10.9899 15.1877 10.9893 15.1732C10.9881 15.147 10.9759 15.1455 10.9531 15.1688C10.9465 15.1755 10.9365 15.1845 10.9308 15.1888L10.9205 15.1967L10.928 15.2042C10.9406 15.2169 10.9546 15.2219 10.9777 15.222C10.9924 15.2221 11.0008 15.2207 11.0054 15.2176ZM12.3564 15.4553C12.3501 15.4466 12.3499 15.4446 12.3528 15.4288C12.3545 15.4192 12.3561 15.4031 12.3563 15.3928C12.3564 15.3825 12.3582 15.3712 12.3601 15.3677C12.362 15.3642 12.3636 15.3571 12.3635 15.3518C12.3634 15.3442 12.3661 15.3395 12.3752 15.3307C12.3818 15.3244 12.3871 15.3179 12.3871 15.3162C12.3871 15.3124 12.4105 15.2943 12.4154 15.2943C12.4174 15.2942 12.4214 15.2916 12.4243 15.2884C12.4272 15.2852 12.4333 15.2826 12.4378 15.2825C12.4422 15.2825 12.4494 15.2794 12.4537 15.2758C12.4611 15.2696 12.4616 15.2676 12.4614 15.2441C12.4612 15.229 12.4592 15.2139 12.4562 15.2059C12.4536 15.1987 12.4517 15.1899 12.452 15.1864C12.4524 15.183 12.4515 15.1666 12.45 15.1499C12.4476 15.123 12.4465 15.1189 12.4395 15.1119C12.4352 15.1076 12.43 15.104 12.428 15.1041C12.4242 15.1041 12.41 15.0876 12.412 15.0855C12.4327 15.0634 12.4695 15.0287 12.4736 15.0274C12.482 15.0247 12.4948 15.0305 12.498 15.0384C12.4996 15.0423 12.5018 15.0595 12.503 15.0766C12.5041 15.0936 12.5064 15.1154 12.5082 15.1249C12.5098 15.1344 12.5128 15.1641 12.5148 15.191C12.5167 15.218 12.5196 15.2445 12.5212 15.25C12.5229 15.2556 12.5253 15.2802 12.5266 15.3047C12.528 15.3292 12.5304 15.3543 12.5321 15.3604C12.5379 15.3814 12.562 15.394 12.5792 15.385C12.582 15.3835 12.5948 15.3806 12.6077 15.3785C12.6376 15.3738 12.6381 15.3728 12.6354 15.3302C12.6336 15.3007 12.6326 15.2966 12.6254 15.2877C12.621 15.2823 12.6141 15.2772 12.61 15.2762C12.6017 15.2743 12.5966 15.2673 12.5965 15.2579C12.5965 15.2513 12.6119 15.2358 12.6216 15.2328C12.625 15.2318 12.6339 15.2258 12.6415 15.2196C12.6584 15.2057 12.6696 15.2047 12.6802 15.216C12.6869 15.2233 12.6876 15.227 12.6899 15.2656C12.6917 15.2954 12.6937 15.3098 12.6972 15.3159C12.7008 15.3222 12.7022 15.3324 12.7025 15.3537C12.7026 15.3736 12.7044 15.3863 12.7076 15.3936C12.7118 15.403 12.7119 15.4054 12.7082 15.4134C12.7059 15.4184 12.7031 15.4253 12.702 15.4288C12.6996 15.4369 12.695 15.4382 12.6674 15.4389C12.6551 15.4392 12.6396 15.441 12.633 15.4428C12.6264 15.4446 12.6089 15.4464 12.594 15.4468C12.5307 15.4484 12.4442 15.4557 12.4394 15.4599C12.4359 15.463 12.4258 15.4641 12.399 15.4644L12.3632 15.4647L12.3564 15.4553ZM12.4476 15.3932L12.4632 15.3886L12.4621 15.3736L12.4611 15.3586L12.4486 15.3579C12.4382 15.3572 12.4348 15.3585 12.4284 15.3653C12.4168 15.3774 12.4155 15.3861 12.4243 15.3924C12.4283 15.3953 12.4316 15.3977 12.4317 15.3977C12.4318 15.3978 12.439 15.3957 12.4476 15.3932ZM11.2855 15.4197L11.2743 15.41L11.2758 15.386C11.2766 15.3727 11.2793 15.3567 11.2817 15.3503C11.2841 15.3439 11.2861 15.3294 11.286 15.318C11.2859 15.3066 11.2878 15.2916 11.2901 15.2848C11.2924 15.278 11.2963 15.2526 11.2986 15.2284C11.301 15.2041 11.3042 15.181 11.3057 15.177C11.3072 15.173 11.3084 15.1623 11.3084 15.1533C11.3082 15.1443 11.3106 15.1284 11.3136 15.118C11.317 15.106 11.319 15.0892 11.3189 15.0719C11.3189 15.0569 11.3202 15.0401 11.3219 15.0346C11.3236 15.029 11.3249 15.0214 11.3249 15.0177C11.3248 15.0106 11.3351 14.9941 11.3397 14.994C11.3411 14.994 11.3472 15.001 11.3532 15.0094C11.3592 15.0179 11.3712 15.0314 11.38 15.0395C11.4184 15.075 11.4167 15.0719 11.4042 15.0836C11.3996 15.0879 11.3945 15.0914 11.3928 15.0914C11.3912 15.0915 11.3862 15.0952 11.3818 15.0996C11.3752 15.1064 11.3738 15.1105 11.3739 15.1235C11.3739 15.1321 11.3718 15.1444 11.3693 15.1507C11.3652 15.1612 11.3609 15.2001 11.3594 15.2416C11.359 15.2503 11.3575 15.2593 11.356 15.2618C11.3544 15.2641 11.3526 15.285 11.3519 15.308C11.3512 15.331 11.3494 15.3518 11.3478 15.3541C11.3464 15.3564 11.345 15.3635 11.3449 15.3698C11.3444 15.3933 11.3393 15.4145 11.3322 15.4218C11.3267 15.4276 11.3224 15.4291 11.311 15.4292C11.2989 15.4293 11.295 15.4278 11.2855 15.4197ZM10.4088 15.3804C10.3942 15.3765 10.3867 15.3656 10.3865 15.3481C10.3863 15.3348 10.3873 15.3326 10.3966 15.3254C10.4027 15.3206 10.4122 15.3166 10.4198 15.3155C10.4304 15.314 10.4343 15.315 10.4429 15.321C10.465 15.3365 10.4696 15.3518 10.4568 15.3667C10.4433 15.3825 10.4304 15.3862 10.4088 15.3804ZM13.8111 15.3344C13.802 15.3269 13.8002 15.3235 13.8 15.3139C13.8 15.2974 13.8094 15.2854 13.8299 15.2761C13.8572 15.2638 13.8683 15.2654 13.8786 15.2835C13.8922 15.3076 13.8916 15.3174 13.8752 15.3336C13.8662 15.3426 13.8645 15.3431 13.8438 15.3433C13.8235 15.3434 13.8212 15.3428 13.8111 15.3344ZM10.2468 15.3313C10.2274 15.3266 10.2162 15.307 10.2219 15.2878C10.227 15.2704 10.23 15.2688 10.2555 15.2685C10.2841 15.2682 10.2897 15.273 10.29 15.2982C10.2901 15.3123 10.289 15.3156 10.2819 15.3222C10.2736 15.3299 10.2577 15.334 10.2468 15.3313ZM10.1249 15.2942C10.105 15.2756 10.1082 15.262 10.1376 15.2402C10.1501 15.2308 10.1578 15.2318 10.1721 15.245C10.1942 15.2651 10.1951 15.2778 10.1756 15.2951C10.166 15.3037 10.1617 15.3054 10.1505 15.3056C10.1388 15.3056 10.1354 15.3042 10.1249 15.2942ZM10.512 15.2928C10.5029 15.2897 10.4806 15.2844 10.4623 15.2808C10.4203 15.2728 10.355 15.2581 10.3374 15.2527C10.33 15.2504 10.3165 15.2469 10.3074 15.2449C10.2906 15.2412 10.282 15.2387 10.2547 15.2294C10.2464 15.2267 10.2261 15.2211 10.2096 15.217C10.193 15.2129 10.1736 15.2072 10.1666 15.2042C10.1595 15.2013 10.1511 15.1989 10.148 15.199C10.1448 15.199 10.1377 15.1966 10.1322 15.1937C10.1267 15.1908 10.1136 15.1876 10.103 15.1866C10.0808 15.1846 10.0643 15.1768 10.0549 15.1639C10.0469 15.153 10.0467 15.1444 10.0541 15.1294C10.0572 15.123 10.0598 15.1155 10.0598 15.1127C10.0598 15.11 10.0625 15.1054 10.0658 15.1026C10.0691 15.0999 10.0717 15.0964 10.0717 15.0949C10.0717 15.0915 10.0856 15.0712 10.0938 15.0627C10.1047 15.0516 10.127 15.0408 10.1397 15.0406C10.1471 15.0406 10.1536 15.0386 10.1568 15.0355C10.1604 15.032 10.1686 15.0298 10.183 15.0287L10.2039 15.0271L10.2121 15.0126C10.2166 15.0046 10.2203 14.9942 10.2204 14.9894C10.2204 14.9847 10.2226 14.9769 10.2251 14.9722C10.2276 14.9674 10.2315 14.9557 10.2337 14.9461C10.242 14.91 10.2481 14.89 10.2517 14.8865C10.2569 14.8814 10.2564 14.8791 10.2474 14.868C10.2425 14.862 10.2368 14.8582 10.2327 14.8583C10.2227 14.8584 10.2063 14.8643 10.2012 14.8697C10.1909 14.8805 10.1773 14.8876 10.1669 14.8878C10.1527 14.8879 10.1344 14.8777 10.1275 14.8658C10.1222 14.8565 10.1222 14.856 10.1284 14.8433C10.1325 14.835 10.1378 14.8292 10.143 14.8272C10.1554 14.8224 10.1872 14.8248 10.1946 14.831C10.1998 14.8355 10.2036 14.8359 10.2202 14.834C10.231 14.8328 10.2404 14.8308 10.2412 14.8295C10.242 14.8282 10.2487 14.8262 10.256 14.8251C10.2633 14.824 10.2699 14.8213 10.2708 14.819C10.2717 14.8168 10.2771 14.8141 10.2829 14.813C10.2886 14.8119 10.295 14.8092 10.2968 14.807C10.2987 14.8047 10.3041 14.8028 10.3088 14.8028C10.3154 14.8028 10.3185 14.8048 10.3225 14.812C10.327 14.8201 10.3271 14.8234 10.3239 14.84C10.3219 14.8504 10.3179 14.8637 10.3149 14.8696C10.3118 14.8755 10.3094 14.8854 10.3095 14.8915C10.3096 14.8986 10.3074 14.9052 10.3037 14.9094C10.3004 14.9131 10.2978 14.919 10.2978 14.9226C10.2979 14.9263 10.2958 14.9312 10.2933 14.9337C10.2908 14.9362 10.2873 14.9464 10.2856 14.9563C10.2839 14.9663 10.2809 14.977 10.2788 14.9802C10.2768 14.9834 10.2744 14.9921 10.2734 14.9995C10.2724 15.0069 10.2696 15.0145 10.2672 15.0164C10.2648 15.0184 10.263 15.024 10.263 15.0291C10.263 15.0341 10.2606 15.043 10.2576 15.0488C10.2546 15.0546 10.2513 15.0662 10.2502 15.0747C10.2492 15.0831 10.2466 15.0926 10.2445 15.0958C10.2424 15.0989 10.2398 15.108 10.2386 15.116C10.2375 15.1239 10.2347 15.1334 10.2323 15.137C10.2284 15.143 10.2286 15.1444 10.2341 15.1517C10.243 15.1634 10.269 15.1718 10.2956 15.1716C10.3162 15.1715 10.3173 15.171 10.3248 15.1619C10.3292 15.1564 10.3333 15.1467 10.3344 15.1388C10.3355 15.1312 10.3383 15.1215 10.3406 15.1171C10.343 15.1127 10.3448 15.1018 10.3447 15.0928C10.3445 15.0776 10.3438 15.0759 10.3338 15.0682C10.3238 15.0605 10.3233 15.0592 10.3266 15.0522C10.33 15.0449 10.3436 15.0387 10.3564 15.0385C10.3591 15.0385 10.3645 15.036 10.3684 15.033C10.3723 15.03 10.3784 15.0267 10.382 15.0256C10.3855 15.0244 10.3935 15.0189 10.3998 15.0134C10.4129 15.0016 10.421 15.0013 10.4276 15.0124C10.4317 15.0193 10.4317 15.0215 10.4272 15.034C10.4244 15.0416 10.4222 15.0536 10.4223 15.0606C10.4224 15.0676 10.4206 15.0754 10.4184 15.078C10.4161 15.0805 10.4129 15.0884 10.4113 15.0956C10.4096 15.1027 10.4063 15.1137 10.4038 15.1201C10.4014 15.1264 10.3994 15.1369 10.3994 15.1433C10.3994 15.1497 10.3967 15.16 10.3935 15.1663C10.385 15.1827 10.3861 15.1927 10.3968 15.1975C10.3993 15.1986 10.4048 15.2014 10.4089 15.2036C10.413 15.2059 10.4218 15.2077 10.4284 15.2077C10.435 15.2077 10.4463 15.2102 10.4534 15.2132C10.4606 15.2162 10.475 15.2194 10.4854 15.2204C10.504 15.222 10.5046 15.2218 10.5128 15.2127C10.518 15.207 10.5228 15.1971 10.525 15.187C10.527 15.178 10.5295 15.1678 10.5304 15.1642C10.5333 15.1532 10.5285 15.1388 10.5191 15.1302C10.5027 15.115 10.5095 15.0945 10.5311 15.0943C10.5404 15.0942 10.5658 15.0841 10.5724 15.0778C10.5905 15.0607 10.6018 15.0563 10.6128 15.0618C10.6215 15.0662 10.6243 15.0781 10.6189 15.0877C10.6166 15.0917 10.613 15.1027 10.6107 15.1122C10.6085 15.1218 10.604 15.1388 10.6007 15.15C10.5975 15.1612 10.5927 15.1807 10.5902 15.1933C10.5876 15.2059 10.5831 15.2239 10.58 15.2333C10.5769 15.2427 10.5744 15.2528 10.5745 15.2558C10.5745 15.2588 10.5717 15.2678 10.5683 15.2757C10.5582 15.2988 10.5433 15.3034 10.512 15.2928ZM10.1747 15.1167C10.185 15.1078 10.1852 15.0988 10.1752 15.0945C10.1689 15.0918 10.1652 15.0924 10.1528 15.0984C10.1402 15.1044 10.138 15.1066 10.1386 15.1127C10.1394 15.1195 10.1448 15.1219 10.1635 15.1235C10.1652 15.1236 10.1702 15.1206 10.1747 15.1167ZM12.3451 15.2393C12.3283 15.2336 12.3221 15.2254 12.3208 15.2068C12.3194 15.1874 12.3212 15.1843 12.3418 15.1732L12.3564 15.1652L12.3702 15.1714C12.3894 15.1799 12.398 15.1891 12.3986 15.2021C12.3994 15.216 12.3891 15.2302 12.3731 15.2374C12.359 15.2437 12.3582 15.2438 12.3451 15.2393ZM12.3306 15.1401C12.3226 15.1372 12.31 15.1194 12.31 15.1112C12.31 15.0957 12.333 15.0705 12.3471 15.0703C12.3541 15.0703 12.3733 15.0802 12.3805 15.0877C12.3935 15.1012 12.3906 15.1234 12.3743 15.136C12.3663 15.1422 12.3423 15.1445 12.3306 15.1401ZM10.1335 14.9832C10.1122 14.9791 10.101 14.9622 10.1063 14.9422C10.1129 14.9178 10.1324 14.9039 10.1508 14.9104C10.1626 14.9146 10.184 14.9362 10.1841 14.944C10.1842 14.9529 10.1729 14.9741 10.168 14.9741C10.1659 14.9742 10.1626 14.976 10.1607 14.9782C10.1567 14.983 10.1442 14.9852 10.1335 14.9832Z" fill="#C09300"/>
<path d="M12.4924 10.1238C12.5191 10.1254 12.4564 9.98112 12.4564 9.98112C12.5269 10.0532 12.7935 10.0705 12.7935 10.0705C12.6336 9.99984 12.4736 9.46664 12.4924 9.04164C12.5097 8.61508 12.4313 8.44728 12.3685 8.38456C12.2885 8.30456 12.0314 8.234 11.862 8.2246C11.7663 8.21984 11.782 8.29672 11.782 8.29672C11.6048 8.25124 11.4276 8.234 11.3476 8.28732C11.2723 8.33748 11.2566 8.5884 11.3115 8.54452C11.4448 8.43788 11.5609 8.53508 11.6409 8.65116C11.7114 8.75308 11.7067 9.04164 11.6048 9.37884C11.4981 9.73324 11.2064 10.0877 11.2064 10.0877C11.3649 10.0877 11.5875 9.94656 11.5875 9.94656L11.5342 10.1677C11.702 10.0877 11.8353 9.96384 11.8353 9.96384L11.9953 10.1316C12.0486 10.0611 12.1552 9.96384 12.1552 9.96384C12.1552 9.96384 12.2885 10.105 12.4924 10.1238Z" fill="white"/>
<path d="M11.6268 9.89142L11.5717 10.1198C11.7109 10.0439 11.8168 9.94622 11.8181 9.9451L11.8363 9.92806L11.9936 10.0929C12.05 10.0255 12.1341 9.94854 12.1381 9.94498L12.1565 9.92814L12.1736 9.94626C12.1749 9.94754 12.2927 10.0698 12.4709 10.0956C12.4646 10.0705 12.4487 10.0271 12.4329 9.99114L12.4744 9.96326C12.5123 10.0019 12.6255 10.0249 12.7123 10.0365C12.5688 9.8691 12.4504 9.41546 12.4669 9.04042C12.4847 8.60434 12.4017 8.45354 12.3506 8.40242C12.2757 8.32762 12.0256 8.25898 11.8605 8.24986C11.845 8.24922 11.8238 8.2505 11.8137 8.26198C11.8038 8.27334 11.8069 8.29162 11.8069 8.29182L11.814 8.33078L11.7757 8.32122C11.5797 8.2709 11.4251 8.26602 11.3616 8.30834C11.3411 8.32198 11.3219 8.36354 11.3115 8.41686C11.3027 8.46138 11.303 8.49778 11.3062 8.51642C11.3543 8.48142 11.4038 8.46746 11.4531 8.47498C11.525 8.48554 11.5951 8.53994 11.6617 8.63662C11.7411 8.75142 11.7277 9.05962 11.6291 9.38606C11.5437 9.66946 11.3456 9.94818 11.2629 10.0567C11.4047 10.0313 11.572 9.92622 11.5739 9.92506L11.6268 9.89142ZM11.497 10.2135L11.5488 9.99854C11.4717 10.0412 11.3241 10.113 11.2063 10.113H11.1526L11.1868 10.0715C11.1896 10.068 11.4765 9.7167 11.5803 9.37142C11.6858 9.02278 11.68 8.75242 11.6199 8.66554C11.5624 8.58202 11.5023 8.53358 11.4458 8.52526C11.406 8.51934 11.3675 8.5321 11.3273 8.56426C11.309 8.57882 11.2933 8.57542 11.2856 8.57206C11.2677 8.56446 11.2575 8.54442 11.2544 8.51066C11.2483 8.44578 11.2696 8.30858 11.3335 8.26602C11.4299 8.20174 11.6293 8.23386 11.7577 8.26446C11.7602 8.25298 11.7652 8.24042 11.7749 8.22906C11.7937 8.20722 11.8238 8.19714 11.8632 8.1991C12.0411 8.20894 12.3025 8.28262 12.3864 8.36646C12.456 8.43606 12.5354 8.60986 12.5178 9.04258C12.4986 9.47814 12.6653 9.98598 12.8039 10.0471L12.7919 10.0957C12.7697 10.0943 12.6112 10.0828 12.5075 10.0408C12.5331 10.1143 12.5232 10.1284 12.5179 10.1361L12.5097 10.1477L12.4909 10.1491L12.49 10.149C12.3207 10.1333 12.1993 10.0386 12.155 9.9987C12.1229 10.029 12.0541 10.0958 12.0155 10.1468L11.9975 10.1707L11.8338 9.99898C11.7909 10.036 11.6795 10.1264 11.545 10.1905L11.497 10.2135Z" fill="#C09300"/>
<path d="M11.6063 9.96362L11.5686 9.92962C11.7292 9.75094 11.8187 9.10586 11.8195 9.09942L11.8699 9.10622C11.8661 9.13342 11.7774 9.7733 11.6063 9.96362Z" fill="#C09300"/>
<path d="M11.8576 9.97583L11.8131 9.95159C11.925 9.74579 11.9603 9.09079 11.9605 9.08415L12.0114 9.08683C12.0099 9.11419 11.9751 9.75999 11.8576 9.97583Z" fill="#C09300"/>
<path d="M12.1313 9.97217C12.0864 9.84561 12.0858 9.14201 12.0858 9.11213H12.1367C12.1367 9.31333 12.1443 9.85697 12.1791 9.95517L12.1313 9.97217Z" fill="#C09300"/>
<path d="M12.4354 9.99536C12.2826 9.77096 12.2458 9.17504 12.2444 9.1498L12.295 9.14676C12.2953 9.15284 12.3325 9.75388 12.4773 9.96676L12.4354 9.99536Z" fill="#C09300"/>
<path d="M11.6832 8.78442C11.6754 8.72638 11.6612 8.6809 11.6408 8.6511C11.5608 8.53506 11.4448 8.43782 11.3115 8.54446C11.3115 8.54446 11.357 8.4033 11.4542 8.39858C11.5295 8.3939 11.7005 8.45506 11.851 8.71226C11.851 8.71226 11.7396 8.68714 11.713 8.7107C11.6628 8.75462 11.6832 8.78442 11.6832 8.78442Z" fill="#C09300"/>
<path d="M11.4274 8.47315C11.436 8.47315 11.4446 8.47379 11.4532 8.47507C11.525 8.48563 11.5951 8.53999 11.6618 8.63667C11.6729 8.65303 11.6824 8.67323 11.6901 8.69723C11.6921 8.69535 11.6941 8.69347 11.6962 8.69163C11.717 8.67331 11.7609 8.67319 11.7996 8.67771C11.6626 8.46987 11.5166 8.42047 11.4558 8.42399C11.4192 8.42575 11.3907 8.45335 11.3708 8.48247C11.3896 8.47627 11.4084 8.47315 11.4274 8.47315ZM11.6622 8.79883C11.6616 8.79775 11.6524 8.78395 11.654 8.76255C11.6463 8.72035 11.6346 8.68715 11.6198 8.66547C11.5624 8.58215 11.5023 8.53367 11.4458 8.52535C11.4061 8.51939 11.3675 8.53223 11.3273 8.56439L11.2615 8.61711L11.2874 8.53671C11.2894 8.53027 11.3395 8.37871 11.4531 8.37323C11.5332 8.36907 11.7158 8.43091 11.873 8.69951L11.9025 8.74995L11.8454 8.73711C11.7956 8.72579 11.7404 8.72263 11.7295 8.72995C11.7144 8.74327 11.7078 8.75411 11.7055 8.76167C11.7066 8.76795 11.7075 8.77443 11.7084 8.78107L11.6622 8.79883Z" fill="#C09300"/>
<path d="M11.2973 8.37034C11.3083 8.3343 11.3255 8.3013 11.3475 8.28722C11.4275 8.2339 11.6047 8.25118 11.7819 8.29662C11.7819 8.29662 11.7663 8.21978 11.8619 8.2245C12.0313 8.2339 12.2885 8.3045 12.3685 8.38446C12.3873 8.40482 12.4093 8.43462 12.4281 8.4801H12.4249C12.3857 8.42522 12.2744 8.42838 12.2477 8.4315C12.2053 8.43618 12.1787 8.43462 12.1222 8.44874C12.0956 8.45502 12.0548 8.46286 12.0329 8.4801C12.0156 8.49426 12.0015 8.54602 11.9748 8.54602C11.9325 8.54602 11.9356 8.53502 11.9246 8.52246C11.9105 8.50522 11.9027 8.4801 11.8885 8.48166C11.8447 8.4895 11.7741 8.45502 11.6847 8.38446C11.5953 8.3139 11.5608 8.29662 11.4447 8.3045C11.3302 8.3139 11.2942 8.37818 11.2942 8.37818L11.2973 8.37034H11.2973Z" fill="#C09300"/>
<path d="M11.8893 8.45645C11.9131 8.45645 11.9251 8.47633 11.934 8.49101C11.9372 8.49617 11.9405 8.50169 11.9443 8.50649C11.9468 8.50925 11.949 8.51253 11.9511 8.51561C11.953 8.51849 11.9572 8.52065 11.9749 8.52065C11.9782 8.51857 11.9873 8.50269 11.9923 8.49413C11.9998 8.48105 12.0069 8.46877 12.0169 8.46061C12.0413 8.44129 12.0782 8.43289 12.1078 8.42609L12.1165 8.42409C12.1593 8.41345 12.1856 8.41141 12.2136 8.40917C12.2235 8.40841 12.2337 8.40757 12.2449 8.40637C12.2459 8.40625 12.304 8.39973 12.3605 8.41401C12.3571 8.40981 12.3535 8.40569 12.3498 8.40173C12.2759 8.32773 12.0258 8.25909 11.8605 8.24997C11.8445 8.24901 11.8237 8.25065 11.8138 8.26209C11.8038 8.27345 11.807 8.29173 11.807 8.29193L11.814 8.33089L11.7757 8.32133C11.6899 8.29929 11.612 8.28601 11.5463 8.28153C11.5992 8.29057 11.6381 8.31537 11.7005 8.36465C11.8168 8.45645 11.8677 8.45977 11.8842 8.45673C11.886 8.45657 11.8876 8.45645 11.8893 8.45645ZM11.9749 8.57153C11.9347 8.57153 11.9211 8.56221 11.9088 8.54389L11.905 8.53861C11.8996 8.53205 11.8949 8.52449 11.8907 8.51737C11.8889 8.51453 11.8866 8.51077 11.8847 8.50797C11.8338 8.51281 11.7636 8.47905 11.6691 8.40449C11.5829 8.33649 11.5537 8.32237 11.4465 8.32993C11.3489 8.33797 11.3176 8.38885 11.3163 8.39101L11.2706 8.36909L11.2737 8.36125C11.2837 8.32853 11.3024 8.28613 11.3339 8.26589C11.43 8.20173 11.6293 8.23397 11.7578 8.26457C11.7602 8.25313 11.7653 8.24061 11.775 8.22921C11.7937 8.20729 11.822 8.19665 11.8633 8.19921C12.0413 8.20905 12.3027 8.28273 12.3865 8.36661C12.4138 8.39621 12.4349 8.42997 12.4515 8.47057L12.4661 8.50565H12.4151L12.4044 8.49501C12.3768 8.45629 12.2868 8.45257 12.2507 8.45685C12.2387 8.45813 12.2281 8.45901 12.2176 8.45985C12.1907 8.46197 12.1675 8.46377 12.1284 8.47349L12.1191 8.47565C12.0957 8.48101 12.0637 8.48825 12.0486 8.50017C12.0462 8.50233 12.0403 8.51265 12.0363 8.51945C12.0237 8.54141 12.0065 8.57153 11.9749 8.57153Z" fill="#C09300"/>
<path d="M11.9529 8.47388C11.9796 8.47388 12 8.45348 12 8.4268C12 8.40016 11.9796 8.37976 11.9529 8.37976C11.9278 8.37976 11.9059 8.40016 11.9059 8.4268C11.9059 8.45348 11.9278 8.47388 11.9529 8.47388Z" fill="white"/>
<path d="M10.9291 10.7402C10.9294 10.7916 10.9323 10.8432 10.9349 10.8838C10.9474 11.075 10.9807 11.2696 11.0338 11.4621C11.1964 12.0518 11.5212 12.5455 11.999 12.9298C12.4773 12.5451 12.8024 12.051 12.9654 11.4608C13.0184 11.269 13.0517 11.0745 13.0646 10.8825C13.0671 10.8463 13.0701 10.7939 13.0705 10.7407C13.0653 10.7408 13.06 10.741 13.0549 10.741C12.8178 10.741 12.2472 10.6222 12.0071 10.4276C11.7654 10.6013 11.197 10.741 10.9448 10.741C10.9398 10.741 10.9345 10.7407 10.9291 10.7402ZM11.999 12.9767L11.9877 12.9675C11.5043 12.5826 11.1622 12.0654 10.9984 11.4719C10.9447 11.277 10.9111 11.0799 10.8983 10.8862C10.8952 10.8394 10.8918 10.7784 10.8926 10.719L10.8928 10.6972L10.9141 10.7011C10.926 10.7033 10.9357 10.7043 10.9448 10.7043C11.1904 10.7043 11.7717 10.5604 11.9968 10.3898L12.0085 10.3808L12.0198 10.3904C12.2429 10.582 12.825 10.7043 13.0549 10.7043C13.0659 10.7043 13.0767 10.704 13.0876 10.7033L13.1069 10.702L13.107 10.7214C13.1075 10.7822 13.1039 10.8438 13.1012 10.885C13.0882 11.0794 13.0543 11.2764 13.0008 11.4706C12.8366 12.0646 12.4942 12.5822 12.0104 12.9675L11.999 12.9767Z" fill="#C09300"/>
</g>
</svg>
