<svg viewBox="0 0 24 24" fill="none" xmlns="http://www.w3.org/2000/svg">
<mask id="mask0_436_11816" style="mask-type:luminance" maskUnits="userSpaceOnUse" x="0" y="0" width="24" height="24">
<path d="M12 5.36442e-07C5.37256 5.36442e-07 0 5.3726 0 12C0 18.6274 5.37256 24 12 24C18.6274 24 24 18.6274 24 12C24 5.3726 18.6274 5.36442e-07 12 5.36442e-07Z" fill="white"/>
</mask>
<g mask="url(#mask0_436_11816)">
<path d="M1.21143 24H30V16H13.2114L1.21143 24Z" fill="#001489"/>
<path d="M30 8V1.78814e-07H1.21082L13.2108 8H30Z" fill="#E03C31"/>
<path d="M4.78864 11.9999L-6 4.8075V19.1924L4.7888 12.0001L4.78864 11.9999Z" fill="black"/>
<path d="M12.7268 14.4L-1.67322 24H1.21146L13.2115 16H30.0001V14.4H12.7268Z" fill="white"/>
<path d="M30 9.59998V7.99998H13.2108L1.21086 -2.50936e-05H-1.67322L12.7268 9.59998H30Z" fill="white"/>
<path d="M-6 2.88444V4.80756L4.78864 12L4.7888 12.0001L-6 19.1924V21.1155L7.67324 12L-6 2.88444Z" fill="#FFB81C"/>
<path d="M12.7268 9.6L-1.67324 5.36442e-07H-5.99988L-6 0.000200732V2.88448L7.67324 12L-6 21.1155V24H-5.99996H-1.67328L12.7268 14.4H30V9.6H12.7268Z" fill="#007749"/>
</g>
</svg>
