<svg viewBox="0 0 24 24" fill="none" xmlns="http://www.w3.org/2000/svg">
<mask id="mask0_433_11776" style="mask-type:luminance" maskUnits="userSpaceOnUse" x="0" y="0" width="24" height="24">
<path d="M12 5.36442e-07C5.37256 5.36442e-07 0 5.3726 0 12C0 18.6274 5.37256 24 12 24C18.6274 24 24 18.6274 24 12C24 5.3726 18.6274 5.36442e-07 12 5.36442e-07Z" fill="white"/>
</mask>
<g mask="url(#mask0_433_11776)">
<path d="M16.0001 24H30.6337L16.0001 16.6833V24ZM8.00012 7.31668V5.36442e-07H-6.63312L8.00012 7.31668ZM25.3618 8H36.0001V2.68L25.3618 8ZM36.0001 21.3167V16H25.3667L36.0001 21.3167ZM16.0001 5.36442e-07V7.31676L30.6337 5.36442e-07H16.0001ZM-11.9999 2.68344V8.00012L-1.36648 8.00008L-11.9999 2.68344ZM-11.9999 16V21.3167L-1.36648 16H-11.9999ZM8.00012 24V16.6822L-6.63312 24H8.00012Z" fill="#00247D"/>
<path d="M14.4001 24H16.0001V16.6833L30.6337 24H36.0001L20.0002 16.0001H23.5779L36.0001 22.2112V21.3167L25.3667 16H36.0001V14.4H14.4001V24ZM36.0001 5.36442e-07L20.0001 8H16.4226L32.4226 5.36442e-07H30.6337L16.0001 7.31676V5.36442e-07H14.4001V9.60004H16.0001H22.1622L36.0001 9.60008V8H25.3618L36.0001 2.68V5.36442e-07ZM8.00012 7.31668L-6.63312 5.36442e-07H-11.9999L4.00012 8H0.422602L-11.9999 1.78904V2.68344L-1.36648 8.00008L-11.9999 8.00012V9.6H1.83344L8.00012 9.60004H9.60012V5.36442e-07H8.00012V7.31668ZM-11.9999 16H-1.36648L-11.9999 21.3167V24L4.00012 16H7.57792L-8.422 24H-6.63312L8.00012 16.6822V24H9.60012V14.4H-11.9999V16Z" fill="white"/>
<path d="M20.0001 16.0001L36 24V22.2112L23.5778 16.0001H20.0001ZM16 9.60004H14.4V5.36442e-07H9.6V9.60004H8H1.83332L-12 9.6V14.4H9.6V24H14.4V14.4H36V9.60008H22.1621L16 9.60004ZM4 8L-12 5.36442e-07V1.78904L0.422479 8H4ZM36 5.36442e-07H32.4224L16.4224 8H20L36 5.36442e-07ZM-12 24H-8.42212L7.5778 16H4L-12 24Z" fill="#CF142B"/>
</g>
</svg>
