<svg viewBox="0 0 24 24" fill="none" xmlns="http://www.w3.org/2000/svg">
<mask id="mask0_417_11602" style="mask-type:luminance" maskUnits="userSpaceOnUse" x="0" y="0" width="24" height="24">
<path d="M12 5.36442e-07C5.37256 5.36442e-07 0 5.3726 0 12C0 18.6274 5.37256 24 12 24C18.6274 24 24 18.6274 24 12C24 5.3726 18.6274 5.36442e-07 12 5.36442e-07Z" fill="white"/>
</mask>
<g mask="url(#mask0_417_11602)">
<path d="M-6.23047 16.6154H39.3391V14.7692H-6.23047V16.6154Z" fill="#B22234"/>
<path d="M-6.23047 12.9231H39.3391V11.0769H-6.23047V12.9231Z" fill="#B22234"/>
<path d="M-6.23047 24H39.3391V22.1538H-6.23047V24Z" fill="#B22234"/>
<path d="M-6.23047 20.3077H39.3391V18.4616H-6.23047V20.3077Z" fill="#B22234"/>
<path d="M-6.23047 1.84619H39.3391V3.17795e-05H-6.23047V1.84619Z" fill="#B22234"/>
<path d="M-6.23047 5.53845H39.3391V3.69229H-6.23047V5.53845Z" fill="#B22234"/>
<path d="M-6.23047 9.23083H39.3391V7.38468H-6.23047V9.23083Z" fill="#B22234"/>
<path d="M39.3392 3.69237H-6.23047V1.84621H39.3392V3.69237ZM39.3392 7.38465H-6.23047V5.53849H39.3392V7.38465ZM39.3392 11.077H-6.23047V9.23081H39.3392V11.077ZM39.3392 14.7693H-6.23047V12.9231H39.3392V14.7693ZM39.3392 18.4616H-6.23047V16.6155H39.3392V18.4616ZM39.3392 22.1539H-6.23047V20.3078H39.3392V22.1539Z" fill="white"/>
<path d="M-6.23047 1.6158e-05H11.9974V12.9231H-6.23047V1.6158e-05Z" fill="#3C3B6E"/>
<path d="M4.40243 0.55379L4.23675 1.06407H3.70059L4.13435 1.37943L3.96867 1.88967L4.40243 1.57431L4.83619 1.88967L4.67051 1.37943L5.10427 1.06407H4.56815L4.40243 0.55379ZM4.40243 3.13843L4.23675 3.64867H3.70059L4.13435 3.96403L3.96867 4.47431L4.40243 4.15895L4.83619 4.47431L4.67051 3.96403L5.10427 3.64867H4.56815L4.40243 3.13843ZM6.08711 10.1102L5.92143 9.59995L5.75575 10.1102H5.21959L5.65335 10.4255L5.48767 10.9358L5.92143 10.6205L6.35519 10.9358L6.18951 10.4255L6.62327 10.1102H6.08711ZM2.88343 7.01535L2.71779 7.52559H2.18159L2.61535 7.84095L2.44971 8.35123L2.88343 8.03587L3.31723 8.35123L3.15155 7.84095L3.58531 7.52559H3.04911L2.88343 7.01535ZM5.92143 4.43071L5.75575 4.94099H5.21959L5.65335 5.25631L5.48767 5.76659L5.92143 5.45127L6.35519 5.76659L6.18951 5.25631L6.62327 4.94099H6.08711L5.92143 4.43071ZM5.92143 1.84611L5.75575 2.35635H5.21959L5.65335 2.67171L5.48767 3.18199L5.92143 2.86663L6.35519 3.18199L6.18951 2.67171L6.62327 2.35635H6.08711L5.92143 1.84611ZM2.88343 1.84611L2.71779 2.35635H2.18159L2.61535 2.67171L2.44971 3.18199L2.88343 2.86663L3.31723 3.18199L3.15155 2.67171L3.58531 2.35635H3.04911L2.88343 1.84611ZM2.88343 4.43071L2.71779 4.94099H2.18159L2.61535 5.25631L2.44971 5.76659L2.88343 5.45127L3.31723 5.76659L3.15155 5.25631L3.58531 4.94099H3.04911L2.88343 4.43071ZM4.40243 5.72299L4.23675 6.23327H3.70059L4.13435 6.54863L3.96867 7.05891L4.40243 6.74355L4.83619 7.05891L4.67051 6.54863L5.10427 6.23327H4.56815L4.40243 5.72299ZM4.56815 11.4025L4.40243 10.8922L4.23675 11.4025H3.70059L4.13435 11.7179L3.96867 12.2281L4.40243 11.9128L4.83619 12.2281L4.67051 11.7179L5.10427 11.4025H4.56815ZM4.40243 8.30763L4.23675 8.81791H3.70059L4.13435 9.13327L3.96867 9.64351L4.40243 9.32815L4.83619 9.64351L4.67051 9.13327L5.10427 8.81791H4.56815L4.40243 8.30763ZM5.92143 7.01535L5.75575 7.52559H5.21959L5.65335 7.84095L5.48767 8.35123L5.92143 8.03587L6.35519 8.35123L6.18951 7.84095L6.62327 7.52559H6.08711L5.92143 7.01535ZM8.95939 1.84611L8.79371 2.35635H8.25755L8.69131 2.67171L8.52563 3.18199L8.95939 2.86663L9.39319 3.18199L9.22747 2.67171L9.66127 2.35635H9.12507L8.95939 1.84611ZM10.6441 11.4025L10.4784 10.8922L10.3127 11.4025H9.77655L10.2103 11.7179L10.0446 12.2281L10.4784 11.9128L10.9121 12.2281L10.7465 11.7179L11.1802 11.4025H10.6441ZM10.4784 5.72299L10.3127 6.23327H9.77655L10.2103 6.54867L10.0446 7.05891L10.4784 6.74355L10.9121 7.05891L10.7465 6.54863L11.1802 6.23327H10.6441L10.4784 5.72299ZM10.4784 8.30763L10.3127 8.81791H9.77655L10.2103 9.13327L10.0446 9.64351L10.4784 9.32815L10.9121 9.64351L10.7465 9.13327L11.1802 8.81791H10.6441L10.4784 8.30763ZM7.60611 11.4025L7.44043 10.8922L7.27475 11.4025H6.73855L7.17235 11.7179L7.00663 12.2281L7.44043 11.9128L7.87419 12.2281L7.70851 11.7179L8.14227 11.4025H7.60611ZM8.95939 4.43071L8.79371 4.94099H8.25755L8.69131 5.25631L8.52563 5.76659L8.95939 5.45127L9.39319 5.76659L9.22747 5.25631L9.66127 4.94099H9.12507L8.95939 4.43071ZM7.44043 8.30763L7.27475 8.81791H6.73855L7.17235 9.13327L7.00663 9.64351L7.44043 9.32815L7.87419 9.64351L7.70851 9.13327L8.14227 8.81791H7.60611L7.44043 8.30763ZM8.95939 7.01535L8.79371 7.52559H8.25755L8.69131 7.84095L8.52563 8.35123L8.95939 8.03587L9.39319 8.35123L9.22747 7.84095L9.66127 7.52559H9.12507L8.95939 7.01535ZM7.44043 5.72299L7.27475 6.23327H6.73855L7.17235 6.54863L7.00663 7.05891L7.44043 6.74355L7.87419 7.05891L7.70851 6.54863L8.14227 6.23327H7.60611L7.44043 5.72299ZM9.12507 10.1102L8.95939 9.59995L8.79371 10.1102H8.25755L8.69131 10.4255L8.52563 10.9358L8.95939 10.6205L9.39319 10.9358L9.22747 10.4255L9.66127 10.1102H9.12507ZM7.44043 3.13843L7.27475 3.64867H6.73855L7.17235 3.96403L7.00663 4.47431L7.44043 4.15895L7.87419 4.47431L7.70851 3.96403L8.14227 3.64867H7.60611L7.44043 3.13843ZM7.44043 0.55379L7.27475 1.06407H6.73855L7.17235 1.37943L7.00663 1.88967L7.44043 1.57431L7.87419 1.88967L7.70851 1.37943L8.14227 1.06407H7.60611L7.44043 0.55379ZM-4.71149 3.13843L-4.87717 3.64867H-5.41333L-4.97957 3.96403L-5.14525 4.47431L-4.71149 4.15895L-4.27773 4.47431L-4.44341 3.96403L-4.00965 3.64867H-4.54581L-4.71149 3.13843ZM3.04911 10.1102L2.88343 9.59995L2.71779 10.1102H2.18159L2.61535 10.4255L2.44971 10.9358L2.88343 10.6205L3.31723 10.9358L3.15155 10.4255L3.58531 10.1102H3.04911ZM-3.19249 4.43071L-3.35817 4.94099H-3.89433L-3.46057 5.25631L-3.62625 5.76659L-3.19249 5.45127L-2.75873 5.76659L-2.92441 5.25631L-2.49065 4.94099H-3.02681L-3.19249 4.43071ZM-3.02681 10.1102L-3.19249 9.59995L-3.35817 10.1102H-3.89433L-3.46057 10.4255L-3.62625 10.9358L-3.19249 10.6205L-2.75873 10.9358L-2.92441 10.4255L-2.49065 10.1102H-3.02681ZM-1.50781 11.4025L-1.67349 10.8922L-1.83921 11.4025H-2.37537L-1.94161 11.7179L-2.10729 12.2281L-1.67349 11.9128L-1.23973 12.2281L-1.40541 11.7179L-0.97165 11.4025H-1.50781ZM-3.19249 1.84611L-3.35817 2.35635H-3.89433L-3.46057 2.67171L-3.62625 3.18199L-3.19249 2.86663L-2.75873 3.18199L-2.92441 2.67171L-2.49065 2.35635H-3.02681L-3.19249 1.84611ZM-4.71149 8.30763L-4.87717 8.81791H-5.41333L-4.97957 9.13327L-5.14525 9.64351L-4.71149 9.32815L-4.27773 9.64351L-4.44341 9.13327L-4.00965 8.81791H-4.54581L-4.71149 8.30763ZM10.0446 1.88967L10.4784 1.57431L10.9121 1.88967L10.7465 1.37943L11.1802 1.06407H10.6441L10.4784 0.55379L10.3127 1.06407H9.77655L10.2103 1.37943L10.0446 1.88967ZM-4.54581 11.4025L-4.71149 10.8922L-4.87717 11.4025H-5.41333L-4.97957 11.7179L-5.14525 12.2281L-4.71149 11.9128L-4.27773 12.2281L-4.44341 11.7179L-4.00965 11.4025H-4.54581ZM10.4784 3.13843L10.3127 3.64867H9.77655L10.2103 3.96403L10.0446 4.47431L10.4784 4.15895L10.9121 4.47431L10.7465 3.96403L11.1802 3.64867H10.6441L10.4784 3.13843ZM-4.71149 0.55379L-4.87717 1.06407H-5.41333L-4.97957 1.37943L-5.14525 1.88967L-4.71149 1.57431L-4.27773 1.88967L-4.44341 1.37943L-4.00965 1.06407H-4.54581L-4.71149 0.55379ZM-1.67349 8.30763L-1.83921 8.81791H-2.37537L-1.94161 9.13327L-2.10729 9.64351L-1.67349 9.32815L-1.23973 9.64351L-1.40541 9.13327L-0.97165 8.81791H-1.50781L-1.67349 8.30763ZM-4.71149 5.72299L-4.87717 6.23327H-5.41333L-4.97957 6.54867L-5.14525 7.05891L-4.71149 6.74355L-4.27773 7.05891L-4.44341 6.54863L-4.00965 6.23327H-4.54581L-4.71149 5.72299ZM-3.19249 7.01535L-3.35817 7.52559H-3.89433L-3.46057 7.84095L-3.62625 8.35123L-3.19249 8.03587L-2.75873 8.35123L-2.92441 7.84095L-2.49065 7.52559H-3.02681L-3.19249 7.01535ZM1.36447 8.30763L1.19879 8.81791H0.662629L1.09639 9.13327L0.93071 9.64351L1.36447 9.32815L1.79823 9.64351L1.63255 9.13327L2.06631 8.81791H1.53015L1.36447 8.30763ZM1.36447 5.72299L1.19879 6.23327H0.662629L1.09639 6.54863L0.93071 7.05891L1.36447 6.74355L1.79823 7.05891L1.63255 6.54867L2.06631 6.23327H1.53015L1.36447 5.72299ZM1.36447 3.13843L1.19879 3.64867H0.662629L1.09639 3.96403L0.93071 4.47431L1.36447 4.15895L1.79823 4.47431L1.63255 3.96403L2.06631 3.64867H1.53015L1.36447 3.13843ZM1.36447 0.55379L1.19879 1.06407H0.662629L1.09639 1.37943L0.93071 1.88967L1.36447 1.57431L1.79823 1.88967L1.63255 1.37943L2.06631 1.06407H1.53015L1.36447 0.55379ZM1.53015 11.4025L1.36447 10.8922L1.19879 11.4025H0.662629L1.09639 11.7179L0.93071 12.2281L1.36447 11.9128L1.79823 12.2281L1.63255 11.7179L2.06631 11.4025H1.53015ZM-1.67349 0.55379L-1.83921 1.06407H-2.37537L-1.94161 1.37943L-2.10729 1.88967L-1.67349 1.57431L-1.23973 1.88967L-1.40541 1.37943L-0.97165 1.06407H-1.50781L-1.67349 0.55379ZM-1.67349 3.13843L-1.83921 3.64867H-2.37537L-1.94161 3.96403L-2.10729 4.47431L-1.67349 4.15895L-1.23973 4.47431L-1.40541 3.96403L-0.97165 3.64867H-1.50781L-1.67349 3.13843ZM-1.67349 5.72299L-1.83921 6.23327H-2.37537L-1.94161 6.54863L-2.10729 7.05891L-1.67349 6.74355L-1.23973 7.05891L-1.40541 6.54863L-0.97165 6.23327H-1.50781L-1.67349 5.72299ZM-0.15453 4.43071L-0.32021 4.94099H-0.85637L-0.42261 5.25631L-0.58829 5.76659L-0.15453 5.45127L0.27923 5.76659L0.11355 5.25631L0.54735 4.94099H0.0111498L-0.15453 4.43071ZM0.0111498 10.1102L-0.15453 9.59995L-0.32021 10.1102H-0.85637L-0.42261 10.4255L-0.58829 10.9358L-0.15453 10.6205L0.27923 10.9358L0.11355 10.4255L0.54735 10.1102H0.0111498ZM-0.15453 1.84611L-0.32021 2.35635H-0.85637L-0.42261 2.67171L-0.58829 3.18199L-0.15453 2.86663L0.27923 3.18199L0.11355 2.67171L0.54735 2.35635H0.0111498L-0.15453 1.84611ZM-0.15453 7.01535L-0.32021 7.52559H-0.85637L-0.42261 7.84095L-0.58829 8.35123L-0.15453 8.03587L0.27923 8.35123L0.11355 7.84095L0.54735 7.52559H0.0111498L-0.15453 7.01535Z" fill="white"/>
</g>
</svg>
