<svg width="26" height="20" viewBox="0 0 26 20" fill="none" xmlns="http://www.w3.org/2000/svg">
<path d="M19.8004 5.88804C18.1154 6.97678 16.3731 7.91223 14.8688 9.13067C13.5209 10.2202 12.4323 11.6213 11.2347 12.8876C10.9572 13.1819 10.718 13.5131 10.429 13.7958C9.46635 14.7402 8.37589 14.5927 7.81619 13.4525C7.73354 13.2843 7.67074 13.1047 7.53512 12.774C6.53733 13.7909 5.57546 14.7075 4.69426 15.6889C3.64581 16.8555 2.66492 18.0808 1.65451 19.2799C1.23179 19.7807 0.602934 19.962 0.292348 19.6323C-0.156313 19.1552 -0.00398889 18.74 0.53418 18.3475C0.770961 18.1744 0.907222 17.8731 1.11268 17.6499C3.07496 15.5377 5.02871 13.419 7.02247 11.3362C7.30008 11.0464 7.80857 10.7483 8.15359 10.7877C8.69472 10.8502 9.11403 11.2307 9.06977 11.9039C9.05502 12.1282 9.19244 12.3579 9.31019 12.7535C10.0538 11.9129 10.7307 11.1858 11.3659 10.4282C12.7961 8.72312 14.4554 7.31069 16.446 6.24318C17.3791 5.74312 18.206 5.03846 19.0611 4.39933C19.4762 4.08927 19.3218 3.37626 18.8037 3.08692C18.6128 2.98125 18.3189 2.95549 18.2248 2.80079C18.0903 2.57621 17.9857 2.23669 18.0721 2.0073C18.1534 1.78992 18.472 1.5628 18.7219 1.49578C20.01 1.15659 21.3121 0.875153 22.6046 0.55613C22.9716 0.466955 23.3414 0.353448 23.6846 0.193928C24.1818 -0.036311 24.5394 0.0957722 24.9023 0.420239C25.3137 0.787123 25.1421 1.17709 24.931 1.54888C24.2484 2.7451 23.5358 3.92683 22.8484 5.11898C22.6874 5.39827 22.5921 5.71231 22.4311 5.9916C22.2355 6.33177 22.0056 6.91667 21.7851 6.9304C21.1739 6.9674 20.4398 7.06631 20.041 6.4172C19.9303 6.23797 19.8665 6.03167 19.8022 5.887L19.8004 5.88804Z" fill="currentColor"/>
</svg>
