<svg viewBox="0 0 20 20" fill="none" xmlns="http://www.w3.org/2000/svg">
<path fill-rule="evenodd" clip-rule="evenodd" d="M11.993 3.8007C11.993 3.58834 12.0773 3.38468 12.2275 3.23452C12.3777 3.08436 12.5813 3 12.7937 3H19.1993C19.4117 3 19.6153 3.08436 19.7655 3.23452C19.9156 3.38468 20 3.58834 20 3.8007V10.2063C20 10.4187 19.9156 10.6223 19.7655 10.7725C19.6153 10.9227 19.4117 11.007 19.1993 11.007C18.9869 11.007 18.7833 10.9227 18.6331 10.7725C18.483 10.6223 18.3986 10.4187 18.3986 10.2063V6.04267L12.6127 13.1161C12.5419 13.2025 12.4537 13.2732 12.354 13.3235C12.2542 13.3739 12.1449 13.4028 12.0333 13.4083C11.9217 13.4139 11.8101 13.3961 11.7058 13.3559C11.6015 13.3158 11.5068 13.2543 11.4277 13.1753L7.28484 9.0325L1.4301 17.0828C1.30202 17.2456 1.1158 17.3525 0.910573 17.3809C0.705346 17.4094 0.497088 17.3571 0.329564 17.2352C0.162041 17.1133 0.048294 16.9312 0.0122278 16.7272C-0.0238384 16.5232 0.020584 16.3131 0.13616 16.1411L6.54178 7.3334C6.60977 7.23975 6.69726 7.16194 6.79822 7.10534C6.89917 7.04875 7.0112 7.01471 7.12657 7.00558C7.24195 6.99645 7.35793 7.01244 7.46653 7.05244C7.57513 7.09245 7.67377 7.15552 7.75565 7.23732L11.9337 11.417L17.5098 4.60141H12.7937C12.5813 4.60141 12.3777 4.51705 12.2275 4.36689C12.0773 4.21672 11.993 4.01306 11.993 3.8007Z" fill="currentColor"/>
</svg>
