<svg width="26" height="20" viewBox="0 0 26 20" fill="none" xmlns="http://www.w3.org/2000/svg">
<path d="M18.8619 15.7427C17.4173 14.4452 16.1094 13.0479 14.579 11.9617C13.2098 10.9877 11.595 10.3535 10.0871 9.57532C9.7369 9.39531 9.3592 9.26277 9.0177 9.06838C7.87747 8.42136 7.77493 7.33239 8.76211 6.46208C8.90767 6.33363 9.0689 6.22086 9.36127 5.99405C8.14226 5.3346 7.02931 4.68025 5.87135 4.12222C4.49467 3.45796 3.07592 2.87566 1.67603 2.25741C1.09119 1.99851 0.771866 1.44843 1.02365 1.05413C1.38828 0.484257 1.82827 0.508901 2.33341 0.91021C2.55602 1.08667 2.88121 1.1292 3.14566 1.26097C5.65282 2.52499 8.16433 3.77896 10.6498 5.08182C10.9956 5.26329 11.4019 5.66375 11.4414 6.00616C11.5028 6.54341 11.2259 7.05686 10.5584 7.21133C10.3358 7.26282 10.1426 7.4618 9.78279 7.69043C10.7721 8.1577 11.6355 8.59418 12.5192 8.98179C14.5082 9.85462 16.2632 11.0328 17.7563 12.6296C18.4558 13.3782 19.3311 13.9651 20.1489 14.5983C20.5456 14.9056 21.2072 14.549 21.3726 13.9674C21.4327 13.7534 21.3914 13.4641 21.5212 13.3286C21.7102 13.1339 22.0181 12.9342 22.2618 12.95C22.4925 12.9644 22.7864 13.2035 22.9084 13.4236C23.5311 14.5597 24.1005 15.7262 24.7045 16.8724C24.8746 17.1983 25.0691 17.5197 25.3026 17.8022C25.6399 18.2116 25.5918 18.5933 25.357 19.0362C25.0916 19.5381 24.6719 19.4876 24.261 19.3939C22.9381 19.0892 21.6226 18.7514 20.3026 18.441C19.9933 18.3682 19.665 18.3687 19.3558 18.296C18.9793 18.2079 18.3559 18.1585 18.2926 17.951C18.1182 17.3757 17.8556 16.7006 18.3994 16.1282C18.5495 15.9696 18.7365 15.8481 18.8633 15.7442L18.8619 15.7427Z" fill="currentColor"/>
</svg>
