<svg width="20" height="20" viewBox="0 0 20 20" fill="none" xmlns="http://www.w3.org/2000/svg">
<path fill-rule="evenodd" clip-rule="evenodd" d="M11.993 16.9212C11.993 17.1335 12.0773 17.3372 12.2275 17.4874C12.3777 17.6375 12.5813 17.7219 12.7937 17.7219H19.1993C19.4117 17.7219 19.6153 17.6375 19.7655 17.4874C19.9156 17.3372 20 17.1335 20 16.9212V10.5155C20 10.3032 19.9156 10.0995 19.7655 9.94937C19.6153 9.79921 19.4117 9.71485 19.1993 9.71485C18.9869 9.71485 18.7833 9.79921 18.6331 9.94937C18.483 10.0995 18.3986 10.3032 18.3986 10.5155V14.6792L12.6127 7.60579C12.5419 7.51934 12.4537 7.44867 12.354 7.39834C12.2542 7.348 12.1449 7.31912 12.0333 7.31354C11.9217 7.30796 11.8101 7.3258 11.7058 7.36593C11.6015 7.40606 11.5068 7.46759 11.4277 7.54654L7.28484 11.6894L1.4301 3.63911C1.30202 3.47625 1.1158 3.36938 0.910573 3.34095C0.705346 3.31252 0.497088 3.36475 0.329564 3.48666C0.162041 3.60857 0.048294 3.79067 0.0122278 3.9947C-0.0238384 4.19872 0.020584 4.40878 0.13616 4.58074L6.54178 13.3885C6.60977 13.4821 6.69726 13.5599 6.79822 13.6165C6.89917 13.6731 7.0112 13.7072 7.12657 13.7163C7.24195 13.7254 7.35793 13.7094 7.46653 13.6694C7.57513 13.6294 7.67377 13.5664 7.75565 13.4846L11.9337 9.30489L17.5098 16.1205H12.7937C12.5813 16.1205 12.3777 16.2048 12.2275 16.355C12.0773 16.5052 11.993 16.7088 11.993 16.9212Z" fill="currentColor"/>
</svg>
